<?xml version="1.0" encoding="utf-8"?>
<!-- Generator: Adobe Illustrator 27.2.0, SVG Export Plug-In . SVG Version: 6.00 Build 0)  -->
<svg version="1.1" id="Layer_1" xmlns="http://www.w3.org/2000/svg" xmlns:xlink="http://www.w3.org/1999/xlink" x="0px" y="0px"
	 viewBox="0 0 500 500" style="enable-background:new 0 0 500 500;" xml:space="preserve">
<style type="text/css">
	.st0{clip-path:url(#SVGID_00000149375943234517949880000004955665715486976645_);}
	.st1{fill:none;stroke:#3C3C42;stroke-width:2.3385;stroke-miterlimit:10;}
	.st2{fill:none;stroke:#BABABA;stroke-width:2.1046;stroke-miterlimit:10;}
	.st3{fill:none;stroke:#3C3C42;stroke-width:1.8708;stroke-miterlimit:10;}
	.st4{clip-path:url(#SVGID_00000134931153047971450950000001701557041257370536_);}
	.st5{fill:none;stroke:#BABABA;stroke-width:0.1169;stroke-miterlimit:10;}
	.st6{clip-path:url(#SVGID_00000016755967378733508250000009482169484239842985_);}
	.st7{fill:#BABABA;}
	.st8{clip-path:url(#SVGID_00000105390240424843373290000007703479589622429875_);}
	.st9{fill:#E54242;}
	.st10{fill:#FF1616;}
	.st11{clip-path:url(#SVGID_00000075860379857629535280000003060538644515052449_);}
	.st12{clip-path:url(#SVGID_00000052101791401980372520000006497370875597511816_);}
	.st13{clip-path:url(#SVGID_00000004511054407161132640000003417001095684690620_);}
	.st14{fill:#DE3738;}
	.st15{fill:#7D2426;}
	.st16{fill:#231F20;}
</style>
<g>
	<defs>
		<rect id="SVGID_1_" x="154.3" y="202.1" width="190" height="68.4"/>
	</defs>
	<clipPath id="SVGID_00000093153507431680313190000009891917439458935202_">
		<use xlink:href="#SVGID_1_"  style="overflow:visible;"/>
	</clipPath>
	<g style="clip-path:url(#SVGID_00000093153507431680313190000009891917439458935202_);">
		<path class="st1" d="M155.6,270.6v-28.5c0-2.7,2.2-4.9,4.9-4.9h19.7c2.7,0,4.9,2.2,4.9,4.9v5.3c0,2.7,2.2,4.9,4.9,4.9h19
			c2.7,0,4.9-2.2,4.9-4.9v-22.9c0-2.7,2.2-4.9,4.9-4.9h26.6c2.7,0,4.9,2.2,4.9,4.9v7.7c0,2.7,2.2,4.9,4.9,4.9h25.1
			c2.7,0,4.9,2.2,4.9,4.9v10.6c0,2.7,2.2,4.9,4.9,4.9H314c2.7,0,4.9-2.2,4.9-4.9v-19.2c0-2.7,2.2-4.9,4.9-4.9h24.3
			c2.7,0,4.9-2.2,4.9-4.9v-22.9"/>
		<path class="st2" d="M155.6,270.6v-28.5c0-2.7,2.2-4.9,4.9-4.9h19.7c2.7,0,4.9,2.2,4.9,4.9v5.3c0,2.7,2.2,4.9,4.9,4.9h19
			c2.7,0,4.9-2.2,4.9-4.9v-22.9c0-2.7,2.2-4.9,4.9-4.9h26.6c2.7,0,4.9,2.2,4.9,4.9v7.7c0,2.7,2.2,4.9,4.9,4.9h25.1
			c2.7,0,4.9,2.2,4.9,4.9v10.6c0,2.7,2.2,4.9,4.9,4.9H314c2.7,0,4.9-2.2,4.9-4.9v-19.2c0-2.7,2.2-4.9,4.9-4.9h24.3
			c2.7,0,4.9-2.2,4.9-4.9v-22.9"/>
		<path class="st3" d="M155.6,270.6v-28.5c0-2.7,2.2-4.9,4.9-4.9h19.7c2.7,0,4.9,2.2,4.9,4.9v5.3c0,2.7,2.2,4.9,4.9,4.9h19
			c2.7,0,4.9-2.2,4.9-4.9v-22.9c0-2.7,2.2-4.9,4.9-4.9h26.6c2.7,0,4.9,2.2,4.9,4.9v7.7c0,2.7,2.2,4.9,4.9,4.9h25.1
			c2.7,0,4.9,2.2,4.9,4.9v10.6c0,2.7,2.2,4.9,4.9,4.9H314c2.7,0,4.9-2.2,4.9-4.9v-19.2c0-2.7,2.2-4.9,4.9-4.9h24.3
			c2.7,0,4.9-2.2,4.9-4.9v-22.9"/>
	</g>
</g>
<g>
	<defs>
		<rect id="SVGID_00000114757579422975482210000012422435029513483450_" x="154.7" y="269.3" width="1.3" height="1.3"/>
	</defs>
	<clipPath id="SVGID_00000039856312711409816810000015384779858629412260_">
		<use xlink:href="#SVGID_00000114757579422975482210000012422435029513483450_"  style="overflow:visible;"/>
	</clipPath>
	<g style="clip-path:url(#SVGID_00000039856312711409816810000015384779858629412260_);">
		<path class="st5" d="M155.6,270.6v-0.5"/>
	</g>
</g>
<g>
	<defs>
		<rect id="SVGID_00000146500248250392669030000017376317043590171311_" x="154.7" y="202.1" width="189.6" height="67.2"/>
	</defs>
	<clipPath id="SVGID_00000079452900226771831530000005065305711306372540_">
		<use xlink:href="#SVGID_00000146500248250392669030000017376317043590171311_"  style="overflow:visible;"/>
	</clipPath>
	<g style="clip-path:url(#SVGID_00000079452900226771831530000005065305711306372540_);">
		<path class="st7" d="M155.6,269.2v-0.9h-0.1v0.9H155.6z M155.6,267.3v-0.9h-0.1v0.9H155.6z M155.6,265.5v-0.9h-0.1v0.9H155.6z
			 M155.6,263.6v-0.9h-0.1v0.9H155.6z M155.6,261.7v-0.9h-0.1v0.9H155.6z M155.6,259.8v-0.9h-0.1v0.9H155.6z M155.6,258V257h-0.1
			v0.9H155.6z M155.6,256.1v-0.9h-0.1v0.9H155.6z M155.6,254.2v-0.9h-0.1v0.9H155.6z M155.6,252.4v-0.9h-0.1v0.9H155.6z
			 M155.6,250.5v-0.9h-0.1v0.9H155.6z M155.6,248.6v-0.9h-0.1v0.9H155.6z M155.6,246.8v-0.9h-0.1v0.9H155.6z M155.6,244.9V244h-0.1
			v0.9H155.6z M155.6,243v-0.9h-0.1v0.9H155.6z M155.7,241.2c0.1-0.3,0.1-0.6,0.3-0.9l-0.1,0c-0.1,0.3-0.2,0.6-0.3,0.9L155.7,241.2z
			 M156.4,239.5c0.2-0.3,0.4-0.5,0.6-0.7l-0.1-0.1C156.7,238.9,156.5,239.1,156.4,239.5L156.4,239.5z M157.7,238.1
			c0.3-0.2,0.5-0.3,0.8-0.5l-0.1-0.1C158.1,237.7,157.8,237.8,157.7,238.1L157.7,238.1z M159.3,237.4c0.3-0.1,0.6-0.1,0.9-0.1l0-0.1
			c-0.3,0-0.6,0.1-0.9,0.1L159.3,237.4z M161.2,237.2h0.9v-0.1h-0.9V237.2z M163.1,237.2h0.9v-0.1h-0.9V237.2z M164.9,237.2h0.9
			v-0.1h-0.9V237.2z M166.8,237.2h0.9v-0.1h-0.9V237.2z M168.7,237.2h0.9v-0.1h-0.9V237.2z M170.5,237.2h0.9v-0.1h-0.9V237.2z
			 M172.4,237.2h0.9v-0.1h-0.9V237.2z M174.3,237.2h0.9v-0.1h-0.9V237.2z M176.2,237.2h0.9v-0.1h-0.9V237.2z M178,237.2h0.9v-0.1
			H178V237.2z M179.9,237.2h0.3c0.2,0,0.4,0,0.7,0l0-0.1c-0.2,0-0.5,0-0.7,0h-0.3V237.2z M181.7,237.5c0.3,0.1,0.6,0.2,0.8,0.4
			l0.1-0.1c-0.3-0.2-0.6-0.3-0.9-0.4L181.7,237.5z M183.3,238.4c0.2,0.2,0.4,0.4,0.6,0.7l0.1-0.1
			C183.9,238.7,183.7,238.5,183.3,238.4L183.3,238.4z M184.5,239.8c0.1,0.3,0.3,0.6,0.3,0.9l0.1,0c-0.1-0.3-0.2-0.6-0.4-0.9
			L184.5,239.8z M185,241.6c0,0.2,0,0.3,0,0.5v0.5h0.1v-0.5c0-0.2,0-0.3,0-0.5L185,241.6z M185,243.5v0.9h0.1v-0.9H185z M185,245.3
			v0.9h0.1v-0.9H185z M185,247.2v0.2c0,0.2,0,0.5,0.1,0.8l0.1,0c0-0.2-0.1-0.5-0.1-0.7v-0.2H185z M185.3,249.1
			c0.1,0.3,0.2,0.6,0.4,0.9l0.1-0.1c-0.2-0.3-0.3-0.5-0.4-0.8L185.3,249.1z M186.3,250.7c0.2,0.2,0.4,0.5,0.7,0.6l0.1-0.1
			C186.8,251,186.6,250.8,186.3,250.7L186.3,250.7z M187.8,251.8c0.3,0.1,0.6,0.3,0.9,0.3l0-0.1c-0.3-0.1-0.6-0.2-0.9-0.3
			L187.8,251.8z M189.6,252.3c0.1,0,0.3,0,0.4,0h0.5v-0.1H190c-0.1,0-0.3,0-0.4,0L189.6,252.3z M191.5,252.3h0.9v-0.1h-0.9V252.3z
			 M193.3,252.3h0.9v-0.1h-0.9V252.3z M195.2,252.3h0.9v-0.1h-0.9V252.3z M197.1,252.3h0.9v-0.1h-0.9V252.3z M199,252.3h0.9v-0.1
			H199V252.3z M200.8,252.3h0.9v-0.1h-0.9V252.3z M202.7,252.3h0.9v-0.1h-0.9V252.3z M204.6,252.3h0.9v-0.1h-0.9V252.3z
			 M206.4,252.3h0.9v-0.1h-0.9V252.3z M208.3,252.3h0.7c0.1,0,0.2,0,0.3,0l0-0.1c-0.1,0-0.2,0-0.3,0h-0.7V252.3z M210.2,252.2
			c0.3-0.1,0.6-0.2,0.9-0.3l-0.1-0.1c-0.3,0.1-0.6,0.2-0.9,0.3L210.2,252.2z M211.9,251.4c0.3-0.2,0.5-0.4,0.7-0.6l-0.1-0.1
			C212.3,250.9,212.1,251.1,211.9,251.4L211.9,251.4z M213.2,250c0.2-0.3,0.3-0.6,0.4-0.8l-0.1,0C213.4,249.4,213.3,249.7,213.2,250
			L213.2,250z M213.9,248.3c0.1-0.3,0.1-0.6,0.1-0.9v0h-0.1v0c0,0.3,0,0.6-0.1,0.9L213.9,248.3z M214,246.4v-0.9h-0.1v0.9H214z
			 M214,244.5v-0.9h-0.1v0.9H214z M214,242.7v-0.9h-0.1v0.9H214z M214,240.8v-0.9h-0.1v0.9H214z M214,238.9V238h-0.1v0.9H214z
			 M214,237.1v-0.9h-0.1v0.9H214z M214,235.2v-0.9h-0.1v0.9H214z M214,233.3v-0.9h-0.1v0.9H214z M214,231.4v-0.9h-0.1v0.9H214z
			 M214,229.6v-0.9h-0.1v0.9H214z M214,227.7v-0.9h-0.1v0.9H214z M214,225.8v-0.9h-0.1v0.9H214z M214,224c0-0.3,0.1-0.6,0.2-0.9
			l-0.1,0c-0.1,0.3-0.2,0.6-0.2,0.9L214,224z M214.5,222.2c0.1-0.3,0.3-0.5,0.5-0.8l-0.1-0.1c-0.2,0.2-0.4,0.5-0.5,0.8L214.5,222.2z
			 M215.7,220.8c0.2-0.2,0.5-0.4,0.8-0.5l-0.1-0.1C216.1,220.3,215.9,220.5,215.7,220.8L215.7,220.8z M217.3,219.9
			c0.3-0.1,0.6-0.2,0.9-0.2l0-0.1c-0.3,0-0.6,0.1-0.9,0.2L217.3,219.9z M219.2,219.7h0.9v-0.1h-0.9V219.7z M221,219.7h0.9v-0.1H221
			V219.7z M222.9,219.7h0.9v-0.1h-0.9V219.7z M224.8,219.7h0.9v-0.1h-0.9V219.7z M226.7,219.7h0.9v-0.1h-0.9V219.7z M228.5,219.7
			h0.9v-0.1h-0.9V219.7z M230.4,219.7h0.9v-0.1h-0.9V219.7z M232.3,219.7h0.9v-0.1h-0.9V219.7z M234.1,219.7h0.9v-0.1h-0.9V219.7z
			 M236,219.7h0.9v-0.1H236V219.7z M237.9,219.7h0.9v-0.1h-0.9V219.7z M239.8,219.7h0.9v-0.1h-0.9V219.7z M241.6,219.7h0.9v-0.1
			h-0.9V219.7z M243.5,219.7h0.9v-0.1h-0.9V219.7z M245.4,219.7L245.4,219.7c0.3,0,0.6,0,0.9,0.1l0-0.1c-0.3-0.1-0.6-0.1-0.9-0.1h0
			V219.7z M247.2,220c0.3,0.1,0.6,0.2,0.8,0.4l0.1-0.1c-0.3-0.2-0.5-0.3-0.8-0.4L247.2,220z M248.8,221c0.2,0.2,0.4,0.4,0.6,0.7
			l0.1-0.1C249.3,221.4,249.1,221.1,248.8,221L248.8,221z M249.8,222.5c0.1,0.3,0.2,0.6,0.3,0.9l0.1,0c-0.1-0.3-0.2-0.6-0.3-0.9
			L249.8,222.5z M250.3,224.3c0,0.1,0,0.2,0,0.3v0.7h0.1v-0.7c0-0.1,0-0.2,0-0.3L250.3,224.3z M250.3,226.1v0.9h0.1v-0.9H250.3z
			 M250.3,228v0.9h0.1V228H250.3z M250.3,229.9v0.9h0.1v-0.9H250.3z M250.3,231.7v0.5c0,0.2,0,0.3,0,0.5l0.1,0c0-0.2,0-0.3,0-0.5
			v-0.5H250.3z M250.5,233.6c0.1,0.3,0.2,0.6,0.3,0.9l0.1-0.1c-0.1-0.3-0.3-0.6-0.3-0.9L250.5,233.6z M251.3,235.3
			c0.2,0.2,0.4,0.5,0.7,0.7l0.1-0.1C251.8,235.7,251.6,235.5,251.3,235.3L251.3,235.3z M252.8,236.5c0.3,0.2,0.6,0.3,0.9,0.4l0-0.1
			c-0.3-0.1-0.6-0.2-0.8-0.4L252.8,236.5z M254.5,237.1c0.2,0,0.5,0.1,0.7,0.1h0.2v-0.1h-0.2c-0.2,0-0.5,0-0.7,0L254.5,237.1z
			 M256.4,237.2h0.9v-0.1h-0.9V237.2z M258.3,237.2h0.9v-0.1h-0.9V237.2z M260.2,237.2h0.9v-0.1h-0.9V237.2z M262.1,237.2h0.9v-0.1
			h-0.9V237.2z M263.9,237.2h0.9v-0.1h-0.9V237.2z M265.8,237.2h0.9v-0.1h-0.9V237.2z M267.7,237.2h0.9v-0.1h-0.9V237.2z
			 M269.5,237.2h0.9v-0.1h-0.9V237.2z M271.4,237.2h0.9v-0.1h-0.9V237.2z M273.3,237.2h0.9v-0.1h-0.9V237.2z M275.2,237.2h0.9v-0.1
			h-0.9V237.2z M277,237.2h0.9v-0.1H277V237.2z M278.9,237.2h0.9v-0.1h-0.9V237.2z M280.8,237.2c0.3,0,0.6,0.1,0.9,0.2l0-0.1
			c-0.3-0.1-0.6-0.2-0.9-0.2L280.8,237.2z M282.5,237.7c0.3,0.1,0.5,0.3,0.8,0.5l0.1-0.1C283.1,237.9,282.9,237.8,282.5,237.7
			L282.5,237.7z M284,238.9c0.2,0.2,0.4,0.5,0.5,0.8l0.1-0.1C284.5,239.3,284.3,239,284,238.9L284,238.9z M284.9,240.4
			c0.1,0.3,0.2,0.6,0.2,0.9l0.1,0c0-0.3-0.1-0.6-0.2-0.9L284.9,240.4z M285.2,242.3v0.9h0.1v-0.9H285.2z M285.2,244.1v0.9h0.1v-0.9
			H285.2z M285.2,246v0.9h0.1V246H285.2z M285.2,247.9v0.9h0.1v-0.9H285.2z M285.2,249.7v0.9h0.1v-0.9H285.2z M285.2,251.6v0.9h0.1
			v-0.9H285.2z M285.3,253.5c0.1,0.3,0.1,0.6,0.3,0.9l0.1,0c-0.1-0.3-0.2-0.6-0.3-0.9L285.3,253.5z M286,255.2
			c0.2,0.3,0.4,0.5,0.6,0.7l0.1-0.1C286.4,255.7,286.2,255.4,286,255.2L286,255.2z M287.2,256.6c0.3,0.2,0.5,0.3,0.8,0.5l0.1-0.1
			C287.8,256.8,287.6,256.7,287.2,256.6L287.2,256.6z M289,257.4c0.3,0.1,0.6,0.1,0.9,0.1l0-0.1c-0.3,0-0.6-0.1-0.9-0.1L289,257.4z
			 M290.8,257.5h0.9v-0.1h-0.9V257.5z M292.7,257.5h0.9v-0.1h-0.9V257.5z M294.6,257.5h0.9v-0.1h-0.9V257.5z M296.5,257.5h0.9v-0.1
			h-0.9V257.5z M298.3,257.5h0.9v-0.1h-0.9V257.5z M300.2,257.5h0.9v-0.1h-0.9V257.5z M302.1,257.5h0.9v-0.1h-0.9V257.5z M304,257.5
			h0.9v-0.1H304V257.5z M305.8,257.5h0.9v-0.1h-0.9V257.5z M307.7,257.5h0.9v-0.1h-0.9V257.5z M309.6,257.5h0.9v-0.1h-0.9V257.5z
			 M311.5,257.5h0.9v-0.1h-0.9V257.5z M313.3,257.5h0.7c0.1,0,0.2,0,0.3,0l0-0.1c-0.1,0-0.2,0-0.3,0h-0.7V257.5z M315.2,257.4
			c0.3-0.1,0.6-0.2,0.9-0.3l0-0.1c-0.3,0.1-0.6,0.2-0.9,0.3L315.2,257.4z M316.9,256.6c0.3-0.2,0.5-0.4,0.7-0.6l-0.1-0.1
			C317.3,256.1,317.1,256.3,316.9,256.6L316.9,256.6z M318.2,255.2c0.2-0.3,0.3-0.5,0.4-0.8l-0.1,0
			C318.4,254.6,318.3,254.9,318.2,255.2L318.2,255.2z M318.9,253.5c0.1-0.3,0.1-0.6,0.1-0.9v-0.1h-0.1v0.1c0,0.3,0,0.6-0.1,0.9
			L318.9,253.5z M319,251.6v-0.9h-0.1v0.9H319z M319,249.7v-0.9h-0.1v0.9H319z M319,247.8v-0.9h-0.1v0.9H319z M319,246V245h-0.1v0.9
			H319z M319,244.1v-0.9h-0.1v0.9H319z M319,242.2v-0.9h-0.1v0.9H319z M319,240.4v-0.9h-0.1v0.9H319z M319,238.5v-0.9h-0.1v0.9H319z
			 M319,236.6v-0.9h-0.1v0.9H319z M319,234.8v-0.9h-0.1v0.9H319z M319,232.9c0-0.3,0.1-0.6,0.2-0.9l-0.1,0c-0.1,0.3-0.1,0.6-0.2,0.9
			L319,232.9z M319.5,231.1c0.1-0.3,0.3-0.5,0.5-0.8l-0.1-0.1c-0.2,0.2-0.4,0.5-0.5,0.8L319.5,231.1z M320.6,229.7
			c0.2-0.2,0.5-0.4,0.7-0.5l-0.1-0.1C321,229.2,320.8,229.4,320.6,229.7L320.6,229.7z M322.2,228.8c0.3-0.1,0.6-0.2,0.9-0.2l0-0.1
			c-0.3,0-0.6,0.1-0.9,0.2L322.2,228.8z M324,228.5h0.9v-0.1H324V228.5z M325.9,228.5h0.9v-0.1h-0.9V228.5z M327.8,228.5h0.9v-0.1
			h-0.9V228.5z M329.7,228.5h0.9v-0.1h-0.9V228.5z M331.5,228.5h0.9v-0.1h-0.9V228.5z M333.4,228.5h0.9v-0.1h-0.9V228.5z
			 M335.3,228.5h0.9v-0.1h-0.9V228.5z M337.1,228.5h0.9v-0.1h-0.9V228.5z M339,228.5h0.9v-0.1H339V228.5z M340.9,228.5h0.9v-0.1
			h-0.9V228.5z M342.8,228.5h0.9v-0.1h-0.9V228.5z M344.6,228.5h0.9v-0.1h-0.9V228.5z M346.5,228.5h0.9v-0.1h-0.9V228.5z
			 M348.4,228.5c0.3,0,0.6-0.1,0.9-0.1l0-0.1c-0.3,0.1-0.6,0.1-0.9,0.1L348.4,228.5z M350.2,228c0.3-0.1,0.6-0.3,0.8-0.5l-0.1-0.1
			c-0.2,0.2-0.5,0.3-0.8,0.5L350.2,228z M351.8,226.9c0.2-0.2,0.4-0.5,0.6-0.7l-0.1-0.1C352.1,226.4,351.9,226.6,351.8,226.9
			L351.8,226.9z M352.8,225.3c0.1-0.3,0.2-0.6,0.3-0.9l-0.1,0c-0.1,0.3-0.1,0.6-0.3,0.9L352.8,225.3z M353.1,223.5v-0.9H353v0.9
			H353.1z M353.1,221.6v-0.9H353v0.9H353.1z M353.1,219.7v-0.9H353v0.9H353.1z M353.1,217.9v-0.9H353v0.9H353.1z M353.1,216v-0.9
			H353v0.9H353.1z M353.1,214.1v-0.9H353v0.9H353.1z M353.1,212.3v-0.9H353v0.9H353.1z M353.1,210.4v-0.9H353v0.9H353.1z
			 M353.1,208.5v-0.9H353v0.9H353.1z M353.1,206.7v-0.9H353v0.9H353.1z M353.1,204.8v-0.9H353v0.9H353.1z M353.1,202.9V202H353v0.9
			H353.1z"/>
	</g>
</g>
<g>
	<defs>
		<rect id="SVGID_00000064354107827312605290000010020922686739498900_" x="344" y="221.3" width="0.3" height="8"/>
	</defs>
	<clipPath id="SVGID_00000164515721986217929020000001725282099626481070_">
		<use xlink:href="#SVGID_00000064354107827312605290000010020922686739498900_"  style="overflow:visible;"/>
	</clipPath>
	<g style="clip-path:url(#SVGID_00000164515721986217929020000001725282099626481070_);">
		<path class="st9" d="M347.1,222.1C347.1,222.1,347,222.1,347.1,222.1C347,222.1,347,222.1,347.1,222.1c-0.1,0-0.1-0.1-0.2-0.1
			c0,0,0,0,0,0c0,0-0.1,0-0.1,0c0,0,0,0,0,0c0,0-0.1,0-0.1,0c0,0,0,0,0,0c0,0-0.1,0-0.1,0c0,0,0,0-0.1,0c0,0-0.1,0-0.1,0
			c0,0,0,0,0,0c0,0-0.1,0-0.1,0c0,0-0.1,0-0.1,0c0,0,0,0,0,0c0,0-0.1,0-0.1,0c0,0,0,0,0,0c0,0-0.1,0-0.1,0c0,0,0,0,0,0
			c0,0-0.1,0-0.1,0c0,0,0,0,0,0c0,0,0,0,0,0c0,0-0.1,0-0.1,0.1c0,0,0,0,0,0c0,0-0.1,0-0.1,0.1c0,0,0,0,0,0c0,0,0,0,0,0
			c0,0-0.1,0-0.1,0.1c0,0,0,0,0,0c0,0-0.1,0.1-0.1,0.1c0,0,0,0,0,0c0,0,0,0,0,0c0,0,0,0-0.1,0.1c0,0,0,0,0,0c0,0-0.1,0.1-0.1,0.1h0
			c0,0,0,0,0,0c0,0,0,0-0.1,0.1c0,0,0,0,0,0c0,0,0,0.1-0.1,0.1c0,0,0,0,0,0c0,0,0,0,0,0c0,0,0,0.1-0.1,0.1c0,0,0,0,0,0
			c0,0,0,0.1,0,0.1c0,0,0,0,0,0c0,0,0,0,0,0c0,0,0,0.1-0.1,0.1c0,0,0,0,0,0c0,0,0,0.1-0.1,0.1c0,0,0,0,0,0c0,0,0,0,0,0s0,0,0,0
			c0,0,0,0,0,0c0,0,0,0,0,0.1c0,0,0,0,0,0c0,0,0,0,0,0.1c0,0,0,0,0,0c0,0,0,0,0,0.1c0,0,0,0,0,0c0,0,0,0,0,0.1c0,0,0,0,0,0
			c0,0,0,0,0,0.1c0,0,0,0,0,0c0,0,0,0.1,0,0.1c0,0.3,0.1,0.6,0.2,0.8c0.6,1.4,1.6,3.4,1.6,3.5l0.7,0.4c0-0.1-1-2.1-1.6-3.5
			c-0.1-0.2-0.2-0.5-0.2-0.8c0,0,0-0.1,0-0.1c0,0,0,0,0,0c0,0,0,0,0-0.1c0,0,0,0,0,0c0,0,0,0,0-0.1c0,0,0,0,0,0c0,0,0,0,0-0.1
			c0,0,0,0,0,0c0,0,0,0,0-0.1c0,0,0,0,0,0c0,0,0,0,0-0.1c0,0,0,0,0,0c0,0,0,0,0,0c0,0,0,0,0,0c0,0,0,0,0-0.1c0,0,0-0.1,0.1-0.1
			c0,0,0,0,0,0c0,0,0-0.1,0.1-0.1c0,0,0,0,0,0c0,0,0-0.1,0-0.1c0,0,0,0,0,0c0,0,0-0.1,0.1-0.1c0,0,0,0,0,0c0,0,0,0,0.1-0.1
			c0,0,0,0,0,0c0,0,0-0.1,0.1-0.1c0,0,0,0,0,0c0,0,0.1-0.1,0.1-0.1c0,0,0,0,0,0c0,0,0,0,0.1-0.1c0,0,0,0,0,0c0,0,0.1-0.1,0.1-0.1
			c0,0,0,0,0,0c0,0,0.1,0,0.1-0.1c0,0,0,0,0,0c0,0,0.1-0.1,0.1-0.1c0,0,0,0,0,0c0,0,0.1,0,0.1-0.1c0,0,0,0,0,0c0,0,0.1,0,0.1,0
			c0,0,0,0,0,0c0,0,0.1,0,0.1,0c0,0,0,0,0,0c0,0,0.1,0,0.1,0c0,0,0,0,0,0c0,0,0.1,0,0.1,0c0,0,0.1,0,0.1,0c0,0,0,0,0,0
			c0,0,0.1,0,0.1,0c0,0,0,0,0.1,0c0,0,0.1,0,0.1,0c0,0,0,0,0,0c0,0,0.1,0,0.1,0c0,0,0,0,0,0c0,0,0.1,0,0.1,0c0,0,0,0,0,0
			c0,0,0.1,0,0.1,0c0,0,0,0,0.1,0L347.1,222.1"/>
	</g>
</g>
<path class="st9" d="M311.7,251C311.7,251,311.7,251,311.7,251C311.7,250.9,311.7,250.9,311.7,251c-0.1-0.1-0.1-0.1-0.2-0.1
	c0,0,0,0,0,0c0,0-0.1,0-0.1,0c0,0,0,0,0,0c0,0,0,0,0,0c0,0-0.1,0-0.1,0c0,0,0,0,0,0c0,0-0.1,0-0.1,0c0,0,0,0-0.1,0c0,0-0.1,0-0.1,0
	c0,0,0,0,0,0c0,0-0.1,0-0.1,0c0,0-0.1,0-0.1,0c0,0,0,0,0,0c0,0-0.1,0-0.1,0c0,0,0,0,0,0c0,0-0.1,0-0.1,0c0,0,0,0,0,0
	c0,0-0.1,0-0.1,0c0,0,0,0,0,0c0,0,0,0,0,0c0,0-0.1,0-0.1,0.1c0,0,0,0,0,0c0,0-0.1,0.1-0.1,0.1c0,0,0,0,0,0c0,0,0,0,0,0
	c0,0-0.1,0-0.1,0.1c0,0,0,0,0,0c0,0-0.1,0.1-0.1,0.1c0,0,0,0,0,0c0,0,0,0,0,0c0,0,0,0-0.1,0.1c0,0,0,0,0,0c0,0-0.1,0.1-0.1,0.1
	c0,0,0,0,0,0c0,0,0,0,0,0c0,0,0,0-0.1,0.1c0,0,0,0,0,0c0,0,0,0.1-0.1,0.1c0,0,0,0,0,0s0,0,0,0c0,0,0,0.1-0.1,0.1c0,0,0,0,0,0
	c0,0,0,0.1,0,0.1c0,0,0,0,0,0c0,0,0,0,0,0c0,0,0,0.1-0.1,0.1c0,0,0,0,0,0c0,0,0,0.1-0.1,0.1c0,0,0,0,0,0c0,0,0,0,0,0c0,0,0,0,0,0
	c0,0,0,0,0,0c0,0,0,0,0,0c0,0,0,0,0,0c0,0,0,0,0,0c0,0,0,0,0,0.1c0,0,0,0,0,0c0,0,0,0,0,0.1c0,0,0,0,0,0c0,0,0,0,0,0.1c0,0,0,0,0,0
	c0,0,0,0,0,0.1c0,0,0,0,0,0c0,0,0,0.1,0,0.1c0,0.3,0.1,0.6,0.2,0.8c0.6,1.4,1.6,3.4,1.6,3.5l0.7,0.4c0-0.1-1-2.1-1.6-3.5
	c-0.1-0.2-0.2-0.5-0.2-0.8c0,0,0-0.1,0-0.1c0,0,0,0,0,0c0,0,0,0,0-0.1c0,0,0,0,0,0c0,0,0,0,0-0.1c0,0,0,0,0,0c0,0,0,0,0-0.1s0,0,0,0
	c0,0,0,0,0-0.1c0,0,0,0,0,0s0,0,0-0.1c0,0,0,0,0,0c0,0,0,0,0,0c0,0,0,0,0,0c0,0,0,0,0,0c0,0,0-0.1,0.1-0.1c0,0,0,0,0,0
	c0,0,0-0.1,0.1-0.1c0,0,0,0,0,0c0,0,0-0.1,0-0.1c0,0,0,0,0,0c0,0,0-0.1,0.1-0.1c0,0,0,0,0,0c0,0,0,0,0.1-0.1c0,0,0,0,0,0
	c0,0,0,0,0.1-0.1c0,0,0,0,0,0c0,0,0.1-0.1,0.1-0.1c0,0,0,0,0,0c0,0,0,0,0.1-0.1c0,0,0,0,0,0c0,0,0.1-0.1,0.1-0.1c0,0,0,0,0,0
	c0,0,0.1,0,0.1-0.1c0,0,0,0,0,0c0,0,0.1-0.1,0.1-0.1c0,0,0,0,0,0c0,0,0.1-0.1,0.1-0.1c0,0,0,0,0,0c0,0,0.1,0,0.1,0c0,0,0,0,0,0
	c0,0,0.1,0,0.1,0c0,0,0,0,0,0c0,0,0.1,0,0.1,0c0,0,0,0,0,0c0,0,0.1,0,0.1,0c0.1,0,0.1,0,0.1,0c0,0,0,0,0,0c0,0,0.1,0,0.1,0
	c0,0,0,0,0.1,0c0,0,0.1,0,0.1,0c0,0,0,0,0,0c0,0,0.1,0,0.1,0c0,0,0,0,0,0c0,0,0.1,0,0.1,0c0,0,0,0,0,0c0,0,0.1,0,0.1,0
	c0,0,0.1,0,0.1,0L311.7,251"/>
<path class="st9" d="M311.6,254.3C311.6,254.3,311.6,254.2,311.6,254.3C311.7,254.2,311.7,254.2,311.6,254.3c0.1,0,0.2-0.1,0.2-0.1
	c0,0,0,0,0,0c0,0,0,0,0.1,0c0,0,0,0,0,0c0,0,0,0,0.1,0c0,0,0,0,0,0c0,0,0,0,0,0c0,0,0,0,0.1,0c0,0,0,0,0,0c0,0,0,0,0,0
	c0,0,0.1-0.1,0.1-0.1c0,0,0,0,0,0c0,0,0.1-0.1,0.1-0.1c0,0,0,0,0,0c0,0,0,0,0,0c0,0,0-0.1,0-0.1c0,0,0,0,0,0c0,0,0,0,0-0.1
	c0,0,0,0,0,0c0,0,0,0,0,0c0,0,0,0,0,0c0,0,0,0,0,0c0,0,0,0,0-0.1s0,0,0-0.1c0,0,0,0,0-0.1c0,0,0,0,0,0c0,0,0,0,0,0c0,0,0,0,0,0
	c0,0,0,0,0,0c0,0,0-0.1,0-0.1c0,0,0-0.1,0-0.1c0,0,0,0,0,0c0,0,0-0.1,0-0.1c0,0,0,0,0,0c0,0,0-0.1,0-0.1c0,0,0,0,0,0
	c0,0,0-0.1,0-0.1c0,0,0,0,0,0c0,0,0-0.1,0-0.1c0,0,0,0,0,0c0,0,0-0.1-0.1-0.1c0,0,0,0,0,0c0,0,0,0-0.1-0.1c0,0,0,0,0,0
	c0,0,0,0-0.1-0.1c0,0,0,0,0,0c0,0,0,0-0.1-0.1c0,0,0,0,0,0c0,0,0,0-0.1-0.1c0,0,0,0,0,0c-0.1-0.1-0.2-0.1-0.4-0.1
	c0.1,0.2,0.2,0.4,0.2,0.7c0,0,0,0.1,0,0.1c0,0,0,0,0,0c0,0,0,0.1,0,0.1c0,0,0,0,0,0c0,0,0,0.1,0,0.1c0,0,0,0,0,0.1c0,0,0,0,0,0.1
	c0,0,0,0,0,0c0,0,0,0.1,0,0.1c0,0,0,0,0,0c0,0,0,0,0,0.1c0,0,0,0,0,0c0,0,0,0.1-0.1,0.1c0,0,0,0,0,0c0,0,0,0,0,0
	c0,0-0.1,0.1-0.1,0.1c0,0,0,0,0,0c0,0-0.1,0.1-0.1,0.1c0,0,0,0,0,0c0,0,0,0,0,0c0,0,0,0-0.1,0.1c0,0,0,0,0,0c0,0,0,0-0.1,0
	c0,0,0,0,0,0c0,0,0,0-0.1,0c0,0,0,0,0,0c0,0-0.1,0-0.1,0c0,0,0,0,0,0c0,0,0,0-0.1,0c0,0,0,0,0,0c0,0-0.1,0-0.1,0c0,0-0.1,0-0.1,0
	c0,0,0,0,0,0c0,0,0,0-0.1,0c0,0,0,0,0,0s0,0,0,0c0.1,0.1,0.2,0.2,0.3,0.3c0,0,0,0,0,0c0,0,0,0,0.1,0c0,0,0,0,0,0c0,0,0,0,0.1,0
	c0,0,0,0,0,0c0,0,0,0,0.1,0c0,0,0,0,0,0c0,0,0,0,0,0c0,0,0,0,0.1,0c0,0,0,0,0,0c0,0,0,0,0,0c0,0,0.1,0,0.1,0
	S311.5,254.3,311.6,254.3C311.6,254.3,311.6,254.3,311.6,254.3"/>
<path class="st10" d="M311.4,254.3c0.6-0.1,1.1-0.7,1.1-1.4c0-0.7-0.5-1.1-1.1-1.1c-0.6,0.1-1.1,0.7-1.1,1.4
	C310.3,253.9,310.8,254.4,311.4,254.3 M313.2,252.8c0,0.3-0.1,0.6-0.2,0.8c-0.6,1.6-1.6,3.8-1.6,4c0-0.1-1-2.1-1.6-3.5
	c-0.1-0.2-0.2-0.5-0.2-0.8c0-1.1,0.8-2,1.8-2.2C312.4,251,313.2,251.8,313.2,252.8"/>
<path class="st9" d="M279.6,230.8C279.6,230.8,279.6,230.8,279.6,230.8C279.5,230.7,279.5,230.7,279.6,230.8
	c-0.1-0.1-0.1-0.1-0.2-0.1c0,0,0,0,0,0c0,0-0.1,0-0.1,0c0,0,0,0,0,0c0,0,0,0,0,0c0,0-0.1,0-0.1,0c0,0,0,0,0,0c0,0-0.1,0-0.1,0
	c0,0,0,0,0,0c0,0-0.1,0-0.1,0c0,0,0,0,0,0c-0.1,0-0.1,0-0.1,0c0,0-0.1,0-0.1,0c0,0,0,0,0,0c0,0-0.1,0-0.1,0c0,0,0,0,0,0
	c0,0-0.1,0-0.1,0c0,0,0,0,0,0c0,0-0.1,0-0.1,0c0,0,0,0,0,0c0,0,0,0,0,0c0,0-0.1,0-0.1,0.1c0,0,0,0,0,0c0,0-0.1,0.1-0.1,0.1
	c0,0,0,0,0,0c0,0,0,0,0,0c0,0-0.1,0-0.1,0.1c0,0,0,0,0,0c0,0-0.1,0.1-0.1,0.1c0,0,0,0,0,0c0,0,0,0,0,0c0,0,0,0-0.1,0.1c0,0,0,0,0,0
	c0,0-0.1,0.1-0.1,0.1v0c0,0,0,0,0,0c0,0,0,0.1-0.1,0.1c0,0,0,0,0,0c0,0,0,0-0.1,0.1c0,0,0,0,0,0c0,0,0,0,0,0c0,0,0,0.1-0.1,0.1
	c0,0,0,0,0,0c0,0,0,0.1-0.1,0.1c0,0,0,0,0,0c0,0,0,0,0,0c0,0,0,0.1-0.1,0.1c0,0,0,0,0,0c0,0,0,0.1-0.1,0.1l0,0c0,0,0,0,0,0
	c0,0,0,0,0,0c0,0,0,0,0,0.1c0,0,0,0,0,0c0,0,0,0,0,0.1c0,0,0,0,0,0c0,0,0,0,0,0.1c0,0,0,0,0,0c0,0,0,0,0,0.1c0,0,0,0,0,0
	c0,0,0,0,0,0.1c0,0,0,0,0,0c0,0,0,0,0,0.1c0,0,0,0,0,0c0,0,0,0.1,0,0.1c0,0.3,0.1,0.6,0.2,0.8c0.6,1.4,1.6,3.4,1.6,3.5l0.7,0.4
	c0-0.1-1-2.1-1.6-3.5c-0.1-0.2-0.2-0.5-0.2-0.8c0,0,0-0.1,0-0.1c0,0,0,0,0,0c0,0,0,0,0-0.1c0,0,0,0,0,0c0,0,0,0,0-0.1c0,0,0,0,0,0
	c0,0,0,0,0-0.1s0,0,0,0c0,0,0,0,0-0.1c0,0,0,0,0,0c0,0,0,0,0-0.1c0,0,0,0,0,0c0,0,0,0,0-0.1c0,0,0,0,0,0c0,0,0,0,0,0
	c0,0,0-0.1,0.1-0.1c0,0,0,0,0,0c0,0,0-0.1,0.1-0.1c0,0,0,0,0,0c0,0,0-0.1,0-0.1c0,0,0,0,0,0c0,0,0-0.1,0.1-0.1c0,0,0,0,0,0
	c0,0,0-0.1,0.1-0.1c0,0,0,0,0,0c0,0,0,0,0.1-0.1c0,0,0,0,0,0c0,0,0.1-0.1,0.1-0.1c0,0,0,0,0,0c0,0,0,0,0.1-0.1c0,0,0,0,0,0
	c0,0,0.1-0.1,0.1-0.1c0,0,0,0,0,0c0,0,0.1,0,0.1-0.1c0,0,0,0,0,0c0,0,0.1-0.1,0.1-0.1c0,0,0,0,0,0c0,0,0.1,0,0.1-0.1c0,0,0,0,0,0
	c0,0,0.1,0,0.1,0c0,0,0,0,0,0c0,0,0.1,0,0.1,0c0,0,0,0,0,0c0,0,0.1,0,0.1,0c0,0,0,0,0,0c0,0,0.1,0,0.1,0c0.1,0,0.1,0,0.1,0
	c0,0,0,0,0,0c0,0,0.1,0,0.1,0c0,0,0,0,0.1,0c0,0,0.1,0,0.1,0c0,0,0,0,0,0c0,0,0.1,0,0.1,0c0,0,0,0,0,0c0,0,0.1,0,0.1,0c0,0,0,0,0,0
	c0,0,0.1,0,0.1,0c0,0,0.1,0,0.1,0L279.6,230.8"/>
<path class="st9" d="M279.4,234.1C279.5,234.1,279.5,234.1,279.4,234.1c0.1,0,0.1,0,0.1,0c0,0,0.1,0,0.1,0c0,0,0,0,0,0
	c0,0,0.1,0,0.1,0c0,0,0,0,0,0c0,0,0,0,0.1,0c0,0,0,0,0,0c0,0,0,0,0,0c0,0,0,0,0.1,0c0,0,0,0,0,0c0,0,0,0,0,0c0,0,0.1-0.1,0.1-0.1
	c0,0,0,0,0,0c0,0,0.1-0.1,0.1-0.1c0,0,0,0,0,0c0,0,0,0,0,0c0,0,0-0.1,0-0.1c0,0,0,0,0,0c0,0,0,0,0-0.1c0,0,0,0,0,0c0,0,0,0,0,0
	c0,0,0,0,0,0c0,0,0,0,0,0c0,0,0,0,0-0.1c0,0,0,0,0-0.1c0,0,0,0,0-0.1c0,0,0,0,0-0.1c0,0,0,0,0,0c0,0,0,0,0,0s0,0,0,0
	c0,0,0-0.1,0-0.1c0,0,0-0.1,0-0.1c0,0,0,0,0,0c0,0,0-0.1,0-0.1c0,0,0,0,0,0c0,0,0-0.1,0-0.1c0,0,0,0,0,0c0,0,0-0.1,0-0.1
	c0,0,0,0,0,0c0,0,0-0.1,0-0.1c0,0,0,0,0,0c0,0,0-0.1-0.1-0.1c0,0,0,0,0,0c0,0,0,0-0.1-0.1c0,0,0,0,0,0c0,0,0,0-0.1-0.1c0,0,0,0,0,0
	c0,0,0,0-0.1-0.1c0,0-0.1,0-0.1-0.1c0,0,0,0,0,0c-0.1-0.1-0.2-0.1-0.4-0.1c0.1,0.2,0.2,0.4,0.2,0.7c0,0,0,0.1,0,0.1c0,0,0,0,0,0
	c0,0,0,0.1,0,0.1c0,0,0,0,0,0.1c0,0,0,0,0,0.1s0,0,0,0.1c0,0,0,0,0,0.1c0,0,0,0,0,0c0,0,0,0.1,0,0.1c0,0,0,0,0,0c0,0,0,0,0,0.1
	c0,0,0,0,0,0c0,0,0,0.1,0,0.1c0,0,0,0,0,0c0,0,0,0,0,0c0,0-0.1,0.1-0.1,0.1c0,0,0,0,0,0c0,0-0.1,0.1-0.1,0.1c0,0,0,0,0,0
	c0,0,0,0,0,0c0,0,0,0-0.1,0.1c0,0,0,0,0,0c0,0,0,0-0.1,0c0,0,0,0,0,0c0,0,0,0-0.1,0c0,0,0,0,0,0c0,0-0.1,0-0.1,0c0,0,0,0,0,0
	c0,0,0,0-0.1,0c0,0,0,0,0,0c0,0-0.1,0-0.1,0c0,0-0.1,0-0.1,0c0,0,0,0,0,0c0,0,0,0-0.1,0c0,0,0,0,0,0s0,0,0,0
	c0.1,0.1,0.2,0.2,0.3,0.3c0,0,0,0,0,0c0,0,0,0,0.1,0c0,0,0,0,0,0c0,0,0,0,0.1,0c0,0,0,0,0,0c0,0,0,0,0.1,0c0,0,0,0,0,0c0,0,0,0,0,0
	c0,0,0,0,0.1,0c0,0,0,0,0,0c0,0,0,0,0,0c0,0,0.1,0,0.1,0C279.3,234.1,279.4,234.1,279.4,234.1C279.4,234.1,279.4,234.1,279.4,234.1"
	/>
<path class="st10" d="M279.3,234.1c0.6-0.1,1.1-0.7,1.1-1.4c0-0.7-0.5-1.1-1.1-1.1c-0.6,0.1-1.1,0.7-1.1,1.4
	C278.2,233.7,278.7,234.2,279.3,234.1 M281.1,232.6c0,0.3-0.1,0.6-0.2,0.8c-0.6,1.6-1.6,3.8-1.6,3.9c0-0.1-1-2.1-1.6-3.5
	c-0.1-0.2-0.2-0.5-0.2-0.8c0-1.1,0.8-2,1.8-2.2C280.3,230.8,281.1,231.6,281.1,232.6"/>
<path class="st9" d="M242.3,213.3C242.3,213.2,242.3,213.2,242.3,213.3C242.2,213.2,242.2,213.2,242.3,213.3
	c-0.1-0.1-0.1-0.1-0.2-0.1c0,0,0,0,0,0c0,0-0.1,0-0.1,0h0c0,0,0,0,0,0c0,0-0.1,0-0.1,0c0,0,0,0,0,0c0,0-0.1,0-0.1,0c0,0,0,0,0,0
	c0,0-0.1,0-0.1,0c0,0,0,0,0,0c0,0-0.1,0-0.1,0c0,0-0.1,0-0.1,0c0,0,0,0,0,0c0,0-0.1,0-0.1,0c0,0,0,0,0,0c0,0-0.1,0-0.1,0
	c0,0,0,0,0,0c0,0-0.1,0-0.1,0c0,0,0,0,0,0c0,0,0,0,0,0c0,0-0.1,0-0.1,0.1c0,0,0,0,0,0c0,0-0.1,0.1-0.1,0.1c0,0,0,0,0,0c0,0,0,0,0,0
	c0,0-0.1,0-0.1,0.1c0,0,0,0,0,0c0,0-0.1,0.1-0.1,0.1c0,0,0,0,0,0c0,0,0,0,0,0c0,0,0,0-0.1,0.1c0,0,0,0,0,0c0,0-0.1,0.1-0.1,0.1v0
	c0,0,0,0,0,0c0,0,0,0.1-0.1,0.1c0,0,0,0,0,0c0,0,0,0-0.1,0.1c0,0,0,0,0,0c0,0,0,0,0,0c0,0,0,0.1-0.1,0.1c0,0,0,0,0,0
	c0,0,0,0.1-0.1,0.1c0,0,0,0,0,0v0c0,0,0,0.1-0.1,0.1c0,0,0,0,0,0c0,0,0,0.1-0.1,0.1v0c0,0,0,0,0,0s0,0,0,0s0,0,0,0.1c0,0,0,0,0,0
	c0,0,0,0,0,0.1c0,0,0,0,0,0c0,0,0,0,0,0.1c0,0,0,0,0,0c0,0,0,0,0,0.1c0,0,0,0,0,0c0,0,0,0,0,0.1c0,0,0,0,0,0c0,0,0,0,0,0.1
	c0,0,0,0,0,0c0,0,0,0.1,0,0.1c0,0.3,0.1,0.6,0.2,0.8c0.6,1.4,1.6,3.4,1.6,3.5l0.7,0.4c0-0.1-1-2.1-1.6-3.5c-0.1-0.2-0.2-0.5-0.2-0.8
	c0,0,0-0.1,0-0.1c0,0,0,0,0,0c0,0,0,0,0-0.1c0,0,0,0,0,0c0,0,0,0,0-0.1c0,0,0,0,0,0c0,0,0,0,0-0.1c0,0,0,0,0,0c0,0,0,0,0-0.1
	c0,0,0,0,0,0c0,0,0,0,0,0c0,0,0,0,0,0c0,0,0,0,0-0.1c0,0,0,0,0,0c0,0,0,0,0,0c0,0,0-0.1,0.1-0.1c0,0,0,0,0,0c0,0,0-0.1,0.1-0.1
	c0,0,0,0,0,0c0,0,0-0.1,0.1-0.1c0,0,0,0,0,0c0,0,0-0.1,0.1-0.1c0,0,0,0,0,0c0,0,0-0.1,0.1-0.1c0,0,0,0,0,0c0,0,0,0,0.1-0.1
	c0,0,0,0,0,0c0,0,0.1-0.1,0.1-0.1c0,0,0,0,0,0c0,0,0,0,0.1-0.1c0,0,0,0,0,0c0,0,0.1-0.1,0.1-0.1c0,0,0,0,0,0c0,0,0.1,0,0.1-0.1
	c0,0,0,0,0,0c0,0,0.1-0.1,0.1-0.1c0,0,0,0,0,0c0,0,0.1,0,0.1-0.1c0,0,0,0,0,0c0,0,0.1,0,0.1,0c0,0,0,0,0,0c0,0,0.1,0,0.1,0
	c0,0,0,0,0,0c0,0,0.1,0,0.1,0c0,0,0,0,0,0c0,0,0.1,0,0.1,0c0,0,0.1,0,0.1,0c0,0,0,0,0,0c0,0,0.1,0,0.1,0c0,0,0,0,0.1,0
	c0,0,0.1,0,0.1,0c0,0,0,0,0,0c0,0,0.1,0,0.1,0c0,0,0,0,0,0c0,0,0.1,0,0.1,0c0,0,0,0,0,0c0,0,0.1,0,0.1,0c0,0,0.1,0,0.1,0
	L242.3,213.3"/>
<path class="st9" d="M242.1,216.6C242.2,216.5,242.2,216.5,242.1,216.6c0.1,0,0.1,0,0.1,0c0,0,0.1,0,0.1,0c0,0,0,0,0,0
	c0,0,0.1,0,0.1,0c0,0,0,0,0,0c0,0,0,0,0.1,0c0,0,0,0,0,0c0,0,0,0,0,0c0,0,0,0,0.1,0c0,0,0,0,0,0c0,0,0,0,0,0c0,0,0.1-0.1,0.1-0.1
	c0,0,0,0,0,0c0,0,0.1-0.1,0.1-0.1c0,0,0,0,0,0c0,0,0,0,0,0c0,0,0-0.1,0.1-0.1c0,0,0,0,0,0c0,0,0,0,0-0.1c0,0,0,0,0,0c0,0,0,0,0,0
	c0,0,0,0,0,0c0,0,0,0,0,0c0,0,0,0,0-0.1c0,0,0,0,0-0.1c0,0,0,0,0-0.1c0,0,0,0,0-0.1c0,0,0,0,0,0c0,0,0,0,0,0c0,0,0,0,0,0
	c0,0,0-0.1,0-0.1c0,0,0-0.1,0-0.1c0,0,0,0,0,0c0,0,0-0.1,0-0.1c0,0,0,0,0,0c0,0,0-0.1,0-0.1c0,0,0,0,0,0c0,0,0-0.1,0-0.1
	c0,0,0,0,0,0c0,0,0-0.1,0-0.1c0,0,0,0,0,0c0,0,0-0.1-0.1-0.1c0,0,0,0,0,0c0,0,0,0-0.1-0.1c0,0,0,0,0,0c0,0,0,0-0.1-0.1c0,0,0,0,0,0
	c0,0,0,0-0.1-0.1c0,0-0.1,0-0.1-0.1c0,0,0,0,0,0c-0.1-0.1-0.2-0.1-0.4-0.1c0.1,0.2,0.2,0.4,0.2,0.7c0,0,0,0.1,0,0.1c0,0,0,0,0,0
	c0,0,0,0.1,0,0.1c0,0,0,0,0,0.1c0,0,0,0,0,0.1c0,0,0,0,0,0.1c0,0,0,0,0,0.1c0,0,0,0,0,0c0,0,0,0.1,0,0.1c0,0,0,0,0,0c0,0,0,0,0,0.1
	c0,0,0,0,0,0c0,0,0,0.1-0.1,0.1c0,0,0,0,0,0c0,0,0,0,0,0c0,0-0.1,0.1-0.1,0.1c0,0,0,0,0,0c0,0-0.1,0.1-0.1,0.1c0,0,0,0,0,0
	c0,0,0,0,0,0c0,0,0,0-0.1,0.1c0,0,0,0,0,0c0,0,0,0-0.1,0c0,0,0,0,0,0c0,0,0,0-0.1,0c0,0,0,0,0,0c0,0-0.1,0-0.1,0c0,0,0,0,0,0
	c0,0-0.1,0-0.1,0c0,0,0,0,0,0c0,0-0.1,0-0.1,0c0,0-0.1,0-0.1,0c0,0,0,0,0,0c0,0,0,0-0.1,0c0,0,0,0,0,0c0,0,0,0,0,0
	c0.1,0.1,0.2,0.2,0.3,0.3c0,0,0,0,0,0c0,0,0,0,0.1,0c0,0,0,0,0,0c0,0,0,0,0.1,0c0,0,0,0,0,0c0,0,0,0,0.1,0c0,0,0,0,0,0c0,0,0,0,0,0
	c0,0,0,0,0.1,0c0,0,0,0,0,0s0,0,0,0c0,0,0.1,0,0.1,0C242,216.6,242.1,216.6,242.1,216.6C242.1,216.6,242.1,216.6,242.1,216.6"/>
<path class="st10" d="M242,216.6c0.6-0.1,1.1-0.7,1.1-1.4c0-0.7-0.5-1.1-1.1-1.1c-0.6,0.1-1.1,0.7-1.1,1.4
	C240.9,216.2,241.4,216.7,242,216.6 M243.8,215.1c0,0.3-0.1,0.6-0.2,0.8c-0.6,1.6-1.6,3.8-1.6,3.9c0-0.1-1-2.1-1.6-3.5
	c-0.1-0.2-0.2-0.5-0.2-0.8c0-1.1,0.8-2,1.8-2.2C243,213.3,243.8,214.1,243.8,215.1"/>
<path class="st9" d="M208.8,245.9C208.8,245.9,208.7,245.9,208.8,245.9C208.7,245.9,208.7,245.9,208.8,245.9
	c-0.1-0.1-0.1-0.1-0.2-0.1c0,0,0,0,0,0c0,0-0.1,0-0.1,0c0,0,0,0,0,0c0,0-0.1,0-0.1,0c0,0,0,0,0,0c0,0-0.1,0-0.1,0c0,0,0,0,0,0
	c0,0-0.1,0-0.1,0c0,0,0,0,0,0c0,0-0.1,0-0.1,0c0,0-0.1,0-0.1,0c0,0,0,0,0,0c0,0-0.1,0-0.1,0c0,0,0,0,0,0c0,0-0.1,0-0.1,0
	c0,0,0,0,0,0c0,0-0.1,0-0.1,0c0,0,0,0,0,0c0,0,0,0,0,0c0,0-0.1,0-0.1,0.1c0,0,0,0,0,0c0,0-0.1,0.1-0.1,0.1c0,0,0,0,0,0c0,0,0,0,0,0
	c0,0-0.1,0-0.1,0.1c0,0,0,0,0,0c0,0-0.1,0.1-0.1,0.1c0,0,0,0,0,0c0,0,0,0,0,0c0,0,0,0-0.1,0.1c0,0,0,0,0,0c0,0-0.1,0.1-0.1,0.1
	c0,0,0,0,0,0c0,0,0,0,0,0c0,0,0,0-0.1,0.1c0,0,0,0,0,0c0,0,0,0-0.1,0.1c0,0,0,0,0,0c0,0,0,0,0,0c0,0,0,0.1-0.1,0.1c0,0,0,0,0,0
	c0,0,0,0.1-0.1,0.1c0,0,0,0,0,0v0c0,0,0,0.1-0.1,0.1c0,0,0,0,0,0c0,0,0,0.1-0.1,0.1v0c0,0,0,0,0,0s0,0,0,0c0,0,0,0,0,0.1s0,0,0,0
	c0,0,0,0,0,0.1c0,0,0,0,0,0c0,0,0,0,0,0.1c0,0,0,0,0,0c0,0,0,0,0,0.1c0,0,0,0,0,0c0,0,0,0,0,0.1c0,0,0,0,0,0c0,0,0,0,0,0.1
	c0,0,0,0,0,0c0,0,0,0.1,0,0.1c0,0.3,0.1,0.6,0.2,0.8c0.6,1.4,1.6,3.4,1.6,3.5l0.7,0.4c0-0.1-1-2.1-1.6-3.5c-0.1-0.2-0.2-0.5-0.2-0.8
	c0,0,0-0.1,0-0.1c0,0,0,0,0,0c0,0,0,0,0-0.1c0,0,0,0,0,0c0,0,0,0,0-0.1c0,0,0,0,0,0c0,0,0,0,0-0.1c0,0,0,0,0,0c0,0,0,0,0-0.1
	s0,0,0,0c0,0,0,0,0-0.1c0,0,0,0,0,0c0,0,0,0,0-0.1c0,0,0,0,0,0c0,0,0,0,0,0c0,0,0-0.1,0.1-0.1c0,0,0,0,0,0c0,0,0-0.1,0.1-0.1
	c0,0,0,0,0,0c0,0,0-0.1,0.1-0.1c0,0,0,0,0,0c0,0,0-0.1,0.1-0.1c0,0,0,0,0,0c0,0,0-0.1,0.1-0.1c0,0,0,0,0,0c0,0,0,0,0.1-0.1
	c0,0,0,0,0,0c0,0,0-0.1,0.1-0.1c0,0,0,0,0,0c0,0,0,0,0.1-0.1c0,0,0,0,0,0c0,0,0.1-0.1,0.1-0.1c0,0,0,0,0,0c0,0,0.1,0,0.1-0.1
	c0,0,0,0,0,0c0,0,0.1-0.1,0.1-0.1c0,0,0,0,0,0c0,0,0.1,0,0.1-0.1c0,0,0,0,0,0c0,0,0.1,0,0.1,0c0,0,0,0,0,0c0,0,0.1,0,0.1,0
	c0,0,0,0,0,0c0,0,0.1,0,0.1,0c0,0,0,0,0,0c0,0,0.1,0,0.1,0c0,0,0.1,0,0.1,0c0,0,0,0,0,0c0,0,0.1,0,0.1,0c0,0,0,0,0,0
	c0,0,0.1,0,0.1,0c0,0,0,0,0,0c0,0,0.1,0,0.1,0c0,0,0,0,0,0c0,0,0.1,0,0.1,0c0,0,0,0,0,0c0,0,0.1,0,0.1,0c0,0,0.1,0,0.1,0
	L208.8,245.9"/>
<path class="st9" d="M208.6,249.2C208.6,249.2,208.7,249.2,208.6,249.2c0.1,0,0.1,0,0.1,0c0,0,0.1,0,0.1,0c0,0,0,0,0,0
	c0,0,0.1,0,0.1,0c0,0,0,0,0,0c0,0,0,0,0.1,0c0,0,0,0,0,0c0,0,0,0,0,0c0,0,0,0,0.1,0c0,0,0,0,0,0c0,0,0,0,0,0c0,0,0.1-0.1,0.1-0.1
	c0,0,0,0,0,0c0,0,0.1-0.1,0.1-0.1c0,0,0,0,0,0c0,0,0,0,0,0c0,0,0-0.1,0.1-0.1c0,0,0,0,0,0c0,0,0,0,0-0.1c0,0,0,0,0,0c0,0,0,0,0,0
	c0,0,0,0,0,0c0,0,0,0,0,0c0,0,0,0,0-0.1c0,0,0,0,0-0.1s0,0,0-0.1c0,0,0,0,0-0.1c0,0,0,0,0,0c0,0,0,0,0,0c0,0,0,0,0,0
	c0,0,0-0.1,0-0.1c0,0,0-0.1,0-0.1c0,0,0,0,0,0c0,0,0-0.1,0-0.1c0,0,0,0,0,0c0,0,0-0.1,0-0.1c0,0,0,0,0,0c0,0,0-0.1,0-0.1
	c0,0,0,0,0,0c0,0,0-0.1,0-0.1c0,0,0,0,0,0c0,0,0-0.1,0-0.1c0,0,0,0,0,0c0,0,0,0,0-0.1c0,0,0,0,0,0c0,0,0,0-0.1-0.1c0,0,0,0,0,0
	c0,0,0,0-0.1-0.1c0,0,0,0,0,0c0,0-0.1,0-0.1-0.1c0,0,0,0,0,0c-0.1-0.1-0.2-0.1-0.4-0.1c0.1,0.2,0.2,0.4,0.2,0.7c0,0,0,0.1,0,0.1
	c0,0,0,0,0,0c0,0,0,0.1,0,0.1c0,0,0,0,0,0.1c0,0,0,0,0,0.1c0,0,0,0,0,0.1c0,0,0,0,0,0.1c0,0,0,0,0,0c0,0,0,0.1,0,0.1c0,0,0,0,0,0
	c0,0,0,0,0,0.1c0,0,0,0,0,0c0,0,0,0.1-0.1,0.1c0,0,0,0,0,0c0,0,0,0,0,0c0,0-0.1,0.1-0.1,0.1c0,0,0,0,0,0c0,0-0.1,0.1-0.1,0.1
	c0,0,0,0,0,0c0,0,0,0,0,0c0,0,0,0-0.1,0.1c0,0,0,0,0,0c0,0,0,0-0.1,0c0,0,0,0,0,0c0,0,0,0-0.1,0c0,0,0,0,0,0c0,0-0.1,0-0.1,0
	c0,0,0,0,0,0c0,0-0.1,0-0.1,0c0,0,0,0,0,0c0,0-0.1,0-0.1,0c0,0-0.1,0-0.1,0c0,0,0,0,0,0c0,0,0,0-0.1,0c0,0,0,0,0,0c0,0,0,0,0,0
	c0.1,0.1,0.2,0.2,0.3,0.3c0,0,0,0,0,0c0,0,0,0,0.1,0c0,0,0,0,0,0c0,0,0,0,0.1,0c0,0,0,0,0,0c0,0,0,0,0.1,0c0,0,0,0,0,0c0,0,0,0,0,0
	c0,0,0,0,0.1,0c0,0,0,0,0,0c0,0,0,0,0,0c0,0,0.1,0,0.1,0C208.5,249.2,208.5,249.2,208.6,249.2C208.6,249.2,208.6,249.2,208.6,249.2"
	/>
<path class="st10" d="M208.5,249.2c0.6-0.1,1.1-0.7,1.1-1.4c0-0.7-0.5-1.1-1.1-1.1c-0.6,0.1-1.1,0.7-1.1,1.4
	C207.3,248.9,207.9,249.3,208.5,249.2 M210.3,247.8c0,0.3-0.1,0.6-0.2,0.8c-0.6,1.6-1.6,3.8-1.6,3.9c0-0.1-1-2.1-1.6-3.5
	c-0.1-0.2-0.2-0.5-0.2-0.8c0-1.1,0.8-2,1.8-2.2C209.5,246,210.3,246.7,210.3,247.8"/>
<path class="st9" d="M178.3,230.7C178.3,230.7,178.3,230.7,178.3,230.7C178.3,230.7,178.2,230.7,178.3,230.7
	c-0.1-0.1-0.1-0.1-0.2-0.1c0,0,0,0,0,0c0,0-0.1,0-0.1,0h0c0,0,0,0,0,0c0,0-0.1,0-0.1,0c0,0,0,0,0,0c0,0-0.1,0-0.1,0c0,0,0,0-0.1,0
	c0,0-0.1,0-0.1,0c0,0,0,0,0,0c-0.1,0-0.1,0-0.2,0c0,0-0.1,0-0.1,0c0,0,0,0,0,0c0,0-0.1,0-0.1,0c0,0,0,0,0,0c0,0-0.1,0-0.1,0
	c0,0,0,0,0,0c0,0-0.1,0-0.1,0c0,0,0,0,0,0h0c0,0-0.1,0-0.1,0.1c0,0,0,0,0,0c0,0-0.1,0.1-0.1,0.1c0,0,0,0,0,0c0,0,0,0,0,0
	c0,0-0.1,0-0.1,0.1c0,0,0,0,0,0c0,0-0.1,0.1-0.1,0.1c0,0,0,0,0,0c0,0,0,0,0,0c0,0,0,0-0.1,0.1c0,0,0,0,0,0c0,0-0.1,0.1-0.1,0.1
	c0,0,0,0,0,0c0,0,0,0,0,0c0,0,0,0-0.1,0.1c0,0,0,0,0,0c0,0,0,0-0.1,0.1c0,0,0,0,0,0c0,0,0,0,0,0c0,0,0,0.1-0.1,0.1c0,0,0,0,0,0
	c0,0,0,0.1-0.1,0.1c0,0,0,0,0,0c0,0,0,0,0,0c0,0,0,0.1-0.1,0.1c0,0,0,0,0,0c0,0,0,0.1-0.1,0.1c0,0,0,0,0,0c0,0,0,0,0,0c0,0,0,0,0,0
	c0,0,0,0,0,0.1c0,0,0,0,0,0c0,0,0,0,0,0.1c0,0,0,0,0,0s0,0,0,0.1c0,0,0,0,0,0c0,0,0,0,0,0.1c0,0,0,0,0,0s0,0,0,0.1c0,0,0,0,0,0
	c0,0,0,0,0,0.1c0,0,0,0,0,0c0,0,0,0.1,0,0.1c0,0.3,0.1,0.6,0.2,0.8c0.6,1.4,1.6,3.4,1.6,3.5l0.7,0.4c0-0.1-1-2.1-1.6-3.5
	c-0.1-0.2-0.2-0.5-0.2-0.8c0,0,0-0.1,0-0.1c0,0,0,0,0,0c0,0,0,0,0-0.1c0,0,0,0,0,0c0,0,0,0,0-0.1c0,0,0,0,0,0c0,0,0,0,0-0.1
	c0,0,0,0,0,0c0,0,0,0,0-0.1c0,0,0,0,0,0c0,0,0,0,0-0.1c0,0,0,0,0,0c0,0,0,0,0-0.1c0,0,0,0,0,0c0,0,0,0,0,0c0,0,0-0.1,0.1-0.1
	c0,0,0,0,0,0c0,0,0-0.1,0.1-0.1c0,0,0,0,0,0c0,0,0-0.1,0-0.1c0,0,0,0,0,0c0,0,0-0.1,0.1-0.1c0,0,0,0,0,0c0,0,0-0.1,0.1-0.1
	c0,0,0,0,0,0c0,0,0,0,0.1-0.1c0,0,0,0,0,0c0,0,0.1-0.1,0.1-0.1c0,0,0,0,0,0c0,0,0,0,0.1-0.1c0,0,0,0,0,0c0,0,0.1-0.1,0.1-0.1
	c0,0,0,0,0,0c0,0,0.1,0,0.1-0.1c0,0,0,0,0,0c0,0,0.1-0.1,0.1-0.1c0,0,0,0,0,0c0,0,0.1,0,0.1-0.1c0,0,0,0,0,0c0,0,0.1,0,0.1,0
	c0,0,0,0,0,0c0,0,0.1,0,0.1,0c0,0,0,0,0,0c0,0,0.1,0,0.1,0c0,0,0,0,0,0c0,0,0.1,0,0.1,0c0.1,0,0.1,0,0.2,0c0,0,0,0,0,0
	c0,0,0.1,0,0.1,0c0,0,0,0,0.1,0c0,0,0.1,0,0.1,0c0,0,0,0,0,0c0,0,0.1,0,0.1,0c0,0,0,0,0,0c0,0,0.1,0,0.1,0c0,0,0,0,0,0
	c0,0,0.1,0,0.1,0c0,0,0.1,0,0.1,0L178.3,230.7"/>
<path class="st9" d="M178.2,234C178.2,234,178.2,234,178.2,234c0.1,0,0.1,0,0.1,0c0,0,0.1,0,0.1,0c0,0,0,0,0,0c0,0,0,0,0.1,0
	c0,0,0,0,0,0c0,0,0,0,0.1,0c0,0,0,0,0,0c0,0,0,0,0,0c0,0,0,0,0.1,0c0,0,0,0,0,0c0,0,0,0,0,0c0,0,0.1-0.1,0.1-0.1c0,0,0,0,0,0
	c0,0,0.1-0.1,0.1-0.1c0,0,0,0,0,0c0,0,0,0,0,0c0,0,0-0.1,0-0.1c0,0,0,0,0,0c0,0,0,0,0-0.1c0,0,0,0,0,0c0,0,0,0,0,0s0,0,0,0
	c0,0,0,0,0,0c0,0,0,0,0-0.1c0,0,0,0,0-0.1c0,0,0,0,0-0.1c0,0,0,0,0-0.1c0,0,0,0,0,0c0,0,0,0,0,0s0,0,0,0c0,0,0-0.1,0-0.1
	c0,0,0-0.1,0-0.1c0,0,0,0,0,0c0,0,0-0.1,0-0.1c0,0,0,0,0,0c0,0,0-0.1,0-0.1c0,0,0,0,0,0c0,0,0-0.1,0-0.1c0,0,0,0,0,0
	c0,0,0-0.1,0-0.1c0,0,0,0,0,0c0,0,0-0.1-0.1-0.1c0,0,0,0,0,0c0,0,0,0-0.1-0.1c0,0,0,0,0,0c0,0,0,0-0.1-0.1c0,0,0,0,0,0
	c0,0,0,0-0.1-0.1v0c0,0-0.1,0-0.1-0.1c0,0,0,0,0,0c-0.1-0.1-0.2-0.1-0.4-0.1c0.1,0.2,0.2,0.4,0.2,0.7c0,0,0,0.1,0,0.1c0,0,0,0,0,0
	c0,0,0,0.1,0,0.1c0,0,0,0,0,0c0,0,0,0,0,0.1c0,0,0,0,0,0c0,0,0,0,0,0.1c0,0,0,0,0,0c0,0,0,0.1,0,0.1c0,0,0,0,0,0c0,0,0,0,0,0.1
	c0,0,0,0,0,0c0,0,0,0.1,0,0.1c0,0,0,0,0,0c0,0,0,0,0,0c0,0-0.1,0.1-0.1,0.1c0,0,0,0,0,0c0,0-0.1,0.1-0.1,0.1c0,0,0,0,0,0
	c0,0,0,0,0,0c0,0,0,0-0.1,0.1c0,0,0,0,0,0c0,0,0,0-0.1,0c0,0,0,0,0,0c0,0,0,0-0.1,0c0,0,0,0,0,0c0,0-0.1,0-0.1,0c0,0,0,0,0,0
	c0,0-0.1,0-0.1,0c0,0,0,0,0,0c0,0-0.1,0-0.1,0c0,0-0.1,0-0.1,0c0,0,0,0,0,0c0,0,0,0-0.1,0c0,0,0,0,0,0c0,0,0,0,0,0
	c0.1,0.1,0.2,0.2,0.3,0.3c0,0,0,0,0,0c0,0,0,0,0.1,0s0,0,0,0c0,0,0,0,0.1,0c0,0,0,0,0,0c0,0,0,0,0.1,0c0,0,0,0,0,0c0,0,0,0,0,0
	c0,0,0,0,0.1,0c0,0,0,0,0,0c0,0,0,0,0,0c0,0,0.1,0,0.1,0C178.1,234.1,178.1,234.1,178.2,234C178.1,234,178.2,234,178.2,234"/>
<path class="st10" d="M178,234.1c0.6-0.1,1.1-0.7,1.1-1.4s-0.5-1.1-1.1-1.1c-0.6,0.1-1.1,0.7-1.1,1.4S177.4,234.2,178,234.1
	 M179.8,232.6c0,0.3-0.1,0.6-0.2,0.8c-0.6,1.6-1.6,3.8-1.6,4c0-0.1-1-2.1-1.6-3.5c-0.1-0.2-0.2-0.5-0.2-0.8c0-1.1,0.8-2,1.8-2.2
	C179,230.8,179.8,231.5,179.8,232.6"/>
<g>
	<defs>
		<rect id="SVGID_00000121265032584665196830000008239889397930070156_" x="342.5" y="192.8" width="10" height="69"/>
	</defs>
	<clipPath id="SVGID_00000079473934464572900650000014664231502552376992_">
		<use xlink:href="#SVGID_00000121265032584665196830000008239889397930070156_"  style="overflow:visible;"/>
	</clipPath>
	<g style="clip-path:url(#SVGID_00000079473934464572900650000014664231502552376992_);">
		<path class="st1" d="M351.7,261.8v-28.5c0-2.7-2.2-4.9-4.9-4.9h-19.7c-2.7,0-4.9,2.2-4.9,4.9v5.3c0,2.7-2.2,4.9-4.9,4.9h-19
			c-2.7,0-4.9-2.2-4.9-4.9v-22.9c0-2.7-2.2-4.9-4.9-4.9h-26.6c-2.7,0-4.9,2.2-4.9,4.9v7.7c0,2.7-2.2,4.9-4.9,4.9h-25.1
			c-2.7,0-4.9,2.2-4.9,4.9v10.6c0,2.7-2.2,4.9-4.9,4.9h-23.9c-2.7,0-4.9-2.2-4.9-4.9v-19.3c0-2.7-2.2-4.9-4.9-4.9h-24.3
			c-2.7,0-4.9-2.2-4.9-4.9v-22.9"/>
		<path class="st2" d="M351.7,261.8v-28.5c0-2.7-2.2-4.9-4.9-4.9h-19.7c-2.7,0-4.9,2.2-4.9,4.9v5.3c0,2.7-2.2,4.9-4.9,4.9h-19
			c-2.7,0-4.9-2.2-4.9-4.9v-22.9c0-2.7-2.2-4.9-4.9-4.9h-26.6c-2.7,0-4.9,2.2-4.9,4.9v7.7c0,2.7-2.2,4.9-4.9,4.9h-25.1
			c-2.7,0-4.9,2.2-4.9,4.9v10.6c0,2.7-2.2,4.9-4.9,4.9h-23.9c-2.7,0-4.9-2.2-4.9-4.9v-19.3c0-2.7-2.2-4.9-4.9-4.9h-24.3
			c-2.7,0-4.9-2.2-4.9-4.9v-22.9"/>
		<path class="st3" d="M351.7,261.8v-28.5c0-2.7-2.2-4.9-4.9-4.9h-19.7c-2.7,0-4.9,2.2-4.9,4.9v5.3c0,2.7-2.2,4.9-4.9,4.9h-19
			c-2.7,0-4.9-2.2-4.9-4.9v-22.9c0-2.7-2.2-4.9-4.9-4.9h-26.6c-2.7,0-4.9,2.2-4.9,4.9v7.7c0,2.7-2.2,4.9-4.9,4.9h-25.1
			c-2.7,0-4.9,2.2-4.9,4.9v10.6c0,2.7-2.2,4.9-4.9,4.9h-23.9c-2.7,0-4.9-2.2-4.9-4.9v-19.3c0-2.7-2.2-4.9-4.9-4.9h-24.3
			c-2.7,0-4.9-2.2-4.9-4.9v-22.9"/>
	</g>
</g>
<g>
	<defs>
		<rect id="SVGID_00000116930881423366084760000001113855087157336726_" x="350.7" y="260" width="1.3" height="1.8"/>
	</defs>
	<clipPath id="SVGID_00000112604902236992742590000012518750681614580397_">
		<use xlink:href="#SVGID_00000116930881423366084760000001113855087157336726_"  style="overflow:visible;"/>
	</clipPath>
	<g style="clip-path:url(#SVGID_00000112604902236992742590000012518750681614580397_);">
		<path class="st5" d="M351.7,261.8v-0.5"/>
	</g>
</g>
<g>
	<defs>
		<rect id="SVGID_00000046309150327111144540000005441629097136803204_" x="342.5" y="192.8" width="9.5" height="68.5"/>
	</defs>
	<clipPath id="SVGID_00000140721898854180643280000005617606346550570391_">
		<use xlink:href="#SVGID_00000046309150327111144540000005441629097136803204_"  style="overflow:visible;"/>
	</clipPath>
	<g style="clip-path:url(#SVGID_00000140721898854180643280000005617606346550570391_);">
		<path class="st7" d="M351.6,260.4v-0.9h0.1v0.9H351.6z M351.6,258.5v-0.9h0.1v0.9H351.6z M351.6,256.7v-0.9h0.1v0.9H351.6z
			 M351.6,254.8v-0.9h0.1v0.9H351.6z M351.6,252.9V252h0.1v0.9H351.6z M351.6,251v-0.9h0.1v0.9H351.6z M351.6,249.2v-0.9h0.1v0.9
			H351.6z M351.6,247.3v-0.9h0.1v0.9H351.6z M351.6,245.4v-0.9h0.1v0.9H351.6z M351.6,243.6v-0.9h0.1v0.9H351.6z M351.6,241.7v-0.9
			h0.1v0.9H351.6z M351.6,239.8v-0.9h0.1v0.9H351.6z M351.6,238V237h0.1v0.9H351.6z M351.6,236.1v-0.9h0.1v0.9H351.6z M351.6,234.2
			v-0.9h0.1v0.9H351.6z M351.5,232.4c-0.1-0.3-0.1-0.6-0.3-0.9l0.1,0c0.1,0.3,0.2,0.6,0.3,0.9L351.5,232.4z M350.9,230.7
			c-0.2-0.3-0.4-0.5-0.6-0.7l0.1-0.1C350.6,230.1,350.8,230.3,350.9,230.7L350.9,230.7z M349.6,229.3c-0.3-0.2-0.5-0.3-0.8-0.5
			l0.1-0.1C349.1,228.9,349.4,229,349.6,229.3L349.6,229.3z M347.9,228.6c-0.3-0.1-0.6-0.1-0.9-0.1l0-0.1c0.3,0,0.6,0.1,0.9,0.1
			L347.9,228.6z M346.1,228.4h-0.9v-0.1h0.9V228.4z M344.2,228.4h-0.9v-0.1h0.9V228.4z M342.3,228.4h-0.9v-0.1h0.9V228.4z
			 M340.5,228.4h-0.9v-0.1h0.9V228.4z M338.6,228.4h-0.9v-0.1h0.9V228.4z M336.7,228.4h-0.9v-0.1h0.9V228.4z M334.8,228.4h-0.9v-0.1
			h0.9V228.4z M333,228.4H332v-0.1h0.9V228.4z M331.1,228.4h-0.9v-0.1h0.9V228.4z M329.2,228.4h-0.9v-0.1h0.9V228.4z M327.3,228.4
			h-0.3c-0.2,0-0.4,0-0.7,0l0-0.1c0.2,0,0.5,0,0.7,0h0.3V228.4z M325.5,228.7c-0.3,0.1-0.6,0.2-0.8,0.4l-0.1-0.1
			c0.3-0.2,0.6-0.3,0.9-0.4L325.5,228.7z M323.9,229.6c-0.2,0.2-0.4,0.4-0.6,0.7l-0.1-0.1C323.4,229.9,323.6,229.7,323.9,229.6
			L323.9,229.6z M322.8,231c-0.1,0.3-0.3,0.6-0.3,0.9l-0.1,0c0.1-0.3,0.2-0.6,0.4-0.9L322.8,231z M322.3,232.8c0,0.2,0,0.3,0,0.5
			v0.5h-0.1v-0.5c0-0.2,0-0.3,0-0.5L322.3,232.8z M322.2,234.7v0.9h-0.1v-0.9H322.2z M322.2,236.5v0.9h-0.1v-0.9H322.2z
			 M322.2,238.4v0.2c0,0.3,0,0.5-0.1,0.8l-0.1,0c0-0.2,0.1-0.5,0.1-0.7v-0.2H322.2z M321.9,240.2c-0.1,0.3-0.2,0.6-0.4,0.9l-0.1-0.1
			c0.2-0.3,0.3-0.5,0.4-0.8L321.9,240.2z M321,241.9c-0.2,0.2-0.4,0.5-0.7,0.6l-0.1-0.1C320.5,242.2,320.7,242,321,241.9L321,241.9z
			 M319.5,243c-0.3,0.1-0.6,0.3-0.9,0.3l0-0.1c0.3-0.1,0.6-0.2,0.9-0.3L319.5,243z M317.7,243.5c-0.1,0-0.3,0-0.4,0h-0.5v-0.1h0.5
			c0.1,0,0.3,0,0.4,0L317.7,243.5z M315.8,243.5h-0.9v-0.1h0.9V243.5z M313.9,243.5H313v-0.1h0.9V243.5z M312.1,243.5h-0.9v-0.1h0.9
			V243.5z M310.2,243.5h-0.9v-0.1h0.9V243.5z M308.3,243.5h-0.9v-0.1h0.9V243.5z M306.4,243.5h-0.9v-0.1h0.9V243.5z M304.6,243.5
			h-0.9v-0.1h0.9V243.5z M302.7,243.5h-0.9v-0.1h0.9V243.5z M300.8,243.5h-0.9v-0.1h0.9V243.5z M298.9,243.5h-0.7
			c-0.1,0-0.2,0-0.3,0l0-0.1c0.1,0,0.2,0,0.3,0h0.7V243.5z M297.1,243.4c-0.3-0.1-0.6-0.2-0.9-0.3l0-0.1c0.3,0.1,0.6,0.2,0.9,0.3
			L297.1,243.4z M295.3,242.6c-0.3-0.2-0.5-0.4-0.7-0.6l0.1-0.1C294.9,242.1,295.2,242.3,295.3,242.6L295.3,242.6z M294.1,241.2
			c-0.2-0.3-0.3-0.5-0.4-0.8l0.1,0C293.9,240.6,294,240.9,294.1,241.2L294.1,241.2z M293.4,239.5c-0.1-0.3-0.1-0.6-0.1-0.9v0h0.1v0
			c0,0.3,0,0.6,0.1,0.9L293.4,239.5z M293.3,237.6v-0.9h0.1v0.9H293.3z M293.3,235.7v-0.9h0.1v0.9H293.3z M293.3,233.9v-0.9h0.1v0.9
			H293.3z M293.3,232v-0.9h0.1v0.9H293.3z M293.3,230.1v-0.9h0.1v0.9H293.3z M293.3,228.3v-0.9h0.1v0.9H293.3z M293.3,226.4v-0.9
			h0.1v0.9H293.3z M293.3,224.5v-0.9h0.1v0.9H293.3z M293.3,222.6v-0.9h0.1v0.9H293.3z M293.3,220.8v-0.9h0.1v0.9H293.3z
			 M293.3,218.9V218h0.1v0.9H293.3z M293.3,217v-0.9h0.1v0.9H293.3z M293.3,215.2c0-0.3-0.1-0.6-0.2-0.9l0.1,0
			c0.1,0.3,0.2,0.6,0.2,0.9L293.3,215.2z M292.7,213.4c-0.2-0.3-0.3-0.5-0.5-0.8l0.1-0.1C292.5,212.8,292.7,213.1,292.7,213.4
			L292.7,213.4z M291.5,212c-0.2-0.2-0.5-0.4-0.8-0.5l0.1-0.1C291.1,211.5,291.4,211.7,291.5,212L291.5,212z M289.9,211.1
			c-0.3-0.1-0.6-0.2-0.9-0.2l0-0.1c0.3,0,0.6,0.1,0.9,0.2L289.9,211.1z M288.1,210.9h-0.9v-0.1h0.9V210.9z M286.2,210.9h-0.9v-0.1
			h0.9V210.9z M284.4,210.9h-0.9v-0.1h0.9V210.9z M282.5,210.9h-0.9v-0.1h0.9V210.9z M280.6,210.9h-0.9v-0.1h0.9V210.9z
			 M278.7,210.9h-0.9v-0.1h0.9V210.9z M276.9,210.9h-0.9v-0.1h0.9V210.9z M275,210.9H274v-0.1h0.9V210.9z M273.1,210.9h-0.9v-0.1
			h0.9V210.9z M271.2,210.9h-0.9v-0.1h0.9V210.9z M269.4,210.9h-0.9v-0.1h0.9V210.9z M267.5,210.9h-0.9v-0.1h0.9V210.9z
			 M265.6,210.9h-0.9v-0.1h0.9V210.9z M263.7,210.9h-0.9v-0.1h0.9V210.9z M261.9,210.9L261.9,210.9c-0.3,0-0.6,0-0.9,0.1l0-0.1
			c0.3-0.1,0.6-0.1,0.9-0.1h0V210.9z M260.1,211.2c-0.3,0.1-0.6,0.2-0.8,0.4l-0.1-0.1c0.3-0.2,0.5-0.3,0.8-0.4L260.1,211.2z
			 M258.5,212.2c-0.2,0.2-0.4,0.4-0.6,0.7l-0.1-0.1C258,212.6,258.2,212.3,258.5,212.2L258.5,212.2z M257.4,213.7
			c-0.1,0.3-0.2,0.6-0.3,0.9l-0.1,0c0.1-0.3,0.2-0.6,0.3-0.9L257.4,213.7z M257,215.5c0,0.1,0,0.2,0,0.3v0.7h-0.1v-0.7
			c0-0.1,0-0.2,0-0.3L257,215.5z M257,217.3v0.9h-0.1v-0.9H257z M257,219.2v0.9h-0.1v-0.9H257z M257,221.1v0.9h-0.1v-0.9H257z
			 M257,222.9v0.5c0,0.2,0,0.3,0,0.5l-0.1,0c0-0.1,0-0.3,0-0.5v-0.5H257z M256.8,224.8c-0.1,0.3-0.2,0.6-0.3,0.9l-0.1-0.1
			c0.1-0.3,0.3-0.6,0.3-0.9L256.8,224.8z M255.9,226.5c-0.2,0.2-0.4,0.5-0.7,0.7l-0.1-0.1C255.4,226.9,255.6,226.7,255.9,226.5
			L255.9,226.5z M254.5,227.7c-0.3,0.2-0.6,0.3-0.9,0.4l0-0.1C253.9,227.9,254.2,227.8,254.5,227.7L254.5,227.7z M252.7,228.3
			c-0.2,0-0.5,0-0.7,0h-0.2v-0.1h0.2c0.2,0,0.5,0,0.7,0L252.7,228.3z M250.8,228.4h-0.9v-0.1h0.9V228.4z M249,228.4H248v-0.1h0.9
			V228.4z M247.1,228.4h-0.9v-0.1h0.9V228.4z M245.2,228.4h-0.9v-0.1h0.9V228.4z M243.3,228.4h-0.9v-0.1h0.9V228.4z M241.5,228.4
			h-0.9v-0.1h0.9V228.4z M239.6,228.4h-0.9v-0.1h0.9V228.4z M237.7,228.4h-0.9v-0.1h0.9V228.4z M235.8,228.4h-0.9v-0.1h0.9V228.4z
			 M234,228.4H233v-0.1h0.9V228.4z M232.1,228.4h-0.9v-0.1h0.9V228.4z M230.2,228.4h-0.9v-0.1h0.9V228.4z M228.3,228.4h-0.9v-0.1
			h0.9V228.4z M226.5,228.4c-0.3,0-0.6,0.1-0.9,0.2l0-0.1c0.3-0.1,0.6-0.1,0.9-0.2L226.5,228.4z M224.7,228.9
			c-0.3,0.1-0.5,0.3-0.8,0.5l-0.1-0.1c0.2-0.2,0.5-0.4,0.8-0.5L224.7,228.9z M223.3,230.1c-0.2,0.2-0.4,0.5-0.5,0.8l-0.1-0.1
			C222.8,230.5,223,230.2,223.3,230.1L223.3,230.1z M222.3,231.6c-0.1,0.3-0.2,0.6-0.2,0.9l-0.1,0c0-0.3,0.1-0.6,0.2-0.9
			L222.3,231.6z M222.1,233.5v0.9H222v-0.9H222.1z M222.1,235.3v0.9H222v-0.9H222.1z M222.1,237.2v0.9H222v-0.9H222.1z M222.1,239.1
			v0.9H222v-0.9H222.1z M222.1,240.9v0.9H222v-0.9H222.1z M222.1,242.8v0.9H222v-0.9H222.1z M222,244.7c-0.1,0.3-0.1,0.6-0.3,0.9
			l-0.1,0c0.1-0.3,0.2-0.6,0.3-0.9L222,244.7z M221.3,246.4c-0.2,0.3-0.4,0.5-0.6,0.7l-0.1-0.1C220.8,246.9,221,246.6,221.3,246.4
			L221.3,246.4z M220,247.8c-0.3,0.2-0.5,0.3-0.8,0.5l-0.1-0.1C219.4,248,219.7,247.9,220,247.8L220,247.8z M218.3,248.6
			c-0.3,0.1-0.6,0.1-0.9,0.1l0-0.1c0.3,0,0.6-0.1,0.9-0.1L218.3,248.6z M216.4,248.7h-0.9v-0.1h0.9V248.7z M214.5,248.7h-0.9v-0.1
			h0.9V248.7z M212.7,248.7h-0.9v-0.1h0.9V248.7z M210.8,248.7h-0.9v-0.1h0.9V248.7z M208.9,248.7H208v-0.1h0.9V248.7z M207,248.7
			h-0.9v-0.1h0.9V248.7z M205.2,248.7h-0.9v-0.1h0.9V248.7z M203.3,248.7h-0.9v-0.1h0.9V248.7z M201.4,248.7h-0.9v-0.1h0.9V248.7z
			 M199.6,248.7h-0.9v-0.1h0.9V248.7z M197.7,248.7h-0.9v-0.1h0.9V248.7z M195.8,248.7h-0.9v-0.1h0.9V248.7z M193.9,248.7h-0.7
			c-0.1,0-0.2,0-0.3,0l0-0.1c0.1,0,0.2,0,0.3,0h0.7V248.7z M192.1,248.6c-0.3-0.1-0.6-0.2-0.9-0.3l0-0.1c0.3,0.1,0.6,0.2,0.9,0.3
			L192.1,248.6z M190.3,247.8c-0.3-0.2-0.5-0.4-0.7-0.6l0.1-0.1C189.9,247.3,190.2,247.5,190.3,247.8L190.3,247.8z M189.1,246.4
			c-0.2-0.3-0.3-0.6-0.4-0.8l0.1,0C188.8,245.8,189,246.1,189.1,246.4L189.1,246.4z M188.4,244.7c-0.1-0.3-0.1-0.6-0.1-0.9v-0.1h0.1
			v0.1c0,0.3,0,0.6,0.1,0.9L188.4,244.7z M188.3,242.8v-0.9h0.1v0.9H188.3z M188.3,240.9V240h0.1v0.9H188.3z M188.3,239v-0.9h0.1
			v0.9H188.3z M188.3,237.2v-0.9h0.1v0.9H188.3z M188.3,235.3v-0.9h0.1v0.9H188.3z M188.3,233.4v-0.9h0.1v0.9H188.3z M188.3,231.6
			v-0.9h0.1v0.9H188.3z M188.3,229.7v-0.9h0.1v0.9H188.3z M188.3,227.8v-0.9h0.1v0.9H188.3z M188.3,226V225h0.1v0.9H188.3z
			 M188.3,224.1c0-0.3-0.1-0.6-0.2-0.9l0.1,0c0.1,0.3,0.1,0.6,0.2,0.9L188.3,224.1z M187.8,222.3c-0.1-0.3-0.3-0.5-0.5-0.8l0.1-0.1
			c0.2,0.2,0.4,0.5,0.5,0.8L187.8,222.3z M186.6,220.9c-0.2-0.2-0.5-0.4-0.8-0.5l0.1-0.1C186.2,220.4,186.5,220.6,186.6,220.9
			L186.6,220.9z M185.1,219.9c-0.3-0.1-0.6-0.2-0.9-0.2l0-0.1c0.3,0,0.6,0.1,0.9,0.2L185.1,219.9z M183.2,219.7h-0.9v-0.1h0.9V219.7
			z M181.4,219.7h-0.9v-0.1h0.9V219.7z M179.5,219.7h-0.9v-0.1h0.9V219.7z M177.6,219.7h-0.9v-0.1h0.9V219.7z M175.7,219.7h-0.9
			v-0.1h0.9V219.7z M173.9,219.7h-0.9v-0.1h0.9V219.7z M172,219.7H171v-0.1h0.9V219.7z M170.1,219.7h-0.9v-0.1h0.9V219.7z
			 M168.2,219.7h-0.9v-0.1h0.9V219.7z M166.4,219.7h-0.9v-0.1h0.9V219.7z M164.5,219.7h-0.9v-0.1h0.9V219.7z M162.6,219.7h-0.9v-0.1
			h0.9V219.7z M160.7,219.7h-0.9v-0.1h0.9V219.7z M158.9,219.7c-0.3,0-0.6-0.1-0.9-0.1l0-0.1c0.3,0.1,0.6,0.1,0.9,0.1L158.9,219.7z
			 M157,219.2c-0.3-0.1-0.6-0.3-0.8-0.5l0.1-0.1c0.2,0.2,0.5,0.3,0.8,0.5L157,219.2z M155.5,218.1c-0.2-0.2-0.4-0.5-0.6-0.7l0.1-0.1
			C155.2,217.6,155.4,217.8,155.5,218.1L155.5,218.1z M154.5,216.5c-0.1-0.3-0.2-0.6-0.3-0.9l0.1,0c0.1,0.3,0.1,0.6,0.3,0.9
			L154.5,216.5z M154.2,214.7v-0.9h0.1v0.9H154.2z M154.2,212.8v-0.9h0.1v0.9H154.2z M154.2,210.9V210h0.1v0.9H154.2z M154.2,209.1
			v-0.9h0.1v0.9H154.2z M154.2,207.2v-0.9h0.1v0.9H154.2z M154.2,205.3v-0.9h0.1v0.9H154.2z M154.2,203.5v-0.9h0.1v0.9H154.2z
			 M154.2,201.6v-0.9h0.1v0.9H154.2z M154.2,199.7v-0.9h0.1v0.9H154.2z M154.2,197.9v-0.9h0.1v0.9H154.2z M154.2,196v-0.9h0.1v0.9
			H154.2z M154.2,194.1v-0.9h0.1v0.9H154.2z"/>
	</g>
</g>
<path class="st14" d="M335,211.1c-1,0.2-1.8,1.1-1.9,2c-0.1,1,0.4,1.9,1.3,2.3c0.8,0.5,2.1,0.4,2.8-0.3c0.7-0.6,1-1.8,0.6-2.6
	C337.5,211.4,336.1,210.8,335,211.1z M335.1,206.6h0.8c2,0.1,4,1.2,5.4,2.8c0.8,1,1.2,2.3,1.3,3.7v0.5c0,2.5-1.6,4.6-3,6.7
	c-1.6,2.1-3,4.6-3.5,7.4c-0.1,0.5,0.1,1.1-0.5,1.3l-0.4-0.3c-0.1-1.5-0.5-3-1.1-4.5c-0.8-1.6-1.8-3.2-2.9-4.7
	c-0.6-0.9-1.2-1.7-1.7-2.7c-0.4-0.6-0.6-1.3-0.8-2.1c-0.2-0.7-0.2-1.5-0.1-2.2c0.1-0.7,0.3-1.5,0.6-2.1c0.3-0.7,0.7-1.3,1.3-1.8
	C331.7,207.5,333.4,206.7,335.1,206.6"/>
<path class="st15" d="M338.1,213.5c0,0.3-0.1,0.7-0.2,1c-0.1,0.3-0.3,0.6-0.5,0.8c-0.2,0.2-0.5,0.4-0.8,0.6c-0.3,0.1-0.6,0.2-1,0.2
	c-0.3,0-0.7-0.1-1-0.2c-0.3-0.1-0.6-0.3-0.8-0.6c-0.2-0.2-0.4-0.5-0.5-0.8c-0.1-0.3-0.2-0.6-0.2-1s0.1-0.7,0.2-1
	c0.1-0.3,0.3-0.6,0.5-0.8c0.2-0.2,0.5-0.4,0.8-0.5c0.3-0.1,0.6-0.2,1-0.2c0.3,0,0.7,0.1,1,0.2c0.3,0.1,0.6,0.3,0.8,0.5
	c0.2,0.2,0.4,0.5,0.5,0.8C338,212.8,338.1,213.1,338.1,213.5z"/>
<g>
	<g transform="translate(113.470521, 214.994268)">
		<g>
			<path class="st16" d="M48.4,61.5v10.2h-7.6V43.6h9.2c7.6,0,11.5,2.8,11.5,8.3c0,3.3-1.6,5.8-4.8,7.6l8.2,12.2h-8.6l-6-10.2H48.4z
				 M48.4,55.7h1.4c2.7,0,4-1.2,4-3.5c0-1.9-1.3-2.9-3.9-2.9h-1.5V55.7z"/>
		</g>
	</g>
</g>
<g>
	<g transform="translate(133.432232, 214.994268)">
		<g>
			<path class="st16" d="M73.8,57.6c0,4.7-1.2,8.3-3.5,10.8C68,70.8,64.6,72,60.1,72c-4.4,0-7.8-1.2-10.1-3.7
				c-2.3-2.5-3.5-6.1-3.5-10.8c0-4.7,1.2-8.2,3.5-10.7c2.3-2.5,5.7-3.7,10.2-3.7c4.5,0,7.9,1.2,10.2,3.7
				C72.6,49.3,73.8,52.8,73.8,57.6z M54.5,57.6c0,5.4,1.9,8.1,5.7,8.1c1.9,0,3.4-0.7,4.3-2c0.9-1.3,1.4-3.4,1.4-6.2
				c0-2.8-0.5-4.9-1.4-6.2c-0.9-1.3-2.3-2-4.2-2C56.4,49.4,54.5,52.1,54.5,57.6z"/>
		</g>
	</g>
</g>
<g>
	<g transform="translate(156.93693, 214.994268)">
		<g>
			<path class="st16" d="M72.6,71.7l-1.4-5.3h-9.1l-1.4,5.3h-8.3l9.2-28.2h10.1l9.3,28.2H72.6z M69.6,60.2l-1.2-4.6
				c-0.3-1-0.6-2.3-1-4c-0.4-1.6-0.7-2.8-0.8-3.5c-0.1,0.7-0.3,1.7-0.7,3.2c-0.3,1.5-1.1,4.5-2.2,8.9H69.6z"/>
		</g>
	</g>
</g>
<g>
	<g transform="translate(178.353288, 214.994268)">
		<g>
			<path class="st16" d="M86.3,57c0,4.7-1.3,8.3-3.9,10.8c-2.6,2.5-6.2,3.8-10.9,3.8h-9.1V43.6h9.7c4.5,0,8,1.2,10.4,3.5
				C85.1,49.3,86.3,52.7,86.3,57z M78.5,57.3c0-2.6-0.5-4.5-1.5-5.7c-1-1.2-2.6-1.9-4.6-1.9h-2.2v15.7h1.7c2.3,0,4-0.7,5.1-2
				C77.9,62.1,78.5,60.1,78.5,57.3z"/>
		</g>
	</g>
</g>
<g>
	<g transform="translate(200.000083, 214.994268)">
		<g>
			<path class="st16" d="M81.9,71.7l-5.8-20.2H76c0.3,3.4,0.4,6.1,0.4,8v12.2h-6.7V43.6h10.1l5.9,19.9h0.1l5.8-19.9h10.1v28.1h-7
				V59.4c0-0.6,0-1.3,0-2.1c0-0.8,0.1-2.7,0.3-5.8h-0.2l-5.6,20.2H81.9z"/>
		</g>
	</g>
</g>
<g>
	<g transform="translate(228.516812, 214.994268)">
		<g>
			<path class="st16" d="M96.4,71.7L95,66.4h-9.1l-1.4,5.3h-8.3l9.2-28.2h10.1l9.3,28.2H96.4z M93.5,60.2l-1.2-4.6
				c-0.3-1-0.6-2.3-1-4c-0.4-1.6-0.7-2.8-0.8-3.5c-0.1,0.7-0.3,1.7-0.7,3.2c-0.3,1.5-1.1,4.5-2.2,8.9H93.5z"/>
		</g>
	</g>
</g>
<g>
	<g transform="translate(249.93317, 214.994268)">
		<g>
			<path class="st16" d="M106.7,52.5c0,3.1-0.9,5.6-2.8,7.3c-1.8,1.7-4.5,2.6-7.9,2.6h-2.1v9.3h-7.6V43.6h9.7c3.5,0,6.2,0.8,8,2.3
				C105.8,47.5,106.7,49.7,106.7,52.5z M93.9,56.2h1.4c1.1,0,2-0.3,2.7-1c0.7-0.6,1-1.5,1-2.6c0-1.9-1.1-2.9-3.1-2.9h-2V56.2z"/>
		</g>
	</g>
</g>
</svg>
