<?xml version="1.0" encoding="utf-8"?>
<!-- Generator: Adobe Illustrator 27.2.0, SVG Export Plug-In . SVG Version: 6.00 Build 0)  -->
<svg version="1.1" id="Layer_1" xmlns="http://www.w3.org/2000/svg" xmlns:xlink="http://www.w3.org/1999/xlink" x="0px" y="0px"
	 viewBox="0 0 8192 2511.2" style="enable-background:new 0 0 8192 2511.2;" xml:space="preserve">
<style type="text/css">
	.st0{opacity:0.3;}
	.st1{fill:#C4ECFE;}
	.st2{fill:url(#SVGID_1_);}
	.st3{fill:url(#SVGID_00000006696737083334355610000002747842339243368588_);}
	.st4{fill:none;}
	.st5{fill:#2B2B2B;}
	.st6{fill:#BFD9FF;}
	.st7{fill:none;stroke:#000000;stroke-width:9;stroke-miterlimit:10;}
	.st8{enable-background:new    ;}
	.st9{fill:#353535;}
	.st10{fill:#E2E4E9;}
	.st11{fill:#F9D5FF;}
	.st12{fill:#F4E1E1;}
	.st13{fill:#BE6361;}
	.st14{fill:#D6C1C1;}
	.st15{fill:#D4B0D6;}
	.st16{fill:#C595C8;}
	.st17{fill:#FFFFFF;}
	.st18{fill:#F9D0B5;}
	.st19{fill:#565656;}
	.st20{fill:#FDC068;}
	.st21{fill:url(#SVGID_00000166640140528174546640000008164403042588176527_);}
	.st22{fill:url(#SVGID_00000168096167622666622930000013132912896003750019_);}
	.st23{fill:url(#SVGID_00000109024063300015666410000005205140066307159703_);}
	.st24{fill:#FDE545;}
</style>
<g id="Layer_1_00000052815554267888271870000015865827331534113440_">
</g>
<g id="Layer_2_00000037693346208545233110000002225649027376452742_">
	
		<g transform="translate(-78.75 80.625) rotate(0.0 1578.75 1136.25) translate(178.125 0.0) scale(2.1935827197785787 2.1906654995970527)">
		<g class="st0">
			<path class="st1" d="M2398.4,54.9V1031h1211.8V54.9H2398.4z M2394.5,51h1219.8v984H2394.5V51z"/>
			<path class="st1" d="M3315.5,51h3.7v984h-3.7V51z M3160.3,51h3.7v984h-3.7V51z"/>
			<path class="st1" d="M3315.5,51h3.7v984h-3.7V51z M3470.6,51h3.7v984h-3.7V51z M3005,51h3.7v984h-3.7V51z M2849.9,51h3.7v984
				h-3.7V51z M2696.5,51h3.7v984h-3.7V51z M2543.3,51h3.7v984h-3.7V51z"/>
		</g>
		
			<linearGradient id="SVGID_1_" gradientUnits="userSpaceOnUse" x1="2671.5632" y1="1193.4323" x2="2671.5632" y2="986.6308" gradientTransform="matrix(-16.3686 0 0 -16.3297 46623.4414 19798.4141)">
			<stop  offset="0" style="stop-color:#C0DDFC"/>
			<stop  offset="0.996" style="stop-color:#FFFFFF"/>
		</linearGradient>
		<path class="st2" d="M2098.1,1039c352,0,512.5-516.4,926.9-466c124.5,15.3,263.2-240.1,320.1-336.4
			c94.3-159.6,344.1-95.4,344.1,89.3v713L2098.1,1039L2098.1,1039z"/>
		
			<linearGradient id="SVGID_00000024720639369807209730000003972503526092329626_" gradientUnits="userSpaceOnUse" x1="3782.8901" y1="1186.3322" x2="3782.8901" y2="1012.3722" gradientTransform="matrix(-16.3686 0 0 -16.3297 62664.6602 19798.4141)">
			<stop  offset="0" style="stop-color:#C0DDFC"/>
			<stop  offset="0.996" style="stop-color:#FFFFFF"/>
		</linearGradient>
		<path style="fill:url(#SVGID_00000024720639369807209730000003972503526092329626_);" d="M1528.9,1040.2
			c-520.7,0-706.6-622.8-981.7-552.2c-160.1,41-265.8-65.4-365.3-161.8C101.2,248-41.1,300.9-41.1,409.4v631L1528.9,1040.2z"/>
		<path class="st4" d="M3470.6,298.6c-17.4,0-34.4-24.1-56.3-54.7c-26.4-37.3-58.1-83.5-95.3-86.2v-11.7
			c42.6,3.1,76.9,51.9,104.7,91.2c17.4,24.4,35.3,49.9,46.7,49.9L3470.6,298.6L3470.6,298.6z"/>
		<path class="st5" d="M2432.2,1033.5h1145.7v6.9H2432.2V1033.5z"/>
		<path class="st4" d="M3006.9,337.4c-10.2-0.1-20.4-1.2-30.4-3.4c-69.1-15.3-122.9-80.9-170.3-138.8
			c-15.3-18.6-29.7-36.2-44.2-51.8c-8.2-9.2-18.3-16.4-29.7-21.3c-10.2-4.1-21.1-6.2-32-6l-0.1-12.4c12.6-0.2,25.2,2.1,36.9,6.9
			c13,5.4,24.6,13.7,34,24.2c14.8,15.9,29.3,33.6,44.6,52.4c23.8,29.2,48.6,59.3,75.6,84c30.2,27.6,58.9,44.1,87.8,50.4
			c9.2,2,18.5,3.1,27.8,3.1L3006.9,337.4z"/>
		<g>
			<ellipse class="st6" cx="2461.2" cy="274.4" rx="15.1" ry="15.1"/>
			<ellipse class="st6" cx="2889.6" cy="104.3" rx="15.1" ry="15.1"/>
			<ellipse class="st6" cx="3111.1" cy="256.1" rx="15.1" ry="15.1"/>
			<ellipse class="st6" cx="3562.8" cy="347.2" rx="15.1" ry="15.1"/>
		</g>
		<g class="st0">
			<path class="st1" d="M1178.7,54.9V1031h1211.8V54.9H1178.7z M1174.6,51h1219.8v984H1174.6L1174.6,51L1174.6,51z"/>
			<path class="st1" d="M2095.7,51h3.7v984h-3.7V51z M1940.4,51h3.7v984h-3.7V51z"/>
			<path class="st1" d="M2095.7,51h3.7v984h-3.7V51z M2250.9,51h3.7v984h-3.7V51z M1785.3,51h3.7v984h-3.7V51z M1630,51h3.7v984
				h-3.7V51z M1476.8,51h3.7v984h-3.7V51z M1323.5,51h3.7v984h-3.7V51z"/>
		</g>
		<g class="st0">
			<path class="st1" d="M-41.1,54.9V1031h1211.8V54.9H-41.1z M-45.1,51h1219.8v984H-45.1L-45.1,51L-45.1,51z"/>
			<path class="st1" d="M876,51h3.7v984H876V51z M720.7,51h3.7v984h-3.7V51z"/>
			<path class="st1" d="M876,51h3.7v984H876V51z M1031.1,51h3.7v984h-3.7V51z M565.5,51h3.7v984h-3.7V51z M410.3,51h3.7v984h-3.7V51
				z M257,51h3.7v984H257V51z M103.8,51h3.7v984h-3.7V51z"/>
		</g>
		<line class="st7" x1="2518.5" y1="1036.9" x2="-45.3" y2="1037.5"/>
		<g class="st8">
			<path class="st9" d="M99.7,1035l-9.2-30.6H47.7l-9.2,30.6H10.2l42.3-128.5H87l41.7,128.5H99.7z M69.4,931.8h-0.9l-14.2,48.8h29.4
				L69.4,931.8z"/>
			<path class="st9" d="M145.2,898.7h27.2v55.8h0.9c1.3-5.4,4.4-9.8,9.3-13.3c4.8-3.4,10.4-5.2,16.6-5.2c12.3,0,21.5,4.3,27.8,12.9
				c6.3,8.6,9.4,21.1,9.4,37.6c0,16.5-3.1,29-9.4,37.7c-6.3,8.7-15.5,13-27.8,13c-3.2,0-6.2-0.5-9-1.4c-2.8-0.9-5.4-2.2-7.6-3.9
				c-2.3-1.7-4.2-3.6-5.8-5.9c-1.6-2.3-2.8-4.7-3.5-7.3h-0.9v16.2h-27.2V898.7z M190.2,1015.1c5.1,0,9.4-1.8,12.8-5.4
				c3.4-3.6,5.1-8.5,5.1-14.6v-16.8c0-6.1-1.7-11-5.1-14.6c-3.4-3.6-7.6-5.4-12.8-5.4c-5.1,0-9.4,1.3-12.8,3.8
				c-3.4,2.5-5.1,6-5.1,10.4v28.5c0,4.4,1.7,7.9,5.1,10.4C180.8,1013.8,185.1,1015.1,190.2,1015.1z"/>
			<path class="st9" d="M296.1,1037.2c-7.1,0-13.5-1.2-19-3.5c-5.6-2.3-10.3-5.7-14.2-10.1c-3.9-4.4-6.8-9.8-8.9-16
				c-2.1-6.3-3.1-13.3-3.1-21c0-7.7,1-14.7,3.1-21c2.1-6.3,5.1-11.6,8.9-15.9c3.9-4.4,8.6-7.7,14.2-10c5.6-2.3,11.9-3.5,19-3.5
				c7.1,0,13.5,1.2,19,3.5c5.6,2.3,10.3,5.7,14.2,10c3.9,4.4,6.8,9.7,8.9,15.9c2.1,6.3,3.1,13.3,3.1,21c0,7.7-1,14.7-3.1,21
				c-2.1,6.3-5.1,11.6-8.9,16c-3.9,4.4-8.6,7.8-14.2,10.1C309.6,1036,303.3,1037.2,296.1,1037.2z M296.1,1015.6
				c5.4,0,9.6-1.7,12.5-5c2.9-3.3,4.4-8,4.4-14.2v-19.7c0-6.1-1.5-10.9-4.4-14.2c-2.9-3.3-7.1-5-12.5-5c-5.4,0-9.6,1.7-12.5,5
				c-2.9,3.3-4.4,8-4.4,14.2v19.7c0,6.1,1.5,10.9,4.4,14.2C286.6,1014,290.8,1015.6,296.1,1015.6z"/>
			<path class="st9" d="M417.7,1018.8h-0.9c-0.9,2.5-2,4.8-3.4,7c-1.4,2.2-3.2,4.2-5.4,5.9c-2.2,1.7-4.8,3.1-7.8,4.1
				c-3,1-6.5,1.5-10.4,1.5c-9.9,0-17.4-3.3-22.5-9.9c-5.1-6.6-7.6-16-7.6-28.3v-60.8h27.2v58.4c0,5.9,1,10.4,3.1,13.6
				c2.1,3.2,5.6,4.8,10.7,4.8c2.1,0,4.2-0.3,6.3-0.9c2.1-0.6,3.9-1.5,5.5-2.7c1.6-1.2,2.9-2.6,3.9-4.3c1-1.7,1.5-3.7,1.5-6.1v-62.8
				h27.2v96.7h-27.2V1018.8z"/>
			<path class="st9" d="M504.2,1035c-9.4,0-16.6-2.4-21.4-7.2c-4.8-4.8-7.3-11.8-7.3-21v-47.3h-13.6v-21.2h6.8
				c3.7,0,6.2-0.9,7.5-2.7c1.3-1.8,2-4.3,2-7.6v-15.8h24.5v26.2h19.1v21.2h-19.1v54.3h17.7v21.2H504.2z"/>
			<path class="st9" d="M618,1035c-9.4,0-16.6-2.4-21.4-7.2c-4.8-4.8-7.3-11.8-7.3-21v-47.3h-13.6v-21.2h6.8c3.7,0,6.2-0.9,7.5-2.7
				c1.3-1.8,2-4.3,2-7.6v-15.8h24.5v26.2h19.1v21.2h-19.1v54.3h17.7v21.2H618z"/>
			<path class="st9" d="M654.6,898.7h27.2v56h1.1c1.7-5,4.7-9.4,9-13.1c4.3-3.7,10.2-5.5,17.8-5.5c9.9,0,17.4,3.3,22.5,9.9
				c5.1,6.6,7.6,16.1,7.6,28.4v60.6h-27.2v-58.4c0-6.3-1-10.9-2.9-13.9c-2-3-5.5-4.5-10.5-4.5c-2.2,0-4.4,0.3-6.4,0.8
				c-2.1,0.6-4,1.4-5.6,2.7c-1.7,1.2-3,2.7-4,4.5c-1,1.8-1.5,3.8-1.5,6.2v62.6h-27.2V898.7z"/>
			<path class="st9" d="M804.5,1037.2c-7.4,0-13.9-1.2-19.7-3.6c-5.8-2.4-10.6-5.8-14.6-10.1c-4-4.4-7-9.7-9-15.9
				c-2-6.3-3-13.3-3-21c0-7.6,1-14.5,2.9-20.7c2-6.2,4.9-11.5,8.7-15.9c3.9-4.4,8.6-7.8,14.3-10.2c5.6-2.4,12.1-3.6,19.3-3.6
				c8,0,14.8,1.4,20.5,4.1c5.7,2.7,10.4,6.3,14,10.9c3.6,4.5,6.3,9.8,7.9,15.7c1.7,6,2.5,12.2,2.5,18.7v8.1h-62v1.5
				c0,6.3,1.7,11.4,5.1,15.1c3.4,3.7,8.8,5.6,16.2,5.6c5.6,0,10.2-1.1,13.8-3.4c3.6-2.3,6.9-5,9.9-8.1l13.6,17
				c-4.3,5-9.9,9-16.8,11.8C821.2,1035.8,813.3,1037.2,804.5,1037.2z M803.9,956.1c-5.5,0-9.8,1.8-13,5.4c-3.1,3.6-4.7,8.4-4.7,14.5
				v1.5h33.8v-1.7c0-5.9-1.3-10.6-4-14.3C813.5,958,809.4,956.1,803.9,956.1z"/>
			<path class="st9" d="M940.4,1035h-28V906.4h60.9c5.9,0,11.2,1,16,2.9c4.8,2,8.9,4.8,12.2,8.4c3.4,3.6,6,8,7.8,13
				c1.8,5,2.8,10.6,2.8,16.8c0,8.7-1.9,16.3-5.8,22.8c-3.9,6.5-9.7,11.2-17.6,14.2l25.2,50.5h-31.1l-22.4-47.1h-20V1035z
				 M969.8,964.2c4.2,0,7.4-1.1,9.8-3.2c2.4-2.1,3.6-5.3,3.6-9.5v-8.1c0-4.2-1.2-7.3-3.6-9.5c-2.4-2.1-5.7-3.2-9.8-3.2h-29.4v33.5
				H969.8z"/>
			<path class="st9" d="M1086,1037.2c-8.5,0-16.2-1.4-23.2-4.2c-7-2.8-12.9-7-17.8-12.6c-4.9-5.6-8.7-12.5-11.4-20.8
				c-2.7-8.3-4-17.9-4-28.8c0-10.9,1.3-20.5,4-28.8c2.7-8.3,6.5-15.2,11.4-20.8c4.9-5.6,10.9-9.8,17.8-12.6c7-2.8,14.7-4.2,23.2-4.2
				s16.2,1.4,23.2,4.2c7,2.8,12.9,7,17.8,12.6c4.9,5.6,8.7,12.5,11.4,20.8c2.7,8.3,4,17.9,4,28.8c0,10.9-1.4,20.5-4,28.8
				c-2.7,8.3-6.5,15.2-11.4,20.8c-4.9,5.6-10.9,9.8-17.8,12.6C1102.2,1035.8,1094.5,1037.2,1086,1037.2z M1086,1012.3
				c8.5,0,15-2.8,19.8-8.3c4.7-5.5,7.1-13.4,7.1-23.8v-19.2c0-10.3-2.4-18.2-7.1-23.8c-4.7-5.5-11.3-8.3-19.8-8.3
				s-15.1,2.8-19.8,8.3c-4.7,5.5-7.1,13.4-7.1,23.8v19.2c0,10.3,2.4,18.2,7.1,23.8C1071,1009.5,1077.6,1012.3,1086,1012.3z"/>
			<path class="st9" d="M1239.4,1035l-9.2-30.6h-42.9l-9.2,30.6h-28.3l42.3-128.5h34.6l41.7,128.5H1239.4z M1209.1,931.8h-0.9
				l-14.2,48.8h29.4L1209.1,931.8z"/>
			<path class="st9" d="M1286.3,906.4h48.4c8.5,0,16.2,1.4,23.2,4.1c7,2.7,12.9,6.7,17.8,12.1c4.9,5.3,8.7,12,11.4,20.1
				c2.7,8,4,17.4,4,28.1c0,10.7-1.4,20-4,28.1c-2.7,8-6.5,14.7-11.4,20.1c-4.9,5.3-10.9,9.4-17.8,12.1c-7,2.7-14.7,4.1-23.2,4.1
				h-48.4V906.4z M1334.7,1010.1c8.3,0,14.9-2.3,19.7-7c4.8-4.7,7.2-12.2,7.2-22.5v-19.9c0-10.3-2.4-17.8-7.2-22.5
				c-4.8-4.7-11.3-7-19.7-7h-20.4v78.8H1334.7z"/>
			<path class="st9" d="M1510.5,950.6h-0.6l-9.4,18.8l-25,45.5l-24.5-45.3l-9.7-20.3h-0.6v85.6h-26.3V906.4h29.6l31.4,60.2h0.4
				l31.1-60.2h29.8V1035h-26.3V950.6z"/>
			<path class="st9" d="M1644.2,1035l-9.2-30.6h-42.9l-9.2,30.6h-28.3l42.3-128.5h34.6l41.7,128.5H1644.2z M1613.9,931.8h-0.9
				l-14.2,48.8h29.4L1613.9,931.8z"/>
			<path class="st9" d="M1691.1,1035V906.4h60.7c6,0,11.4,1,16.2,3c4.8,2,8.9,4.8,12.2,8.4c3.4,3.6,6,7.9,7.8,13
				c1.8,5.1,2.8,10.7,2.8,16.7c0,6.1-0.9,11.7-2.8,16.8c-1.8,5-4.4,9.3-7.8,12.9c-3.4,3.6-7.4,6.4-12.2,8.4c-4.8,2-10.2,3-16.2,3
				h-32.7v46.4H1691.1z M1719.1,964.2h29.4c4.2,0,7.4-1.1,9.8-3.2c2.4-2.1,3.6-5.3,3.6-9.5v-8.1c0-4.2-1.2-7.3-3.6-9.5
				c-2.4-2.1-5.7-3.2-9.8-3.2h-29.4V964.2z"/>
			<path class="st9" d="M1853.7,938.3h27.2v16.2h0.9c1.3-5.4,4.4-9.8,9.3-13.3c4.8-3.4,10.4-5.2,16.6-5.2c12.3,0,21.5,4.3,27.8,12.9
				c6.3,8.6,9.4,21.1,9.4,37.6c0,16.5-3.1,29-9.4,37.7c-6.3,8.7-15.5,13-27.8,13c-3.2,0-6.2-0.5-9-1.4c-2.8-0.9-5.4-2.2-7.6-3.9
				c-2.3-1.7-4.2-3.6-5.8-5.9c-1.6-2.3-2.8-4.7-3.5-7.3h-0.9v53h-27.2V938.3z M1898.7,1015.1c5.1,0,9.4-1.8,12.8-5.4
				c3.4-3.6,5.1-8.5,5.1-14.6v-16.8c0-6.1-1.7-11-5.1-14.6c-3.4-3.6-7.6-5.4-12.8-5.4c-5.1,0-9.4,1.3-12.8,3.8
				c-3.4,2.5-5.1,6-5.1,10.4v28.5c0,4.4,1.7,7.9,5.1,10.4C1889.3,1013.8,1893.6,1015.1,1898.7,1015.1z"/>
			<path class="st9" d="M1965.5,1035v-96.7h27.2v21h0.9c0.5-2.7,1.3-5.3,2.6-7.8c1.2-2.5,2.9-4.8,4.9-6.7c2-2,4.4-3.5,7.3-4.7
				c2.8-1.2,6.1-1.7,9.9-1.7h4.8v25.4h-6.8c-8,0-13.9,1-17.7,3.1c-3.9,2.1-5.8,6-5.8,11.6v56.5H1965.5z"/>
			<path class="st9" d="M2078.1,1037.2c-7.1,0-13.5-1.2-19-3.5c-5.6-2.3-10.3-5.7-14.2-10.1c-3.9-4.4-6.8-9.8-8.9-16
				c-2.1-6.3-3.1-13.3-3.1-21c0-7.7,1-14.7,3.1-21c2.1-6.3,5.1-11.6,8.9-15.9c3.9-4.4,8.6-7.7,14.2-10c5.6-2.3,11.9-3.5,19-3.5
				c7.1,0,13.5,1.2,19,3.5c5.6,2.3,10.3,5.7,14.2,10c3.9,4.4,6.8,9.7,8.9,15.9c2.1,6.3,3.1,13.3,3.1,21c0,7.7-1,14.7-3.1,21
				c-2.1,6.3-5.1,11.6-8.9,16c-3.9,4.4-8.6,7.8-14.2,10.1C2091.5,1036,2085.2,1037.2,2078.1,1037.2z M2078.1,1015.6
				c5.4,0,9.6-1.7,12.5-5c2.9-3.3,4.4-8,4.4-14.2v-19.7c0-6.1-1.5-10.9-4.4-14.2c-2.9-3.3-7.1-5-12.5-5c-5.4,0-9.6,1.7-12.5,5
				c-2.9,3.3-4.4,8-4.4,14.2v19.7c0,6.1,1.5,10.9,4.4,14.2C2068.5,1014,2072.7,1015.6,2078.1,1015.6z"/>
			<path class="st9" d="M2142.6,938.3h27.2v107c0,8.6-2.1,15.2-6.4,19.7c-4.3,4.5-11.2,6.8-20.8,6.8h-14.3v-21.2h14.3V938.3z
				 M2156.2,928c-5.5,0-9.5-1.3-12-3.8c-2.5-2.5-3.8-5.7-3.8-9.7v-4.1c0-3.9,1.3-7.2,3.8-9.7c2.5-2.5,6.5-3.8,12-3.8
				c5.5,0,9.5,1.3,12,3.8c2.5,2.5,3.8,5.7,3.8,9.7v4.1c0,3.9-1.3,7.2-3.8,9.7C2165.8,926.7,2161.7,928,2156.2,928z"/>
			<path class="st9" d="M2235.5,1037.2c-7.4,0-13.9-1.2-19.7-3.6c-5.8-2.4-10.6-5.8-14.6-10.1c-4-4.4-7-9.7-9-15.9
				c-2-6.3-3-13.3-3-21c0-7.6,1-14.5,2.9-20.7c2-6.2,4.9-11.5,8.7-15.9c3.9-4.4,8.6-7.8,14.3-10.2c5.6-2.4,12.1-3.6,19.3-3.6
				c8,0,14.8,1.4,20.5,4.1c5.7,2.7,10.4,6.3,14,10.9c3.6,4.5,6.3,9.8,7.9,15.7c1.7,6,2.5,12.2,2.5,18.7v8.1h-62v1.5
				c0,6.3,1.7,11.4,5.1,15.1c3.4,3.7,8.8,5.6,16.2,5.6c5.6,0,10.2-1.1,13.8-3.4c3.6-2.3,6.9-5,9.9-8.1l13.6,17
				c-4.3,5-9.9,9-16.8,11.8C2252.2,1035.8,2244.3,1037.2,2235.5,1037.2z M2234.9,956.1c-5.5,0-9.8,1.8-13,5.4
				c-3.1,3.6-4.7,8.4-4.7,14.5v1.5h33.8v-1.7c0-5.9-1.3-10.6-4-14.3C2244.5,958,2240.5,956.1,2234.9,956.1z"/>
			<path class="st9" d="M2337.6,1037.2c-7.2,0-13.7-1.2-19.3-3.6c-5.6-2.4-10.4-5.8-14.2-10.1c-3.8-4.4-6.7-9.7-8.6-15.9
				c-2-6.3-2.9-13.3-2.9-21c0-7.7,1-14.7,2.9-20.9c2-6.2,4.8-11.5,8.6-15.9c3.8-4.4,8.5-7.8,14.2-10.1c5.6-2.3,12.1-3.5,19.3-3.5
				c9.8,0,18,2.2,24.6,6.6c6.6,4.4,11.2,10.6,14.1,18.6l-22.1,9.6c-0.9-3.7-2.6-6.8-5.3-9.4c-2.7-2.6-6.4-3.9-11.2-3.9
				c-5.5,0-9.7,1.8-12.5,5.4c-2.8,3.6-4.2,8.5-4.2,14.6v18c0,6.1,1.4,11,4.2,14.5c2.8,3.6,7,5.3,12.5,5.3c4.9,0,8.8-1.3,11.7-4
				c2.9-2.6,5-6.1,6.3-10.4l21.1,9.2c-3.2,9.2-8.1,16-14.8,20.3C2355.2,1035,2347.1,1037.2,2337.6,1037.2z"/>
			<path class="st9" d="M2427.5,1035c-9.4,0-16.6-2.4-21.4-7.2c-4.8-4.8-7.3-11.8-7.3-21v-47.3h-13.6v-21.2h6.8
				c3.7,0,6.2-0.9,7.5-2.7c1.3-1.8,2-4.3,2-7.6v-15.8h24.5v26.2h19.1v21.2H2426v54.3h17.7v21.2H2427.5z"/>
		</g>
	</g>
	
		<g transform="translate(1584.375 530.625) rotate(0.0 -138.75 915.0) translate(-0.0 0.0) scale(-9.89551759797454 9.968134651523817)">
		<g>
			<path class="st10" d="M-506.7,184.2c-1.2,0-2.2-1-2.3-2.3V23c0-1.2,1-2.2,2.3-2.3c1.2,0,2.2,1,2.3,2.3v159
				C-504.4,183.1-505.4,184.2-506.7,184.2C-506.6,184.2-506.6,184.2-506.7,184.2L-506.7,184.2L-506.7,184.2z"/>
			<path class="st10" d="M-506.7,50.8h-14.8c-0.8,0-1.5-0.4-2-1.1c-0.4-0.7-0.4-1.6,0-2.3l14.8-25.1c0.7-1,2-1.4,3.1-0.8l0,0
				c1,0.7,1.4,2,0.8,3.1l0,0l0,0l-12.6,21.7h10.8c1.2,0,2.3,1,2.2,2.4C-504.6,49.8-505.5,50.8-506.7,50.8L-506.7,50.8z"/>
			<path class="st10" d="M-506.7,75.8h-14.8c-0.8,0-1.5-0.4-2-1.1c-0.4-0.7-0.4-1.6,0-2.3l14.8-25.1c0.7-1,2-1.4,3.1-0.8l0,0
				c1,0.7,1.4,2,0.8,3.1l0,0l0,0l-12.7,21.6h10.8c1.2,0,2.3,1,2.3,2.2C-504.4,74.7-505.4,75.8-506.7,75.8
				C-506.6,75.8-506.7,75.8-506.7,75.8L-506.7,75.8z M-506.7,24.2c-1.2,0-2.2-1-2.3-2.3V11.4c0-1.2,1-2.2,2.3-2.3
				c1.2,0,2.2,1,2.3,2.3v10.5C-504.4,23.1-505.4,24.2-506.7,24.2C-506.6,24.2-506.6,24.2-506.7,24.2L-506.7,24.2L-506.7,24.2z"/>
			<path class="st10" d="M-506.7,24.2c-0.6,0-1.1-0.2-1.6-0.7l-7.4-7.4c-1-0.9-1-2.3-0.1-3.2c0.9-1,2.3-1,3.2-0.1c0,0,0,0,0.1,0.1
				l7.4,7.4c0.9,0.9,1,2.3,0.1,3.1l-0.1,0.1C-505.6,23.9-506.1,24.2-506.7,24.2L-506.7,24.2z"/>
			<path class="st10" d="M-506.7,24.2c-0.6,0-1.1-0.2-1.6-0.7c-0.9-0.9-1-2.3-0.1-3.1l0.1-0.1l7.4-7.4c0.9-0.9,2.4-0.9,3.2,0
				c0.9,0.9,0.9,2.4,0,3.2l-7.4,7.4C-505.6,23.9-506.1,24.2-506.7,24.2L-506.7,24.2z"/>
		</g>
	</g>
	<g transform="translate(1813.125 538.125) rotate(0.0 136.875 900.9375) scale(9.761794387191099 9.81493586077294)">
		<g>
			<path class="st10" d="M546.8,184.3c-1.2,0-2.2-1-2.3-2.3V23.1c0-1.2,1-2.2,2.3-2.3c1.2,0,2.2,1,2.3,2.3v159
				C549.1,183.2,548.2,184.3,546.8,184.3C546.9,184.3,546.9,184.3,546.8,184.3L546.8,184.3L546.8,184.3z"/>
			<path class="st10" d="M546.8,50.9h-14.7c-0.8,0-1.5-0.4-2-1.1c-0.4-0.7-0.4-1.6,0-2.3l14.8-25c0.7-1,2-1.4,3.1-0.8l0,0
				c1,0.7,1.4,2,0.8,3.1l0,0l0,0L536,46.4h10.8c1.2,0,2.3,1,2.2,2.4C548.9,49.9,548.1,50.9,546.8,50.9L546.8,50.9z"/>
			<path class="st10" d="M546.8,75.9h-14.7c-0.8,0-1.5-0.4-2-1.1c-0.4-0.7-0.4-1.6,0-2.3l14.8-25.1c0.7-1,2-1.4,3.1-0.8l0,0
				c1,0.7,1.4,2,0.8,3.1l0,0l0,0L536,71.3h10.8c1.2,0,2.3,1,2.3,2.2C549.1,74.8,548.2,75.9,546.8,75.9
				C546.9,75.9,546.8,75.9,546.8,75.9L546.8,75.9z M546.8,24.3c-1.2,0-2.2-1-2.3-2.3V11.5c0-1.2,1-2.2,2.3-2.3c1.2,0,2.2,1,2.3,2.3
				V22C549.1,23.2,548.2,24.2,546.8,24.3C546.9,24.3,546.9,24.3,546.8,24.3L546.8,24.3L546.8,24.3z"/>
			<path class="st10" d="M546.8,24.3c-0.6,0-1.1-0.2-1.6-0.7l-7.4-7.4c-1-0.9-1-2.3-0.1-3.2s2.3-1,3.2-0.1c0,0,0,0,0.1,0.1l7.4,7.4
				c0.9,0.9,1,2.3,0.1,3.1l-0.1,0.1C548,24,547.4,24.3,546.8,24.3L546.8,24.3z"/>
			<path class="st10" d="M546.8,24.3c-0.6,0-1.1-0.2-1.6-0.7c-0.9-0.9-1-2.3-0.1-3.1l0.1-0.1l7.4-7.4c0.9-0.9,2.4-0.9,3.2,0
				s0.9,2.4,0,3.2l-7.4,7.4C548,24,547.4,24.3,546.8,24.3L546.8,24.3z"/>
		</g>
	</g>
	<g transform="translate(708.75 440.625) rotate(0.0 394.6875 226.875) scale(3.8859816672738194 3.847719351802386)">
		<g>
			<path class="st11" d="M1404,85.5c-12.8-2.8-22.5-15.6-31.9-28.1c-8.7-11.4-17.6-23.3-28.1-25.9l1.7-6.9c12.9,3.1,22.7,16,32,28.4
				c8.6,11.4,17.5,23.3,27.8,25.5L1404,85.5z M1535.7,137.1c-14.7-4.8-26.8-21.3-38-37.8l5.8-3.9c9.9,14.8,21.6,30.9,34.2,34.9
				L1535.7,137.1z"/>
		</g>
	</g>
	<g transform="translate(1286.25 440.625) rotate(0.0 418.125 409.6875) scale(5.70554281971508 5.695799966633301)">
		<path class="st12" d="M913.9,63.5c-0.3,0-0.5-0.1-0.7-0.3c-0.2-0.2-0.3-0.5-0.3-0.7l0.7-44c0-0.6,0.4-1,1-1l0,0
			c44.4,0.3,89.5,1,134.2,1.8c0.3,0,0.5,0.1,0.7,0.3c0.2,0.2,0.3,0.5,0.3,0.7c-0.2,14.7-0.4,29.3-0.6,44c0,0.5-0.4,1-0.9,1h-0.1
			C1003.4,62,958.6,61.5,913.9,63.5z"/>
		<path class="st13" d="M914.4,18.6c44.7,0.5,89.5,1.1,134.2,1.8c-0.2,14.7-0.4,29.3-0.6,44c-44.6-3-89.5-3.6-134.2-1.8L914.4,18.6
			 M914.4,16.6c-1,0-1.9,0.9-2,1.9l-0.7,44c0,0.5,0.2,1,0.6,1.3c0.4,0.4,0.9,0.6,1.3,0.5c44.7-1.8,89.6-1.2,134.2,1.8
			c0.5,0,1-0.2,1.3-0.5c0.4-0.4,0.6-0.9,0.6-1.3l0.7-44c0-1-0.9-1.9-1.9-2C1003.9,17.8,959.3,17.3,914.4,16.6L914.4,16.6z"/>
		<path class="st12" d="M912.6,151.4c-0.3,0.1-0.6,0-0.7-0.2c-0.2-0.2-0.3-0.4-0.3-0.7l0.7-44.1c0-0.6,0.5-1,1-1
			c44.6-4.4,89.6-3.8,134.2,1.7c0.6,0.1,1,0.5,1,1c-0.2,14.6-0.4,29.2-0.6,43.9c0,0.3-0.1,0.5-0.3,0.7c-0.2,0.2-0.5,0.2-0.7,0.1
			C1002.6,145.1,957.2,144.6,912.6,151.4L912.6,151.4z"/>
		<path class="st13" d="M913.3,106.4c44.7-4,89.6-3.4,134.2,1.7c-0.2,14.6-0.4,29.2-0.6,43.8c-44.4-7.3-89.6-7.8-134.2-1.5
			C912.8,135.8,913.1,121.1,913.3,106.4 M913.3,104.5c-1,0.2-1.9,1-2,2.1c-0.2,14.7-0.4,29.4-0.6,44.2c0,0.5,0.2,1,0.6,1.2
			c0.4,0.3,0.9,0.4,1.3,0.4c44.5-6.5,89.8-5.9,134.2,1.5c0.9,0.2,1.7-0.4,1.9-1.2c0-0.1,0-0.2,0-0.4c0.2-14.6,0.4-29.3,0.6-43.9
			c0-0.6-0.2-1-0.6-1.4c-0.3-0.4-0.8-0.7-1.3-0.7C1002.8,101.1,957.9,100.6,913.3,104.5L913.3,104.5z"/>
		<path class="st14" d="M913.3,107.4c-0.3,0-0.5-0.1-0.7-0.2c-0.2-0.2-0.3-0.4-0.3-0.7c0.2-14.7,0.4-29.4,0.7-44c0-0.6,0.4-1,1-1
			l0,0c44.7-2,89.6-1.4,134.2,1.8c0.3,0,0.6,0.1,0.7,0.4c0.2,0.2,0.3,0.5,0.3,0.7c-0.2,14.6-0.4,29.3-0.6,43.9
			c0,0.5-0.3,0.9-0.8,0.9c-0.1,0-0.1,0-0.2,0C1003,103.6,957.9,102.9,913.3,107.4z"/>
		<path class="st13" d="M914,62.5c44.7-1.7,89.6-1.1,134.2,1.8c-0.2,14.7-0.4,29.2-0.6,43.9c-44.5-5.1-89.6-5.8-134.2-1.7
			C913.5,91.8,913.7,77.1,914,62.5 M913.9,60.5c-1,0.1-1.9,1-2,2l-0.7,44.1c0,0.5,0.2,1,0.6,1.3c0.4,0.4,0.9,0.5,1.3,0.4
			c44.6-4.1,89.6-3.5,134.2,1.7c1,0.1,1.8-0.6,2-1.5c0-0.1,0-0.1,0-0.2c0.2-14.6,0.4-29.3,0.6-44c0-0.5-0.2-1-0.6-1.4
			c-0.3-0.4-0.9-0.7-1.3-0.7C1003.3,59.6,958.6,58.9,913.9,60.5L913.9,60.5z"/>
		<path class="st15" d="M1018,105.2c-5.1,5.8-10.3,11.7-15.4,17.5c-2.5,2.7-6.5,3.1-9.4,0.9c-9.2-6.6-18.4-13-27.8-19.3
			C982.9,104,1000.5,104.3,1018,105.2z"/>
		<path class="st16" d="M954.4,61.5c4.4,3.2,6.5,4.9,10.9,8.1c-0.3,11.3-0.7,22.7-1,34l1,0.7c17.6-0.4,35.1,0,52.7,1
			c-3.2-5.2-6.5-10.3-9.8-15.4c11.2-8.6,22.2-17.2,33.2-25.8C1012.5,62,983.4,61.3,954.4,61.5L954.4,61.5z"/>
		<path class="st15" d="M954.4,61.5c-4.4-5.2-9-10.4-13.4-15.6c-3.5-4.4-2.9-10.8,1.5-14.3c0.6-0.5,1.2-0.9,1.9-1.2
			c7.6-3.7,15.4-7.4,23-11.2c19.7,0.3,39.4,0.5,59,0.9c5.1,14.6,10.1,29.2,15,43.9C1012.5,62,983.4,61.3,954.4,61.5L954.4,61.5z"/>
		<g>
			<path class="st13" d="M990.9,32.2c-0.4,0-0.7-0.2-0.9-0.4l-1-1.2c-0.4-0.5-0.3-1.1,0.2-1.5c0.5-0.4,1.1-0.3,1.5,0.2l1,1.2
				c0.3,0.5,0.2,1.1-0.2,1.4C991.4,32.2,991.1,32.2,990.9,32.2z M1009,58.6c-0.4,0-0.7-0.2-0.9-0.5c-0.7-1-1.3-2-2-3.1
				c-0.3-0.5-0.2-1.1,0.3-1.4c0.5-0.3,1.1-0.2,1.4,0.3c0.7,1,1.3,2,2,3.1c0.3,0.5,0.2,1.1-0.3,1.4l0,0
				C1009.5,58.5,1009.3,58.6,1009,58.6z M1002.9,49.6c-0.4,0-0.7-0.2-0.9-0.5l-2-3.1c-0.3-0.5-0.2-1.1,0.3-1.5
				c0.5-0.4,1.1-0.2,1.5,0.3l2,3.1c0.3,0.5,0.2,1.1-0.3,1.4l0,0C1003.4,49.5,1003.1,49.6,1002.9,49.6L1002.9,49.6z M996.6,40.6
				c-0.4,0-0.7-0.2-0.9-0.4l-2-3.1c-0.3-0.5-0.2-1.1,0.3-1.4c0.5-0.3,1.1-0.2,1.4,0.3l2,3.1c0.3,0.5,0.2,1.1-0.3,1.4l0,0
				C997.1,40.6,996.9,40.6,996.6,40.6L996.6,40.6z M1010.9,64.2c-0.4,0-0.8-0.2-1-0.5c-0.3-0.5-0.1-1.1,0.4-1.4
				c0.2-0.1,0.3-0.2,0.4-0.3c-0.1-0.1-0.2-0.3-0.4-0.5c-0.3-0.5-0.2-1.1,0.4-1.4c0.6-0.3,1.1-0.2,1.4,0.4c0.1,0.2,0.3,0.5,0.4,0.7
				s0.3,0.4,0.5,0.7c0.3,0.5,0.2,1-0.3,1.4c-0.3,0.2-0.6,0.4-1,0.6c-0.2,0.1-0.4,0.2-0.5,0.3C1011.4,64.1,1011.2,64.2,1010.9,64.2
				L1010.9,64.2z M983.1,83c-0.4,0-0.7-0.2-0.9-0.5c-0.3-0.5-0.2-1.1,0.3-1.4l0,0l3.1-2.1c0.5-0.3,1.1-0.2,1.4,0.3
				c0.3,0.5,0.2,1.1-0.3,1.4l-3.1,2.1C983.6,82.9,983.3,83,983.1,83z M992.6,76.6c-0.4,0-0.7-0.2-0.9-0.5c-0.3-0.5-0.2-1.1,0.3-1.4
				l0,0l3.1-2.1c0.5-0.4,1.1-0.2,1.5,0.3c0.4,0.5,0.2,1.1-0.3,1.5l0,0l-3.1,2.1C993,76.5,992.8,76.6,992.6,76.6L992.6,76.6z
				 M1002.1,70.2c-0.4,0-0.7-0.2-0.9-0.5c-0.3-0.5-0.2-1.1,0.3-1.4l0,0l3.1-2.1c0.5-0.4,1.1-0.2,1.5,0.3c0.4,0.5,0.2,1.1-0.3,1.5
				l0,0l-3.1,2.1C1002.6,70.1,1002.4,70.2,1002.1,70.2L1002.1,70.2z M979.2,87.6c-0.4,0-0.7-0.2-0.9-0.4c-0.2-0.3-0.4-0.6-0.7-0.8
				l-0.3-0.4c-0.2-0.2-0.3-0.6-0.2-0.9c0.1-0.3,0.2-0.6,0.5-0.7c0.4-0.3,0.7-0.5,1-0.7l0.2-0.1c0.5-0.4,1.1-0.3,1.5,0.2
				c0.4,0.5,0.3,1.1-0.2,1.5l0,0l-0.2,0.1c-0.1,0.1-0.1,0.1-0.2,0.1c0.1,0.1,0.2,0.3,0.3,0.4c0.3,0.5,0.2,1.1-0.2,1.5
				C979.7,87.6,979.4,87.6,979.2,87.6L979.2,87.6z M989.8,100.6c-0.3,0-0.6-0.1-0.9-0.4c-0.6-0.8-1.2-1.5-1.8-2.3
				c-0.4-0.5-0.3-1.1,0.2-1.5c0.5-0.4,1.1-0.3,1.4,0.2l0,0c0.6,0.7,1.2,1.4,1.8,2.3c0.4,0.5,0.3,1.1-0.1,1.5
				C990.3,100.5,990,100.6,989.8,100.6L989.8,100.6z M984.3,93.9c-0.3,0-0.6-0.1-0.9-0.4c-0.6-0.7-1.1-1.4-1.8-2.3
				c-0.4-0.5-0.3-1.1,0.1-1.5c0.5-0.4,1.1-0.3,1.5,0.2c0.7,0.9,1.2,1.5,1.8,2.3c0.4,0.5,0.3,1.1-0.1,1.5
				C984.7,93.8,984.5,93.9,984.3,93.9L984.3,93.9z M992.1,106c-0.3,0-0.6-0.1-0.8-0.4c-0.4-0.4-0.3-1,0.1-1.4l0,0
				c0.2-0.1,0.4-0.3,0.5-0.4c-0.1-0.1-0.2-0.2-0.3-0.4c-0.4-0.5-0.3-1.1,0.2-1.5c0.5-0.4,1.1-0.3,1.4,0.2c0.4,0.5,0.7,0.9,1,1.3
				c0.2,0.2,0.2,0.5,0.2,0.8c-0.1,0.3-0.2,0.5-0.4,0.7c-0.4,0.4-0.7,0.5-1.2,1C992.6,105.9,992.3,106,992.1,106L992.1,106z
				 M976.3,118.2c-0.6,0-1-0.5-1-1.1c0-0.3,0.1-0.6,0.4-0.8c1-0.8,1.8-1.5,2.7-2.1c0.5-0.4,1.1-0.3,1.4,0.1c0.4,0.5,0.3,1.1-0.1,1.5
				c-0.9,0.7-1.7,1.3-2.7,2.1C976.8,118.1,976.6,118.2,976.3,118.2z M984.4,111.8c-0.3,0-0.7-0.2-0.9-0.4c-0.4-0.5-0.3-1,0.2-1.4
				l0,0l2.8-2.1c0.5-0.4,1.1-0.3,1.4,0.2c0.4,0.5,0.3,1.1-0.2,1.5l0,0l-2.8,2.1C984.9,111.7,984.6,111.8,984.4,111.8z M971.2,122.3
				c-0.2,0-0.5-0.1-0.7-0.2l-1.2-1c-0.5-0.4-0.6-1-0.2-1.5c0.4-0.5,1-0.6,1.5-0.2l0.7,0.5c0.2-0.2,0.4-0.3,0.6-0.5
				c0.5-0.4,1.1-0.3,1.4,0.2c0.4,0.5,0.3,1.1-0.1,1.4c-0.5,0.4-0.9,0.7-1.3,1C971.6,122.3,971.4,122.3,971.2,122.3L971.2,122.3z
				 M964.9,117.6c-0.2,0-0.5-0.1-0.7-0.2l-2.9-2c-0.5-0.4-0.6-1-0.3-1.4c0.3-0.5,1-0.6,1.4-0.3l0,0l2.9,2c0.5,0.3,0.6,1,0.3,1.4l0,0
				C965.6,117.5,965.2,117.6,964.9,117.6z M956.4,111.4c-0.2,0-0.5-0.1-0.7-0.2l-2.9-2c-0.5-0.4-0.6-1-0.2-1.5
				c0.4-0.5,1-0.6,1.5-0.2l0,0l2.9,2c0.5,0.3,0.6,1,0.3,1.4l0,0C957.1,111.3,956.8,111.4,956.4,111.4z M947.5,107
				c-0.2,0-0.5-0.1-0.7-0.2c-0.5-0.3-0.6-1-0.3-1.4l0,0c0.4-0.5,0.7-0.9,1-1.3c0.4-0.4,1-0.5,1.4-0.1l1.2,1c0.5,0.4,0.6,1,0.2,1.5
				c-0.4,0.5-1,0.6-1.5,0.2l0,0l-0.5-0.4c-0.1,0.2-0.2,0.3-0.4,0.4C948.1,106.8,947.8,107,947.5,107L947.5,107z M937.3,119.8
				c-0.2,0-0.5-0.1-0.7-0.2c-0.5-0.3-0.6-1-0.3-1.4l0,0c0.7-0.8,1.2-1.5,1.7-2.2c0.4-0.5,1-0.6,1.5-0.2c0.5,0.4,0.6,1,0.2,1.5
				c-0.6,0.7-1.1,1.4-1.7,2.2C937.9,119.7,937.6,119.8,937.3,119.8z M942.4,113.2c-0.2,0-0.5-0.1-0.7-0.2c-0.5-0.4-0.5-1-0.2-1.4
				l0,0l1.7-2.2c0.4-0.5,1-0.5,1.5-0.2c0.5,0.4,0.5,1,0.1,1.5l0,0l-1.7,2.2C943,113.2,942.8,113.2,942.4,113.2L942.4,113.2z
				 M933.5,124.8c-0.2,0-0.4-0.1-0.6-0.1c-0.5-0.3-0.7-1-0.4-1.5c0.3-0.4,0.5-0.7,0.7-1c0.1-0.2,0.2-0.3,0.4-0.4
				c0.4-0.5,1-0.6,1.4-0.2c0.5,0.4,0.6,1,0.2,1.5c-0.1,0.2-0.3,0.4-0.4,0.5c-0.2,0.3-0.4,0.5-0.6,0.8
				C934.3,124.6,933.9,124.8,933.5,124.8L933.5,124.8z"/>
		</g>
		<path class="st12" d="M990,34.4c-2.6,0-4.7-2.1-4.7-4.7c0.1-2.6,2.2-4.6,4.8-4.5h0.1c2.6,0,4.7,2.1,4.7,4.7
			C994.6,32.5,992.5,34.5,990,34.4L990,34.4z"/>
		<path class="st13" d="M990,26.3c2.1,0,3.7,1.6,3.8,3.6c-0.1,2-1.7,3.6-3.8,3.6h-0.1c-2,0-3.7-1.6-3.7-3.6l0,0
			C986.3,27.8,988,26.3,990,26.3 M990,24.5c-3.1-0.1-5.6,2.4-5.7,5.4c0,3.1,2.6,5.5,5.6,5.5l0,0h0.1c3.1,0.1,5.5-2.2,5.7-5.2
			c0.1-1.5-0.5-3.1-1.6-4.1C993,25,991.6,24.4,990,24.5C990.1,24.5,990.1,24.5,990,24.5L990,24.5z"/>
		<path class="st12" d="M943.2,52.6c-2.6,0.1-4.7-1.9-4.7-4.5V48c0.1-2.6,2.2-4.6,4.8-4.7h0.1c2.6,0,4.7,2,4.7,4.6l0,0
			C947.9,50.6,945.8,52.6,943.2,52.6L943.2,52.6z"/>
		<path class="st13" d="M943.2,44.4c2-0.1,3.7,1.5,3.8,3.6l0,0c-0.1,2.1-1.7,3.7-3.8,3.6h-0.1c-2,0-3.7-1.5-3.7-3.5V48
			C939.5,46,941.2,44.4,943.2,44.4 M943.2,42.5c-3.1,0.1-5.6,2.6-5.7,5.6c0,1.4,0.6,2.9,1.6,3.9c1,1,2.5,1.6,4,1.5h0.1
			c3.1,0,5.5-2.5,5.7-5.5c0-3.1-2.4-5.4-5.4-5.5C943.5,42.6,943.4,42.6,943.2,42.5L943.2,42.5L943.2,42.5z"/>
		<path class="st12" d="M1021.9,92.8c-1.2-0.1-2.5-0.7-3.3-1.5s-1.3-2.1-1.3-3.3c0-2.4,2.1-4.4,4.5-4.3c0.1,0,0.2,0,0.3,0h0.1
			c2.6,0.2,4.7,2.3,4.7,5c-0.1,2.5-2.1,4.4-4.6,4.3C1022.1,92.8,1022,92.8,1021.9,92.8L1021.9,92.8z"/>
		<path class="st13" d="M1022,84.5c2.1,0.1,3.7,1.8,3.8,3.9c0,1.9-1.5,3.4-3.4,3.4c-0.1,0-0.3,0-0.4,0h-0.1
			c-2.1-0.1-3.7-1.8-3.7-3.9c0.1-1.9,1.7-3.4,3.6-3.4C1021.9,84.5,1022,84.5,1022,84.5 M1022,82.6c-3-0.2-5.4,2-5.7,5
			c0,0.1,0,0.2,0,0.3c0,3.1,2.5,5.7,5.6,5.9h0.1c2.9,0.3,5.4-1.8,5.7-4.8c0-0.1,0-0.3,0-0.4c0-1.5-0.6-3-1.6-4.1
			C1025.1,83.4,1023.6,82.7,1022,82.6L1022,82.6z"/>
		<path class="st12" d="M970,126.7c-1.2,0-2.5-0.5-3.3-1.2c-0.9-0.9-1.3-2-1.3-3.1c0.1-2.6,2.2-4.6,4.8-4.7h0.1c2.6,0,4.7,2,4.7,4.6
			l0,0C974.8,124.7,972.6,126.7,970,126.7L970,126.7z"/>
		<path class="st13" d="M970.1,118.5c2-0.1,3.7,1.5,3.8,3.5v0.1c-0.1,2-1.7,3.6-3.8,3.6H970c-2,0.1-3.6-1.4-3.7-3.3
			c0-0.1,0-0.2,0-0.2C966.4,120.1,968.1,118.5,970.1,118.5 M970.1,116.6c-3.1,0.1-5.6,2.5-5.8,5.5c0,1.4,0.6,2.9,1.6,3.9
			c1.1,1,2.6,1.5,4,1.5h0.1c3.1,0,5.6-2.4,5.8-5.5c0-1.4-0.6-2.9-1.6-3.9C973.2,117.2,971.8,116.6,970.1,116.6L970.1,116.6z"/>
	</g>
	<g transform="translate(365.625 1421.25) rotate(-40.69374492531084 337.5 234.375) scale(2.276099271648233 2.277718928269468)">
		<path class="st11" d="M1849.4,1592.7h85.9v112.4h-85.9V1592.7z"/>
		<path class="st11" d="M1938.8,1708.7h-93v-119.5h93V1708.7z M1852.9,1701.6h78.9v-105.4h-78.9V1701.6z"/>
		<path class="st17" d="M1739.3,1592.7h112.4v112.4h-112.4V1592.7z"/>
		<path class="st11" d="M1855.3,1708.7h-119.5v-119.5h119.5V1708.7z M1742.8,1701.6h105.4v-105.4h-105.4V1701.6z M1928.1,1555.6
			h52.2v66h-52.2L1928.1,1555.6L1928.1,1555.6z"/>
		<path class="st17" d="M1874,1559.1h58.9v58.9H1874V1559.1z"/>
		<path class="st11" d="M1936.4,1621.7h-66v-66h66V1621.7z M1877.5,1614.6h51.9v-51.9h-51.9V1614.6z"/>
		<path class="st18" d="M1807.9,1512.9h62.6v76.2h-62.6L1807.9,1512.9z"/>
		<path class="st17" d="M1740.3,1514.7h72.7v72.7h-72.7V1514.7z"/>
		<path class="st18" d="M1814.7,1589.1h-76.2v-76.2h76.2V1589.1z M1742.1,1585.5h69.1v-69.1l-69.1,0V1585.5z"/>
		<path class="st18" d="M1738.5,1584.2l71.3-71.3l4.9,4.9l-71.3,71.3L1738.5,1584.2z"/>
		<path class="st18" d="M1738.5,1517.8l4.9-4.9l71.3,71.3l-4.9,4.9L1738.5,1517.8z M1946.6,1616h72v93.1h-72V1616z"/>
		<path class="st17" d="M1860.6,1617.8h89.6v89.6h-89.6V1617.8z"/>
		<g>
			<path class="st18" d="M1952,1709.1h-93.1v-93.1h93.1V1709.1z M1862.3,1705.6h86v-86h-86V1705.6z"/>
			<path class="st18" d="M1860.6,1660.8h87.7v3.5h-87.7V1660.8z"/>
			<path class="st18" d="M1903.6,1617.8h3.5v89.6h-3.5V1617.8z M1778.4,1640.9h50.6v66.3h-50.6V1640.9z"/>
			<path class="st18" d="M1830.1,1708.2h-52.7v-68.4h52.7V1708.2z M1779.5,1706.1h48.6v-64.3h-48.6V1706.1z"/>
			<path class="st18" d="M1783.8,1647.9h39.9v52.2h-39.9V1647.9z"/>
		</g>
		<path class="st17" d="M1823.7,1701.9h-39.9c-1,0-1.7-0.8-1.7-1.7l0,0V1648c0-1,0.8-1.7,1.7-1.7l0,0h39.9c1,0,1.7,0.8,1.7,1.7l0,0
			v52.2C1825.5,1701,1824.8,1701.9,1823.7,1701.9L1823.7,1701.9L1823.7,1701.9z M1785.7,1698.4h36.3l0-48.6h-36.3V1698.4z"/>
		<path class="st18" d="M1783.8,1700.1v-5.8l15.4-20.2l4.5-5.8l15.4-20.2h4.5v5.8l-15.4,20.2l-4.5,5.8l-15.4,20.2H1783.8z"/>
		<path class="st17" d="M1788.3,1701.9h-4.5c-1,0-1.7-0.8-1.7-1.7l0,0v-5.8c0-0.4,0.1-0.8,0.4-1l15.4-20.2l4.5-5.8l15.4-20.2
			c0.4-0.5,0.9-0.7,1.4-0.7h4.5c1,0,1.7,0.8,1.7,1.7l0,0v5.8c0,0.4-0.1,0.8-0.4,1l-15.4,20.2l-4.5,5.8l-15.4,20.2
			C1789.4,1701.6,1788.9,1701.9,1788.3,1701.9L1788.3,1701.9z M1785.7,1698.4h1.8l14.9-19.5l4.5-5.8l15.1-19.7v-3.5h-1.9l-19.4,25.4
			l-15.1,19.6L1785.7,1698.4L1785.7,1698.4z"/>
		<path class="st18" d="M1783.8,1653.8v-5.8h4.5l15.4,20.2l4.5,5.8l15.4,20.2v5.8h-4.5L1783.8,1653.8z"/>
		<path class="st17" d="M1823.7,1701.9h-4.5c-0.6,0-1-0.3-1.4-0.7l-35.4-46.3c-0.2-0.3-0.4-0.7-0.4-1v-5.8c0-1,0.8-1.7,1.7-1.7l0,0
			h4.5c0.6,0,1,0.3,1.4,0.7l15.4,20.2l4.5,5.8l15.4,20.2c0.2,0.3,0.4,0.7,0.4,1v5.8C1825.5,1701,1824.8,1701.9,1823.7,1701.9
			L1823.7,1701.9z M1820.1,1698.4h1.9v-3.5l-15.1-19.6l-4.5-5.8l-15-19.6h-1.8v3.5L1820.1,1698.4z M1827.7,1640.9h66.3v66.3h-66.3
			V1640.9z"/>
		<path class="st18" d="M1894.1,1708.9h-66.3c-1,0-1.7-0.8-1.7-1.7l0,0v-66.3c0-1,0.8-1.7,1.7-1.7l0,0h66.3c1,0,1.7,0.8,1.7,1.7l0,0
			v66.3C1895.8,1708.1,1895,1708.9,1894.1,1708.9L1894.1,1708.9z M1829.5,1705.4h62.8v-62.8h-62.8V1705.4z"/>
		<path class="st17" d="M1834.9,1647.9h52.2v52.2h-52.2V1647.9z"/>
		<path class="st18" d="M1887,1701.9h-52.2c-1,0-1.7-0.8-1.7-1.7l0,0V1648c0-1,0.8-1.7,1.7-1.7l0,0h52.2c1,0,1.7,0.8,1.7,1.7l0,0
			v52.2C1888.8,1701,1888,1701.9,1887,1701.9L1887,1701.9L1887,1701.9z M1836.6,1698.4h48.6v-48.6h-48.6V1698.4z"/>
		<path class="st17" d="M1834.9,1700.1v-5.8l20.2-20.2l5.8-5.8l20.2-20.2h5.8v5.8l-20.2,20.2l-5.8,5.8l-20.2,20.2H1834.9z"/>
		<path class="st18" d="M1840.7,1701.9h-5.8c-1,0-1.7-0.8-1.7-1.7l0,0v-5.8c0-0.5,0.2-1,0.5-1.2l46.3-46.3c0.4-0.4,0.8-0.5,1.2-0.5
			h5.8c1,0,1.7,0.8,1.7,1.7l0,0v5.8c0,0.5-0.2,1-0.5,1.2l-46.3,46.3C1841.6,1701.7,1841.2,1701.8,1840.7,1701.9z M1836.6,1698.4h3.4
			l45.2-45.2v-3.4h-3.4l-45.2,45.2V1698.4z"/>
		<path class="st17" d="M1834.9,1653.8v-5.8h5.8l20.2,20.2l5.8,5.8l20.2,20.2v5.8h-5.8L1834.9,1653.8z"/>
		<path class="st18" d="M1887,1701.9h-5.8c-0.5,0-1-0.2-1.2-0.5l-46.3-46.3c-0.4-0.4-0.5-0.8-0.5-1.2v-5.8c0-1,0.8-1.7,1.7-1.7l0,0
			h5.8c0.5,0,1,0.2,1.2,0.5l26,26.1l20.2,20.2c0.4,0.4,0.5,0.8,0.5,1.2v5.8C1888.8,1701,1888,1701.9,1887,1701.9L1887,1701.9z
			 M1881.9,1698.4h3.4v-3.4l-25.7-25.6l-19.6-19.7h-3.4v3.4L1881.9,1698.4z"/>
	</g>
	
		<g transform="translate(148.125 1357.5) rotate(0.0 1082.8125 498.75) translate(0.0 0.0) scale(3.2780811881847547 3.2839722401464373)">
		<g>
			<ellipse class="st5" cx="1706.1" cy="280.2" rx="29.2" ry="29.2"/>
			<ellipse class="st17" cx="1706.1" cy="280.2" rx="18" ry="18"/>
		</g>
		<path class="st5" d="M1963.9,106.1c-2.1,0-4.1-1-5.3-2.8c-2.1-3-1.4-7,1.5-9.1l0,0l55.2-38.9c3-2.1,7.1-1.3,9.1,1.5
			c2,2.9,1.3,7.1-1.5,9.1l0,0l-55.2,38.9C1966.6,105.8,1965.2,106.1,1963.9,106.1z"/>
		<path class="st11" d="M1706.8,287.5c-2.1,0-4.1-1-5.3-2.8c-2.1-3-1.4-7,1.5-9.1l0,0l257.1-181.3c3-2.1,7.1-1.4,9.2,1.5
			c2.1,3,1.4,7.1-1.5,9.2c0,0-0.1,0-0.1,0.1l-257.1,181.3C1709.5,287.1,1708.1,287.5,1706.8,287.5z"/>
		<g>
			<path class="st5" d="M1890,263.9h-29.7c-1.9,0-3.8-0.9-5.1-2.4l-45.3-53.9c-2.3-2.8-1.9-7,0.9-9.3c2.8-2.3,6.9-1.9,9.2,0.8
				l43.3,51.5h20v-98.7c0-3.6,3-6.6,6.6-6.6s6.6,3,6.6,6.6l0,0v105.4C1896.5,260.9,1893.6,263.9,1890,263.9L1890,263.9z"/>
		</g>
		<path class="st13" d="M1772.5,251.9l-121.9-124h251.7v64.6L1772.5,251.9z"/>
		<path class="st13" d="M1770.7,256.9c-1.7,0-3.4-0.7-4.7-2L1644.1,131c-2.6-2.6-2.5-6.7,0.1-9.3c1.2-1.2,2.9-1.9,4.6-1.9h251.7
			c3.6,0,6.6,3,6.6,6.6V191c0,2.6-1.5,4.9-3.8,6l-129.7,59.3C1772.6,256.7,1771.7,256.9,1770.7,256.9z M1664.5,132.9l107.7,109.6
			l121.7-55.8v-53.8H1664.5z"/>
		<path class="st5" d="M1653.5,140.5h253.6v-14.1l-266.6,1L1653.5,140.5z M2142.4,88c-3.6,0-6.6-3-6.6-6.6c0-2.6,1.5-4.9,3.8-6
			l65.2-29.9c3.3-1.5,7.2-0.1,8.7,3.2c1.5,3.2,0.1,7.2-3.2,8.7l-65.2,29.9C2144.4,87.8,2143.4,88,2142.4,88L2142.4,88z"/>
		<path class="st11" d="M1706.8,287.5c-3.6,0-6.6-3-6.6-6.6c0-2.6,1.5-4.9,3.8-6l435.6-199.5c3.3-1.5,7.2-0.1,8.7,3.2
			c1.5,3.3,0.1,7.2-3.2,8.7l-435.6,199.5C1708.7,287.2,1707.8,287.5,1706.8,287.5L1706.8,287.5z"/>
		<path class="st13" d="M1909.3,132.9h-273.1c-3.6,0-6.6-3-6.6-6.6c0-3.6,3-6.6,6.6-6.6h273.1c3.6,0,6.6,3,6.6,6.6
			C1915.8,130,1912.9,132.9,1909.3,132.9z"/>
		<path class="st11" d="M1933.8,281.7h-29.7c-1.7,0-3.4-0.7-4.7-1.9l-58-58c-2.5-2.6-2.4-6.8,0.2-9.3c2.6-2.5,6.6-2.5,9.1,0
			l56.1,56.1h20.4v-90.3c0-3.6,3-6.6,6.6-6.6s6.6,3,6.6,6.6v96.8C1940.4,278.8,1937.4,281.6,1933.8,281.7z"/>
	</g>
	<g transform="translate(1860.0 603.75) rotate(0.0 488.4375 874.6875) scale(3.175228746485512 3.177129210065109)">
		<path class="st19" d="M1857.8,52.4l58,68.3c8.6,10.2,7.3,25.4-2.8,34c-3.2,2.8-7.2,4.7-11.4,5.3l-1.7,0.3l-51.6,9
			c-13.7,2.4-26.7-6.8-29.1-20.5c-2.4-13.7,6.8-26.7,20.5-29.1l51.6-9l-16,39.7l-50.2-79.2"/>
		<path class="st20" d="M1825.1,71.4l-4.2-6.6c-5.3-8.5-2.9-19.6,5.5-25c7.6-4.9,17.7-3.3,23.6,3.6l7.7,9.1 M1791.8,66.7l-3.9,4.3
			c-0.8,0.9-0.7,2.1,0.1,2.9c0,0,0.1,0,0.1,0.1l3.6,2.5"/>
		<path class="st5" d="M1791.8,77.3c-0.2,0-0.4-0.1-0.5-0.1l-3.7-2.6c-0.6-0.5-1-1.2-1-2c-0.1-0.8,0.2-1.5,0.8-2.1l3.9-4.3
			c0.3-0.4,0.9-0.4,1.2-0.1s0.4,0.9,0.1,1.1l-3.9,4.3c-0.2,0.2-0.3,0.6-0.3,0.9c0,0.4,0.2,0.7,0.4,0.9l3.6,2.5
			c0.4,0.3,0.5,0.8,0.3,1.1c0,0,0,0,0,0.1C1792.3,77.1,1792,77.3,1791.8,77.3L1791.8,77.3z"/>
		<path class="st20" d="M1808.9,103.1l17.6,0.7c9.1,0.3,16.7-6.8,17.1-15.8c0,0,0,0,0-0.1l1-26.5c0.5-14.6-10.9-26.8-25.4-27.3
			c-14.6-0.5-26.8,10.9-27.3,25.4l-0.9,24.3C1790.5,94,1798.5,102.7,1808.9,103.1L1808.9,103.1z"/>
		<path class="st5" d="M1793.8,67c0,1.4-1,2.7-2.5,2.9l0.2-5.8C1792.9,64.4,1793.8,65.7,1793.8,67z"/>
		<path class="st20" d="M1821.7,133.6l22.9-7.5l-0.7-50.2l-28-1l-4.5,50.6c-0.4,4.3,2.8,8.1,7.1,8.5
			C1819.6,134.1,1820.7,134,1821.7,133.6L1821.7,133.6z"/>
		<path class="st5" d="M1813.4,103.2l11.4,0.4l-12.5,10.9L1813.4,103.2z"/>
		<path class="st19" d="M1783.7,200.8c0.2-25.4,17.6-24.1,11.2-41.3c-6.6-17.1,1.3-41,20.8-40.9c15.1,0.1,16.1-0.4,22.4-0.4
			c31.8,0,25.2,64.3,25.1,81.8L1783.7,200.8z"/>
		
			<linearGradient id="SVGID_00000001634050636335433320000003987068353115870910_" gradientUnits="userSpaceOnUse" x1="950.7689" y1="144.5" x2="950.7689" y2="-236.163" gradientTransform="matrix(9.615 0 0 9.6265 -7284.6147 -853.9456)">
			<stop  offset="0" style="stop-color:#6B9C83"/>
			<stop  offset="0.401" style="stop-color:#A6A6A4"/>
			<stop  offset="0.501" style="stop-color:#9F9FC8"/>
			<stop  offset="0.591" style="stop-color:#9FCCEC"/>
			<stop  offset="1" style="stop-color:#FFE7B0"/>
		</linearGradient>
		<path style="fill:url(#SVGID_00000001634050636335433320000003987068353115870910_);" d="M1863.2,200l44.3,336.6l-48.5,5
			c-1.1-3.3-2.1-6.8-3.1-10.1c-1-3.3-2-6.8-3-10.2l-1.4-5.1c-0.5-1.7-1-3.3-1.3-5.1l-2.8-10.2l-1.3-5.1l-1.2-5.1
			c-0.9-3.3-1.7-6.9-2.6-10.2l-2.5-10.3l-2.4-10.3c-6.3-27.4-11.7-54.8-16.8-82.4l-1.8-10.4c-0.4-1.7-0.6-3.4-0.8-5.2
			c-0.3-1.7-0.5-3.4-0.7-5.2c-1-6.9-1.9-13.8-2.8-20.8l-1.2-10.4l-1.1-10.4l-0.6-5.2l-0.5-5.2c-0.4-3.4-0.7-7-1-10.4
			c-1.2-13.8-2.2-27.8-2.9-41.8c-0.4-7-0.6-13.9-0.7-20.9l-0.1-10.5c0-1.7,0.1-3.5,0.1-5.2c0-1.7,0.1-3.5,0.1-5.2L1863.2,200z"/>
		<path class="st5" d="M1821.9,552.6l77.9-0.3c4.1,0,7.4-3.3,7.4-7.4l0.2-9.8l-49.3,0.7l-37.3,9.3
			C1816.5,546.2,1817.3,552.6,1821.9,552.6L1821.9,552.6z"/>
		
			<linearGradient id="SVGID_00000141435921938039787120000012773635417633999538_" gradientUnits="userSpaceOnUse" x1="941.1378" y1="143.6118" x2="941.1378" y2="-221.3662" gradientTransform="matrix(9.615 0 0 9.6265 -7284.6147 -853.9456)">
			<stop  offset="0" style="stop-color:#6B9C83"/>
			<stop  offset="0.401" style="stop-color:#A6A6A4"/>
			<stop  offset="0.501" style="stop-color:#9F9FC8"/>
			<stop  offset="0.591" style="stop-color:#9FCCEC"/>
			<stop  offset="1" style="stop-color:#FFE7B0"/>
		</linearGradient>
		<path style="fill:url(#SVGID_00000141435921938039787120000012773635417633999538_);" d="M1858.9,227.1l-36.7,99.6l-105.6,208.5
			l-46.6,2.8c0.3-3.6,63.2-190.5,68.4-203.7c0,0,31.7-77.6,36.5-90.9c5-13.3,10.1-26.3,16-39.2L1858.9,227.1z"/>
		
			<linearGradient id="SVGID_00000044856696187455664490000001840832425228186523_" gradientUnits="userSpaceOnUse" x1="947.2824" y1="143.7575" x2="947.2824" y2="-222.4874" gradientTransform="matrix(9.615 0 0 9.6265 -7284.6147 -853.9456)">
			<stop  offset="0" style="stop-color:#6B9C83"/>
			<stop  offset="0.401" style="stop-color:#A6A6A4"/>
			<stop  offset="0.501" style="stop-color:#9F9FC8"/>
			<stop  offset="0.591" style="stop-color:#9FCCEC"/>
			<stop  offset="1" style="stop-color:#FFE7B0"/>
		</linearGradient>
		<path style="fill:url(#SVGID_00000044856696187455664490000001840832425228186523_);" d="M1863.3,199.7
			c-0.1,13.4-14.3,33.5-37.7,33.5l-3.8-0.2c-21.4,0-38.3-17.5-38.2-32L1863.3,199.7z"/>
		<path class="st5" d="M1799.7,210.4h64.7l-1-10.9h-59.5L1799.7,210.4z M1632,552.6l77.9-0.3c4.1,0,7.4-3.3,7.4-7.4l0.2-9.8
			l-49.3,0.7l-37.3,9.3C1626.6,546.2,1627.5,552.6,1632,552.6z M1791.9,56.9h13v17.9h4.5l3.7,10.6c1.6,4.8,6.2,7.9,11.2,7.9h10.2
			c6.6,0,9.7-5.3,9.7-11.9l0.4-23c0-13.8-11.6-25-25.4-25h-3.9c-12.9,0-23.4,10.4-23.4,23.3C1791.9,56.8,1791.9,56.9,1791.9,56.9
			L1791.9,56.9z"/>
		<path class="st24" d="M1817.9,27.5c-26.4,0-26,21.1-31.9,31.3h63.8C1843.8,48.6,1844.2,27.5,1817.9,27.5z"/>
		<path class="st20" d="M1810.3,79.1c-2,0-3.6-1.6-3.6-3.6c0,0,0,0,0-0.1v-6c0-2,1.6-3.6,3.6-3.6c0,0,0,0,0.1,0c2,0,3.6,1.6,3.6,3.6
			c0,0,0,0,0,0.1v6C1813.9,77.5,1812.3,79.1,1810.3,79.1L1810.3,79.1z M1752.8,269.1l-11.2,11c-7.2,7-18.7,6.9-25.7-0.3
			c-6.3-6.4-6.9-16.4-1.5-23.6l11.2-14.8L1752.8,269.1z"/>
		<path class="st19" d="M1725.5,241.3l44.9-59.6l-4.2,6.6l21.6-49.6c5.6-12.7,20.4-18.5,33.2-12.9c12.6,5.5,18.4,20.3,13,32.9
			l-21.6,49.6l-0.7,1.4c-0.9,1.9-2.1,3.7-3.6,5.1l-55.4,54.2L1725.5,241.3z"/>
		<g>
			<path class="st5" d="M1815,341.7c-0.2,0-0.3,0-0.4-0.1c-0.6-0.2-0.8-0.9-0.6-1.4l0,0l29.9-72.6c0.2-0.6,0.9-0.8,1.4-0.6
				c0.6,0.2,0.8,0.9,0.6,1.4L1816,341C1815.8,341.5,1815.5,341.7,1815,341.7z M1854.3,118.3c-0.5,0-1-0.4-1-0.9
				c-0.1-0.6,0.3-1.1,0.9-1.2l27.5-4.7c0.6-0.1,1,0.3,1.1,0.9s-0.3,1-0.9,1.1L1854.3,118.3L1854.3,118.3L1854.3,118.3z
				 M1863.8,170.8c-0.6,0-1-0.5-1-1v-17c0-0.6,0.5-1,1-1c0.6,0,1,0.5,1,1v17C1864.9,170.3,1864.4,170.8,1863.8,170.8L1863.8,170.8z
				 M1767.3,194.6c-0.6,0-1-0.5-1-1v-7.6c0-0.6,0.5-1,1-1s1,0.5,1,1v7.6C1768.4,194.1,1767.9,194.6,1767.3,194.6L1767.3,194.6z
				 M1816.2,200.5c-0.2,0-0.3,0-0.4-0.1c-0.6-0.2-0.8-0.9-0.6-1.4l0,0l11.7-27c0.2-0.6,0.9-0.8,1.4-0.6s0.8,0.9,0.6,1.4l-11.7,27
				C1817.1,200.2,1816.7,200.5,1816.2,200.5z"/>
		</g>
	</g>
	
		<g transform="translate(1860.0 -60.0) rotate(0.0 394.6875 226.875) translate(472.5 0.0) scale(3.8859816672738194 3.847719351802386)">
		<g>
			<path class="st11" d="M1268.7,91.6c-12.8-2.8-22.5-15.6-31.9-28.1c-8.7-11.4-17.6-23.3-28.1-25.9l1.7-6.9
				c12.9,3.1,22.7,16,32,28.4c8.6,11.4,17.5,23.3,27.8,25.5L1268.7,91.6z M1400.3,143.2c-14.7-4.8-26.8-21.3-38-37.8l5.8-3.9
				c9.9,14.8,21.6,30.9,34.2,34.9L1400.3,143.2z"/>
		</g>
	</g>
	<path class="st5" d="M7612.1,861.9c4.4,14.2,8.5,33.9,7.2,56.9c-2.3,39.9-19.5,66.3-6.6,79.3c5.4,5.5,14.8,7.1,24.1,8.7
		c2.8,0.5,9.2,1.3,25.9,0c14.7-1.2,26.7-3.2,36.2-5.1c18-3.5,31.4-6.2,36.1-8.6c34.5-16.7-13.8-188-18.2-203.4"/>
</g>
<g id="Layer_3">
</g>
</svg>
