<?xml version="1.0" encoding="utf-8"?>
<!-- Generator: Adobe Illustrator 27.2.0, SVG Export Plug-In . SVG Version: 6.00 Build 0)  -->
<svg version="1.1" xmlns="http://www.w3.org/2000/svg" xmlns:xlink="http://www.w3.org/1999/xlink" x="0px" y="0px"
	 viewBox="0 0 8589.9 2511.2" style="enable-background:new 0 0 8589.9 2511.2;" xml:space="preserve">
<style type="text/css">
	.st0{opacity:0.3;}
	.st1{fill:#C4ECFE;}
	.st2{fill:url(#SVGID_1_);}
	.st3{fill:url(#SVGID_00000037675444194270276740000008585879057269584821_);}
	.st4{fill:none;}
	.st5{fill:#2B2B2B;}
	.st6{fill:#BFD9FF;}
	.st7{fill:none;stroke:#000000;stroke-width:9;stroke-miterlimit:10;}
	.st8{opacity:0.58;}
	.st9{fill:#353535;}
	.st10{font-family:'IBMPlexSans-Bold';}
	.st11{font-size:423px;}
	.st12{fill:#E2E4E9;}
	.st13{fill:#F9D5FF;}
	.st14{fill:#F4E1E1;}
	.st15{fill:#BE6361;}
	.st16{fill:#D6C1C1;}
	.st17{fill:#D4B0D6;}
	.st18{fill:#C595C8;}
	.st19{fill:#FFFFFF;}
	.st20{fill:#F9D0B5;}
	.st21{fill:#565656;}
	.st22{fill:#FDC068;}
	.st23{fill:url(#SVGID_00000145039436520608325160000003649210734411899542_);}
	.st24{fill:url(#SVGID_00000168098787666160401800000006445194501027979938_);}
	.st25{fill:url(#SVGID_00000080914543456336217380000012097217946716091063_);}
	.st26{fill:#FDE545;}
</style>
<g id="Layer_1">
</g>
<g id="Layer_2">
	
		<g transform="translate(-78.75 80.625) rotate(0.0 1578.75 1136.25) translate(178.125 0.0) scale(2.1935827197785787 2.1906654995970527)">
		<g class="st0">
			<path class="st1" d="M2517.1,31.5V1055h1270.7V31.5H2517.1z M2513,27.4h1279v1031.8H2513V27.4z"/>
			<path class="st1" d="M3478.7,27.4h3.9v1031.8h-3.9V27.4z M3316,27.4h3.9v1031.8h-3.9V27.4z"/>
			<path class="st1" d="M3478.7,27.4h3.9v1031.8h-3.9V27.4z M3641.4,27.4h3.9v1031.8h-3.9V27.4z M3153.2,27.4h3.9v1031.8h-3.9V27.4z
				 M2990.5,27.4h3.9v1031.8h-3.9V27.4z M2829.7,27.4h3.9v1031.8h-3.9V27.4z M2669,27.4h3.9v1031.8h-3.9V27.4z"/>
		</g>
		
			<linearGradient id="SVGID_1_" gradientUnits="userSpaceOnUse" x1="1938.1195" y1="-990.3707" x2="1938.1195" y2="-783.5692" gradientTransform="matrix(-7.8245 0 0 7.8163 18201.25 8040.0205)">
			<stop  offset="0" style="stop-color:#C0DDFC"/>
			<stop  offset="0.996" style="stop-color:#FFFFFF"/>
		</linearGradient>
		<path class="st2" d="M2202.2,1063.4c369.1,0,537.4-541.5,971.9-488.6c130.5,16,276-251.8,335.6-352.7
			c98.9-167.4,360.8-100,360.8,93.6v747.6H2202.2z"/>
		
			<linearGradient id="SVGID_00000089532129250363391180000000563997420532545423_" gradientUnits="userSpaceOnUse" x1="4375.9121" y1="-974.8165" x2="4375.9121" y2="-800.8566" gradientTransform="matrix(-7.8245 0 0 7.8163 35021.6211 8040.0205)">
			<stop  offset="0" style="stop-color:#C0DDFC"/>
			<stop  offset="0.996" style="stop-color:#FFFFFF"/>
		</linearGradient>
		<path style="fill:url(#SVGID_00000089532129250363391180000000563997420532545423_);" d="M1605.4,1064.7
			c-546,0-740.9-653-1029.4-579c-167.9,43-278.7-68.6-383-169.7c-84.7-82-233.9-26.5-233.9,87.2v661.6L1605.4,1064.7z"/>
		<path class="st4" d="M3641.4,287c-18.2,0-36.1-25.3-59-57.4c-27.7-39.1-60.9-87.6-99.9-90.4l0-12.3c44.7,3.3,80.6,54.4,109.8,95.6
			c18.2,25.6,37,52.3,49,52.3V287L3641.4,287z"/>
		<path class="st5" d="M2552.5,1057.6h1201.4v7.2H2552.5V1057.6z"/>
		<path class="st4" d="M3155.1,327.7c-10.7-0.1-21.4-1.3-31.9-3.6c-72.5-16-128.9-84.8-178.6-145.5c-16-19.5-31.1-38-46.3-54.3
			c-8.6-9.6-19.2-17.2-31.1-22.3c-10.7-4.3-22.1-6.5-33.6-6.3l-0.1-13c13.2-0.2,26.4,2.2,38.7,7.2c13.6,5.7,25.8,14.4,35.7,25.4
			c15.5,16.7,30.7,35.2,46.8,54.9c25,30.6,51,62.2,79.3,88.1c31.7,28.9,61.8,46.2,92.1,52.9c9.6,2.1,19.4,3.2,29.2,3.3L3155.1,327.7
			z"/>
		<g>
			<ellipse class="st6" cx="2582.9" cy="261.7" rx="15.8" ry="15.8"/>
			<ellipse class="st6" cx="3032.2" cy="83.3" rx="15.8" ry="15.8"/>
			<ellipse class="st6" cx="3264.4" cy="242.5" rx="15.8" ry="15.8"/>
			<ellipse class="st6" cx="3738.1" cy="338" rx="15.8" ry="15.8"/>
		</g>
		<g class="st0">
			<path class="st1" d="M1238.1,31.5V1055h1270.7V31.5H1238.1z M1233.9,27.4h1279v1031.8h-1279V27.4z"/>
			<path class="st1" d="M2199.7,27.4h3.9v1031.8h-3.9V27.4z M2036.9,27.4h3.9v1031.8h-3.9V27.4z"/>
			<path class="st1" d="M2199.7,27.4h3.9v1031.8h-3.9V27.4z M2362.4,27.4h3.9v1031.8h-3.9V27.4z M1874.2,27.4h3.9v1031.8h-3.9V27.4z
				 M1711.4,27.4h3.9v1031.8h-3.9V27.4z M1550.7,27.4h3.9v1031.8h-3.9V27.4z M1390,27.4h3.9v1031.8h-3.9V27.4z"/>
		</g>
		<g class="st0">
			<path class="st1" d="M-40.9,31.5V1055h1270.7V31.5H-40.9z M-45.1,27.4h1279v1031.8h-1279V27.4z"/>
			<path class="st1" d="M920.7,27.4h3.9v1031.8h-3.9V27.4z M757.9,27.4h3.9v1031.8h-3.9V27.4z"/>
			<path class="st1" d="M920.7,27.4h3.9v1031.8h-3.9V27.4z M1083.4,27.4h3.9v1031.8h-3.9V27.4z M595.2,27.4h3.9v1031.8h-3.9V27.4z
				 M432.4,27.4h3.9v1031.8h-3.9V27.4z M271.7,27.4h3.9v1031.8h-3.9V27.4z M111,27.4h3.9v1031.8H111V27.4z"/>
		</g>
		<line class="st7" x1="2643" y1="1061.2" x2="-45.3" y2="1061.8"/>
		<g class="st8">
		</g>
		<text transform="matrix(0.4559 0 0 0.4565 9.0031 1059.177)" class="st9 st10 st11">About the ROADMAP project</text>
	</g>
	
		<g transform="translate(1584.375 530.625) rotate(0.0 -138.75 915.0) translate(-0.0 0.0) scale(-9.89551759797454 9.968134651523817)">
		<g>
			<path class="st12" d="M-539.1,189.6c-1.3,0-2.3-1.1-2.4-2.4V20.6c0-1.3,1.1-2.3,2.4-2.4c1.3,0,2.3,1.1,2.4,2.4v166.7
				C-536.7,188.5-537.7,189.6-539.1,189.6C-539,189.6-539,189.6-539.1,189.6L-539.1,189.6L-539.1,189.6z"/>
			<path class="st12" d="M-539.1,49.7h-15.5c-0.8,0-1.6-0.4-2.1-1.2c-0.4-0.7-0.4-1.7,0-2.4l15.5-26.3c0.7-1.1,2.1-1.5,3.2-0.8
				c0,0,0,0,0,0c1.1,0.7,1.5,2.1,0.8,3.2c0,0,0,0,0,0l0,0L-550.4,45h11.3c1.3,0,2.4,1.1,2.3,2.5C-536.9,48.7-537.8,49.7-539.1,49.7
				L-539.1,49.7z"/>
			<path class="st12" d="M-539.1,75.9h-15.5c-0.8,0-1.6-0.4-2.1-1.2c-0.4-0.7-0.4-1.7,0-2.4l15.5-26.3c0.7-1.1,2.1-1.5,3.2-0.8
				c0,0,0,0,0,0c1.1,0.7,1.5,2.1,0.8,3.2c0,0,0,0,0,0l0,0l-13.3,22.7h11.3c1.3,0,2.4,1,2.4,2.3C-536.7,74.8-537.7,75.9-539.1,75.9
				C-539,75.9-539.1,75.9-539.1,75.9L-539.1,75.9z M-539.1,21.8c-1.3,0-2.3-1.1-2.4-2.4v-11c0-1.3,1.1-2.3,2.4-2.4
				c1.3,0,2.3,1.1,2.4,2.4v11C-536.7,20.7-537.7,21.8-539.1,21.8C-539,21.8-539,21.8-539.1,21.8L-539.1,21.8L-539.1,21.8z"/>
			<path class="st12" d="M-539.1,21.8c-0.6,0-1.2-0.2-1.7-0.7l-7.8-7.8c-1-0.9-1-2.4-0.1-3.4s2.4-1,3.4-0.1c0,0,0,0,0.1,0.1l7.8,7.8
				c0.9,0.9,1,2.4,0.1,3.3l-0.1,0.1C-537.9,21.5-538.5,21.8-539.1,21.8L-539.1,21.8z"/>
			<path class="st12" d="M-539.1,21.8c-0.6,0-1.2-0.2-1.7-0.7c-0.9-0.9-1-2.4-0.1-3.3l0.1-0.1l7.8-7.8c0.9-0.9,2.5-0.9,3.4,0
				c0.9,0.9,0.9,2.5,0,3.4l-7.8,7.8C-537.9,21.5-538.5,21.8-539.1,21.8L-539.1,21.8z"/>
		</g>
	</g>
	<g transform="translate(1813.125 538.125) rotate(0.0 136.875 900.9375) scale(9.761794387191099 9.81493586077294)">
		<g>
			<path class="st12" d="M582.4,189.7c-1.3,0-2.3-1.1-2.4-2.4V20.7c0-1.3,1.1-2.3,2.4-2.4c1.3,0,2.3,1.1,2.4,2.4v166.7
				C584.8,188.6,583.8,189.7,582.4,189.7C582.5,189.7,582.5,189.7,582.4,189.7L582.4,189.7L582.4,189.7z"/>
			<path class="st12" d="M582.4,49.8H567c-0.8,0-1.6-0.4-2.1-1.2c-0.4-0.7-0.4-1.7,0-2.4L580.4,20c0.7-1.1,2.1-1.5,3.2-0.8
				c0,0,0,0,0,0c1.1,0.7,1.5,2.1,0.8,3.2c0,0,0,0,0,0l0,0l-13.3,22.7h11.3c1.3,0,2.4,1.1,2.3,2.5C584.6,48.8,583.7,49.8,582.4,49.8
				L582.4,49.8z"/>
			<path class="st12" d="M582.4,76H567c-0.8,0-1.6-0.4-2.1-1.2c-0.4-0.7-0.4-1.7,0-2.4l15.5-26.3c0.7-1.1,2.1-1.5,3.2-0.8
				c0,0,0,0,0,0c1.1,0.7,1.5,2.1,0.8,3.2c0,0,0,0,0,0l0,0l-13.3,22.7h11.3c1.3,0,2.4,1,2.4,2.3C584.8,74.9,583.8,76,582.4,76
				C582.5,76,582.4,76,582.4,76L582.4,76z M582.4,21.9c-1.3,0-2.3-1.1-2.4-2.4v-11c0-1.3,1.1-2.3,2.4-2.4c1.3,0,2.3,1.1,2.4,2.4v11
				C584.8,20.8,583.8,21.8,582.4,21.9C582.5,21.9,582.5,21.9,582.4,21.9L582.4,21.9L582.4,21.9z"/>
			<path class="st12" d="M582.4,21.9c-0.6,0-1.2-0.2-1.7-0.7l-7.8-7.8c-1-0.9-1-2.4-0.1-3.4c0.9-1,2.4-1,3.4-0.1c0,0,0,0,0.1,0.1
				l7.8,7.8c0.9,0.9,1,2.4,0.1,3.3l-0.1,0.1C583.6,21.6,583,21.9,582.4,21.9L582.4,21.9z"/>
			<path class="st12" d="M582.4,21.9c-0.6,0-1.2-0.2-1.7-0.7c-0.9-0.9-1-2.4-0.1-3.3l0.1-0.1l7.8-7.8c0.9-0.9,2.5-0.9,3.4,0
				c0.9,0.9,0.9,2.5,0,3.4l-7.8,7.8C583.6,21.6,583,21.9,582.4,21.9L582.4,21.9z"/>
		</g>
	</g>
	<g transform="translate(708.75 440.625) rotate(0.0 394.6875 226.875) scale(3.8859816672738194 3.847719351802386)">
		<g>
			<path class="st13" d="M1481.1,79.4c-13.4-2.9-23.6-16.4-33.5-29.5c-9.1-12-18.5-24.4-29.5-27.2l1.8-7.2
				c13.5,3.3,23.8,16.8,33.6,29.8c9,12,18.4,24.4,29.2,26.7L1481.1,79.4z M1619.1,133.5c-15.4-5-28.1-22.3-39.8-39.6l6.1-4.1
				c10.4,15.5,22.7,32.4,35.9,36.6L1619.1,133.5z"/>
		</g>
	</g>
	<g transform="translate(1286.25 440.625) rotate(0.0 418.125 409.6875) scale(5.70554281971508 5.695799966633301)">
		<path class="st14" d="M969.2,59.6c-0.3,0-0.5-0.1-0.7-0.3c-0.2-0.2-0.3-0.5-0.3-0.7l0.7-46.1c0-0.6,0.4-1,1-1c0,0,0,0,0,0
			c46.6,0.3,93.8,1.1,140.7,1.9c0.3,0,0.5,0.1,0.7,0.3c0.2,0.2,0.3,0.5,0.3,0.7c-0.2,15.4-0.4,30.7-0.6,46.1c0,0.5-0.4,1-0.9,1
			c0,0-0.1,0-0.1,0C1063.1,58.1,1016.1,57.5,969.2,59.6z"/>
		<path class="st15" d="M969.8,12.6c46.9,0.5,93.8,1.2,140.7,1.9c-0.2,15.4-0.4,30.7-0.6,46.1c-46.8-3.1-93.8-3.8-140.7-1.9
			L969.8,12.6 M969.8,10.5c-1.1,0-2,0.9-2.1,2l-0.7,46.1c0,0.5,0.2,1,0.6,1.4c0.4,0.4,0.9,0.6,1.4,0.5c46.9-1.9,93.9-1.3,140.7,1.9
			c0.5,0,1-0.2,1.4-0.5c0.4-0.4,0.6-0.9,0.6-1.4l0.7-46.1c0-1.1-0.9-2-2-2.1C1063.6,11.7,1016.8,11.2,969.8,10.5L969.8,10.5z"/>
		<path class="st14" d="M967.9,151.8c-0.3,0.1-0.6,0-0.7-0.2c-0.2-0.2-0.3-0.4-0.3-0.7l0.7-46.2c0-0.6,0.5-1.1,1-1.1
			c46.8-4.6,94-4,140.7,1.8c0.6,0.1,1,0.5,1,1.1c-0.2,15.3-0.4,30.6-0.6,46c0,0.3-0.1,0.5-0.3,0.7c-0.2,0.2-0.5,0.2-0.7,0.1
			C1062.2,145.2,1014.6,144.7,967.9,151.8L967.9,151.8z"/>
		<path class="st15" d="M968.6,104.6c46.9-4.2,94-3.6,140.7,1.8c-0.2,15.3-0.4,30.6-0.6,45.9c-46.6-7.7-94-8.2-140.7-1.6
			C968.1,135.4,968.4,120,968.6,104.6 M968.6,102.6c-1.1,0.2-2,1.1-2.1,2.2c-0.2,15.4-0.4,30.8-0.6,46.3c0,0.5,0.2,1,0.6,1.3
			c0.4,0.3,0.9,0.4,1.4,0.4c46.7-6.8,94.2-6.2,140.7,1.6c0.9,0.2,1.8-0.4,2-1.3c0-0.1,0-0.2,0-0.4c0.2-15.3,0.4-30.7,0.6-46
			c0-0.6-0.2-1.1-0.6-1.5c-0.3-0.4-0.8-0.7-1.4-0.7C1062.5,99.1,1015.4,98.5,968.6,102.6L968.6,102.6z"/>
		<path class="st16" d="M968.6,105.7c-0.3,0-0.5-0.1-0.7-0.2c-0.2-0.2-0.3-0.4-0.3-0.7c0.2-15.4,0.4-30.8,0.7-46.1c0-0.6,0.4-1,1-1
			c0,0,0,0,0,0c46.9-2.1,93.9-1.5,140.7,1.9c0.3,0,0.6,0.1,0.7,0.4c0.2,0.2,0.3,0.5,0.3,0.7c-0.2,15.3-0.4,30.7-0.6,46
			c0,0.5-0.3,0.9-0.8,0.9c-0.1,0-0.1,0-0.2,0C1062.7,101.7,1015.4,101,968.6,105.7z"/>
		<path class="st15" d="M969.3,58.6c46.9-1.8,93.9-1.2,140.7,1.9c-0.2,15.4-0.4,30.6-0.6,46c-46.7-5.4-93.9-6.1-140.7-1.8
			C968.8,89.3,969,73.9,969.3,58.6 M969.2,56.5c-1.1,0.1-2,1-2.1,2.1l-0.7,46.2c0,0.5,0.2,1,0.6,1.4c0.4,0.4,0.9,0.5,1.4,0.4
			c46.8-4.3,94-3.7,140.7,1.8c1,0.1,1.9-0.6,2.1-1.6c0-0.1,0-0.1,0-0.2c0.2-15.3,0.4-30.7,0.6-46.1c0-0.5-0.2-1.1-0.6-1.5
			c-0.3-0.4-0.9-0.7-1.4-0.7C1063,55.5,1016.1,54.8,969.2,56.5L969.2,56.5z"/>
		<path class="st17" d="M1078.4,103.4c-5.4,6.1-10.8,12.3-16.2,18.4c-2.6,2.8-6.8,3.2-9.9,0.9c-9.6-6.9-19.3-13.6-29.1-20.2
			C1041.6,102.1,1060,102.4,1078.4,103.4z"/>
		<path class="st18" d="M1011.7,57.5c4.6,3.4,6.8,5.1,11.4,8.5c-0.3,11.9-0.7,23.8-1,35.7l1.1,0.7c18.5-0.4,36.8,0,55.3,1
			c-3.4-5.5-6.8-10.8-10.3-16.2c11.7-9,23.3-18,34.8-27.1C1072.6,58.1,1042.1,57.3,1011.7,57.5L1011.7,57.5z"/>
		<path class="st17" d="M1011.7,57.5c-4.6-5.5-9.4-10.9-14-16.4c-3.7-4.6-3-11.3,1.6-15c0.6-0.5,1.3-0.9,2-1.3
			c8-3.9,16.1-7.8,24.1-11.7c20.7,0.3,41.3,0.5,61.9,0.9c5.3,15.3,10.6,30.6,15.7,46C1072.6,58.1,1042.1,57.3,1011.7,57.5
			L1011.7,57.5z"/>
		<g>
			<path class="st15" d="M1050,26.8c-0.4,0-0.7-0.2-0.9-0.4l-1-1.3c-0.4-0.5-0.3-1.2,0.2-1.6c0.5-0.4,1.2-0.3,1.6,0.2l1,1.3
				c0.3,0.5,0.2,1.2-0.2,1.5C1050.5,26.8,1050.2,26.8,1050,26.8z M1069,54.5c-0.4,0-0.7-0.2-0.9-0.5c-0.7-1-1.4-2.1-2.1-3.2
				c-0.3-0.5-0.2-1.2,0.3-1.5c0.5-0.3,1.2-0.2,1.5,0.3c0.7,1,1.4,2.1,2.1,3.2c0.3,0.5,0.2,1.2-0.3,1.5c0,0,0,0,0,0
				C1069.5,54.4,1069.3,54.5,1069,54.5z M1062.6,45.1c-0.4,0-0.7-0.2-0.9-0.5l-2.1-3.2c-0.3-0.5-0.2-1.2,0.3-1.6s1.2-0.2,1.6,0.3
				l2.1,3.2c0.3,0.5,0.2,1.2-0.3,1.5c0,0,0,0,0,0C1063.1,45,1062.8,45.1,1062.6,45.1L1062.6,45.1z M1056,35.6
				c-0.4,0-0.7-0.2-0.9-0.4L1053,32c-0.3-0.5-0.2-1.2,0.3-1.5c0.5-0.3,1.2-0.2,1.5,0.3l2.1,3.2c0.3,0.5,0.2,1.2-0.3,1.5c0,0,0,0,0,0
				C1056.5,35.6,1056.3,35.6,1056,35.6L1056,35.6z M1071,60.4c-0.4,0-0.8-0.2-1-0.5c-0.3-0.5-0.1-1.2,0.4-1.5
				c0.2-0.1,0.3-0.2,0.4-0.3c-0.1-0.1-0.2-0.3-0.4-0.5c-0.3-0.5-0.2-1.2,0.4-1.5s1.2-0.2,1.5,0.4c0.1,0.2,0.3,0.5,0.4,0.7
				c0.1,0.2,0.3,0.4,0.5,0.7c0.3,0.5,0.2,1.1-0.3,1.5c-0.3,0.2-0.6,0.4-1,0.6c-0.2,0.1-0.4,0.2-0.5,0.3
				C1071.5,60.3,1071.3,60.4,1071,60.4L1071,60.4z M1041.8,80.1c-0.4,0-0.7-0.2-0.9-0.5c-0.3-0.5-0.2-1.2,0.3-1.5c0,0,0,0,0,0
				l3.3-2.2c0.5-0.3,1.2-0.2,1.5,0.3c0.3,0.5,0.2,1.2-0.3,1.5l-3.3,2.2C1042.3,80,1042,80.1,1041.8,80.1z M1051.8,73.4
				c-0.4,0-0.7-0.2-0.9-0.5c-0.3-0.5-0.2-1.2,0.3-1.5c0,0,0,0,0,0l3.3-2.2c0.5-0.4,1.2-0.2,1.6,0.3c0.4,0.5,0.2,1.2-0.3,1.6
				c0,0,0,0,0,0l-3.3,2.2C1052.2,73.3,1052,73.4,1051.8,73.4L1051.8,73.4z M1061.7,66.7c-0.4,0-0.7-0.2-0.9-0.5
				c-0.3-0.5-0.2-1.2,0.3-1.5c0,0,0,0,0,0l3.3-2.2c0.5-0.4,1.2-0.2,1.6,0.3c0.4,0.5,0.2,1.2-0.3,1.6c0,0,0,0,0,0l-3.3,2.2
				C1062.2,66.6,1062,66.7,1061.7,66.7L1061.7,66.7z M1037.7,84.9c-0.4,0-0.7-0.2-0.9-0.4c-0.2-0.3-0.4-0.6-0.7-0.8l-0.3-0.4
				c-0.2-0.2-0.3-0.6-0.2-0.9c0.1-0.3,0.2-0.6,0.5-0.7c0.4-0.3,0.7-0.5,1.1-0.7l0.2-0.1c0.5-0.4,1.2-0.3,1.6,0.2
				c0.4,0.5,0.3,1.2-0.2,1.6c0,0,0,0,0,0l-0.2,0.1c-0.1,0.1-0.1,0.1-0.2,0.1c0.1,0.1,0.2,0.3,0.3,0.4c0.3,0.5,0.2,1.2-0.2,1.6
				C1038.2,84.9,1037.9,84.9,1037.7,84.9L1037.7,84.9z M1048.8,98.5c-0.3,0-0.6-0.1-0.9-0.4c-0.6-0.8-1.3-1.6-1.9-2.4
				c-0.4-0.5-0.3-1.2,0.2-1.6c0.5-0.4,1.2-0.3,1.5,0.2l0,0c0.6,0.7,1.3,1.5,1.9,2.4c0.4,0.5,0.3,1.2-0.1,1.6
				C1049.3,98.4,1049,98.5,1048.8,98.5L1048.8,98.5z M1043.1,91.5c-0.3,0-0.6-0.1-0.9-0.4c-0.6-0.7-1.2-1.5-1.9-2.4
				c-0.4-0.5-0.3-1.2,0.1-1.6c0.5-0.4,1.2-0.3,1.6,0.2c0.7,0.9,1.3,1.6,1.9,2.4c0.4,0.5,0.3,1.2-0.1,1.6
				C1043.5,91.4,1043.3,91.5,1043.1,91.5L1043.1,91.5z M1051.2,104.2c-0.3,0-0.6-0.1-0.8-0.4c-0.4-0.4-0.3-1.1,0.1-1.5c0,0,0,0,0,0
				c0.2-0.1,0.4-0.3,0.5-0.4c-0.1-0.1-0.2-0.2-0.3-0.4c-0.4-0.5-0.3-1.2,0.2-1.6c0.5-0.4,1.2-0.3,1.5,0.2c0.4,0.5,0.7,0.9,1.1,1.4
				c0.2,0.2,0.2,0.5,0.2,0.8c-0.1,0.3-0.2,0.5-0.4,0.7c-0.4,0.4-0.7,0.5-1.3,1C1051.8,104.1,1051.5,104.2,1051.2,104.2L1051.2,104.2
				z M1034.7,117c-0.6,0-1.1-0.5-1.1-1.2c0-0.3,0.1-0.6,0.4-0.8c1-0.8,1.9-1.6,2.8-2.2c0.5-0.4,1.2-0.3,1.5,0.1
				c0.4,0.5,0.3,1.2-0.1,1.6c-0.9,0.7-1.8,1.4-2.8,2.2C1035.2,116.9,1035,117,1034.7,117z M1043.2,110.3c-0.3,0-0.7-0.2-0.9-0.4
				c-0.4-0.5-0.3-1.1,0.2-1.5c0,0,0,0,0,0l2.9-2.2c0.5-0.4,1.2-0.3,1.5,0.2c0.4,0.5,0.3,1.2-0.2,1.6l0,0l-2.9,2.2
				C1043.7,110.2,1043.4,110.3,1043.2,110.3z M1029.3,121.3c-0.2,0-0.5-0.1-0.7-0.2l-1.3-1c-0.5-0.4-0.6-1.1-0.2-1.6
				c0.4-0.5,1.1-0.6,1.6-0.2l0.7,0.5c0.2-0.2,0.4-0.3,0.6-0.5c0.5-0.4,1.2-0.3,1.5,0.2c0.4,0.5,0.3,1.2-0.1,1.5
				c-0.5,0.4-0.9,0.7-1.4,1.1C1029.7,121.3,1029.5,121.3,1029.3,121.3L1029.3,121.3z M1022.7,116.4c-0.2,0-0.5-0.1-0.7-0.2l-3-2.1
				c-0.5-0.4-0.6-1-0.3-1.5s1-0.6,1.5-0.3c0,0,0,0,0,0l3,2.1c0.5,0.3,0.6,1,0.3,1.5c0,0,0,0,0,0
				C1023.4,116.3,1023,116.4,1022.7,116.4z M1013.8,109.9c-0.2,0-0.5-0.1-0.7-0.2l-3-2.1c-0.5-0.4-0.6-1.1-0.2-1.6
				c0.4-0.5,1.1-0.6,1.6-0.2l0,0l3,2.1c0.5,0.3,0.6,1,0.3,1.5c0,0,0,0,0,0C1014.5,109.8,1014.2,109.9,1013.8,109.9z M1004.5,105.2
				c-0.2,0-0.5-0.1-0.7-0.2c-0.5-0.3-0.6-1-0.3-1.5c0,0,0,0,0,0c0.4-0.5,0.7-0.9,1.1-1.4c0.4-0.4,1-0.5,1.5-0.1l1.3,1
				c0.5,0.4,0.6,1.1,0.2,1.6s-1.1,0.6-1.6,0.2l0,0l-0.5-0.4c-0.1,0.2-0.2,0.3-0.4,0.4C1005.1,105,1004.8,105.2,1004.5,105.2
				L1004.5,105.2z M993.8,118.7c-0.2,0-0.5-0.1-0.7-0.2c-0.5-0.3-0.6-1-0.3-1.5c0,0,0,0,0,0c0.7-0.8,1.3-1.6,1.8-2.3
				c0.4-0.5,1.1-0.6,1.6-0.2c0.5,0.4,0.6,1.1,0.2,1.6c-0.6,0.7-1.2,1.5-1.8,2.3C994.4,118.6,994.1,118.7,993.8,118.7z M999.1,111.8
				c-0.2,0-0.5-0.1-0.7-0.2c-0.5-0.4-0.5-1-0.2-1.5c0,0,0,0,0,0l1.8-2.3c0.4-0.5,1.1-0.5,1.6-0.2c0.5,0.4,0.5,1.1,0.1,1.6l0,0
				l-1.8,2.3C999.8,111.7,999.5,111.8,999.1,111.8L999.1,111.8z M989.8,123.9c-0.2,0-0.4-0.1-0.6-0.1c-0.5-0.3-0.7-1-0.4-1.6
				c0.3-0.4,0.5-0.7,0.7-1c0.1-0.2,0.2-0.3,0.4-0.4c0.4-0.5,1.1-0.6,1.5-0.2c0.5,0.4,0.6,1.1,0.2,1.6c-0.1,0.2-0.3,0.4-0.4,0.5
				c-0.2,0.3-0.4,0.5-0.6,0.8C990.6,123.7,990.2,123.9,989.8,123.9L989.8,123.9z"/>
		</g>
		<path class="st14" d="M1049,29.1c-2.7,0-4.9-2.2-4.9-4.9c0.1-2.7,2.3-4.8,5-4.7h0.1c2.7,0,4.9,2.2,4.9,4.9
			C1053.9,27.1,1051.7,29.2,1049,29.1L1049,29.1z"/>
		<path class="st15" d="M1049,20.6c2.2,0,3.9,1.7,4,3.8c-0.1,2.1-1.8,3.8-4,3.8h-0.1c-2.1,0-3.9-1.7-3.9-3.8c0,0,0,0,0,0
			C1045.2,22.2,1046.9,20.6,1049,20.6 M1049,18.7c-3.2-0.1-5.9,2.5-6,5.7c0,3.2,2.7,5.8,5.9,5.8c0,0,0,0,0,0h0.1
			c3.2,0.1,5.8-2.3,6-5.5c0.1-1.6-0.5-3.2-1.7-4.3C1052.2,19.3,1050.7,18.6,1049,18.7C1049.1,18.7,1049.1,18.7,1049,18.7L1049,18.7z
			"/>
		<path class="st14" d="M1000,48.2c-2.7,0.1-4.9-2-4.9-4.7c0,0,0-0.1,0-0.1c0.1-2.7,2.3-4.8,5-4.9h0.1c2.7,0,4.9,2.1,4.9,4.8
			c0,0,0,0,0,0C1004.9,46.1,1002.7,48.2,1000,48.2L1000,48.2z"/>
		<path class="st15" d="M1000,39.6c2.1-0.1,3.9,1.6,4,3.8c0,0,0,0,0,0c-0.1,2.2-1.8,3.9-4,3.8h-0.1c-2.1,0-3.9-1.6-3.9-3.7
			c0,0,0-0.1,0-0.1C996.1,41.3,997.9,39.6,1000,39.6 M1000,37.6c-3.2,0.1-5.9,2.7-6,5.9c0,1.5,0.6,3,1.7,4.1
			c1.1,1.1,2.6,1.7,4.2,1.6h0.1c3.2,0,5.8-2.6,6-5.8c0-3.2-2.5-5.7-5.7-5.8C1000.3,37.7,1000.2,37.7,1000,37.6L1000,37.6L1000,37.6z
			"/>
		<path class="st14" d="M1082.5,90.4c-1.3-0.1-2.6-0.7-3.5-1.6c-0.9-0.9-1.4-2.2-1.4-3.5c0-2.5,2.2-4.6,4.7-4.5c0.1,0,0.2,0,0.3,0
			h0.1c2.7,0.2,4.9,2.4,4.9,5.2c-0.1,2.6-2.2,4.6-4.8,4.5C1082.7,90.4,1082.6,90.4,1082.5,90.4L1082.5,90.4z"/>
		<path class="st15" d="M1082.6,81.7c2.2,0.1,3.9,1.9,4,4.1c0,2-1.6,3.6-3.6,3.6c-0.1,0-0.3,0-0.4,0h-0.1c-2.2-0.1-3.9-1.9-3.9-4.1
			c0.1-2,1.8-3.6,3.8-3.6C1082.5,81.7,1082.6,81.7,1082.6,81.7 M1082.6,79.7c-3.1-0.2-5.7,2.1-6,5.2c0,0.1,0,0.2,0,0.3
			c0,3.3,2.6,6,5.9,6.2h0.1c3,0.3,5.7-1.9,6-5c0-0.1,0-0.3,0-0.4c0-1.6-0.6-3.1-1.7-4.3C1085.8,80.5,1084.3,79.8,1082.6,79.7
			L1082.6,79.7z"/>
		<path class="st14" d="M1028.1,125.9c-1.3,0-2.6-0.5-3.5-1.3c-0.9-0.9-1.4-2.1-1.4-3.3c0.1-2.7,2.3-4.8,5-4.9h0.1
			c2.7,0,4.9,2.1,4.9,4.8c0,0,0,0,0,0C1033.1,123.8,1030.8,125.9,1028.1,125.9L1028.1,125.9z"/>
		<path class="st15" d="M1028.2,117.3c2.1-0.1,3.9,1.6,4,3.7c0,0,0,0.1,0,0.1c-0.1,2.1-1.8,3.8-4,3.8h-0.1c-2.1,0.1-3.8-1.5-3.9-3.5
			c0-0.1,0-0.2,0-0.2C1024.3,119,1026.1,117.3,1028.2,117.3 M1028.2,115.3c-3.2,0.1-5.9,2.6-6.1,5.8c0,1.5,0.6,3,1.7,4.1
			c1.2,1,2.7,1.6,4.2,1.6h0.1c3.2,0,5.9-2.5,6.1-5.8c0-1.5-0.6-3-1.7-4.1C1031.4,115.9,1029.9,115.3,1028.2,115.3L1028.2,115.3z"/>
	</g>
	<g transform="translate(365.625 1421.25) rotate(-40.69374492531084 337.5 234.375) scale(2.276099271648233 2.277718928269468)">
		<path class="st13" d="M1937.8,1681.3h90.1v117.9l-90.1,0V1681.3z"/>
		<path class="st13" d="M2031.6,1802.9h-97.5v-125.3h97.5V1802.9z M1941.5,1795.5h82.7V1685h-82.7V1795.5z"/>
		<path class="st19" d="M1822.4,1681.3h117.9v117.9l-117.9,0V1681.3z"/>
		<path class="st13" d="M1944,1802.9h-125.3l0-125.3H1944V1802.9z M1826.1,1795.5h110.5V1685h-110.5V1795.5z M2020.4,1642.4h54.7
			v69.2h-54.7V1642.4z"/>
		<path class="st19" d="M1963.6,1646.1l61.8,0v61.8h-61.8V1646.1z"/>
		<path class="st13" d="M2029.1,1711.7h-69.2v-69.2h69.2V1711.7z M1967.3,1704.3h54.4v-54.4h-54.4V1704.3z"/>
		<path class="st20" d="M1894.3,1597.6h65.6v79.9h-65.6V1597.6z"/>
		<path class="st19" d="M1823.4,1599.5h76.2l0,76.2h-76.2V1599.5z"/>
		<path class="st20" d="M1901.4,1677.5h-79.9v-79.9h79.9L1901.4,1677.5z M1825.3,1673.8h72.5l0-72.5h-72.5V1673.8z"/>
		<path class="st20" d="M1821.6,1672.4l74.8-74.8l5.1,5.1l-74.8,74.8L1821.6,1672.4z"/>
		<path class="st20" d="M1821.6,1602.8l5.1-5.1l74.8,74.8l-5.1,5.1L1821.6,1602.8z M2039.8,1705.7h75.5v97.6h-75.5V1705.7z"/>
		<path class="st19" d="M1949.6,1707.6h93.9v93.9h-93.9V1707.6z"/>
		<g>
			<path class="st20" d="M2045.4,1803.4h-97.6v-97.6h97.6V1803.4z M1951.4,1799.7h90.2v-90.2h-90.2V1799.7z"/>
			<path class="st20" d="M1949.6,1752.7h92v3.7h-92V1752.7z"/>
			<path class="st20" d="M1994.7,1707.6h3.7v93.9h-3.7V1707.6z M1863.4,1731.8h53.1v69.5h-53.1V1731.8z"/>
			<path class="st20" d="M1917.6,1802.4h-55.3v-71.7h55.3V1802.4z M1864.5,1800.2h51v-67.4h-51V1800.2z"/>
			<path class="st20" d="M1869.1,1739.2h41.8v54.7h-41.8V1739.2z"/>
		</g>
		<path class="st19" d="M1910.9,1795.8h-41.8c-1,0-1.8-0.8-1.8-1.8c0,0,0,0,0,0v-54.7c0-1,0.8-1.8,1.8-1.8c0,0,0,0,0,0h41.8
			c1,0,1.8,0.8,1.8,1.8c0,0,0,0,0,0v54.7C1912.8,1794.9,1912,1795.8,1910.9,1795.8C1910.9,1795.8,1910.9,1795.8,1910.9,1795.8
			L1910.9,1795.8z M1871,1792.1h38.1v-51H1871V1792.1z"/>
		<path class="st20" d="M1869.1,1793.9v-6.1l16.2-21.2l4.7-6.1l16.2-21.2h4.7v6.1l-16.2,21.2l-4.7,6.1l-16.2,21.2H1869.1z"/>
		<path class="st19" d="M1873.8,1795.8h-4.7c-1,0-1.8-0.8-1.8-1.8c0,0,0,0,0,0v-6.1c0-0.4,0.1-0.8,0.4-1.1l16.2-21.2l4.7-6.1
			l16.2-21.2c0.4-0.5,0.9-0.7,1.5-0.7h4.7c1,0,1.8,0.8,1.8,1.8c0,0,0,0,0,0v6.1c0,0.4-0.1,0.8-0.4,1.1l-16.2,21.2l-4.7,6.1
			l-16.2,21.2C1874.9,1795.5,1874.4,1795.8,1873.8,1795.8L1873.8,1795.8z M1871,1792.1h1.9l15.6-20.4l4.7-6.1l15.8-20.7v-3.7h-2
			l-20.3,26.6l-15.8,20.6L1871,1792.1L1871,1792.1z"/>
		<path class="st20" d="M1869.1,1745.4v-6.1h4.7l16.2,21.2l4.7,6.1l16.2,21.2v6.1h-4.7L1869.1,1745.4z"/>
		<path class="st19" d="M1910.9,1795.8h-4.7c-0.6,0-1.1-0.3-1.5-0.7l-37.1-48.5c-0.2-0.3-0.4-0.7-0.4-1.1v-6.1c0-1,0.8-1.8,1.8-1.8
			c0,0,0,0,0,0h4.7c0.6,0,1.1,0.3,1.5,0.7l16.2,21.2l4.7,6.1l16.2,21.2c0.2,0.3,0.4,0.7,0.4,1.1v6.1
			C1912.8,1794.9,1912,1795.8,1910.9,1795.8C1910.9,1795.8,1910.9,1795.8,1910.9,1795.8z M1907.1,1792.1h2v-3.7l-15.8-20.6l-4.7-6.1
			l-15.7-20.5h-1.9v3.7L1907.1,1792.1z M1915.1,1731.8h69.5v69.5h-69.5V1731.8z"/>
		<path class="st20" d="M1984.7,1803.2h-69.5c-1,0-1.8-0.8-1.8-1.8c0,0,0,0,0,0v-69.5c0-1,0.8-1.8,1.8-1.8c0,0,0,0,0,0h69.5
			c1,0,1.8,0.8,1.8,1.8c0,0,0,0,0,0v69.5C1986.5,1802.3,1985.7,1803.2,1984.7,1803.2C1984.7,1803.2,1984.7,1803.2,1984.7,1803.2z
			 M1917,1799.5h65.8v-65.8H1917L1917,1799.5z"/>
		<path class="st19" d="M1922.6,1739.2h54.7v54.7h-54.7V1739.2z"/>
		<path class="st20" d="M1977.3,1795.8h-54.7c-1,0-1.8-0.8-1.8-1.8c0,0,0,0,0,0v-54.7c0-1,0.8-1.8,1.8-1.8c0,0,0,0,0,0h54.7
			c1,0,1.8,0.8,1.8,1.8c0,0,0,0,0,0v54.7C1979.1,1794.9,1978.3,1795.8,1977.3,1795.8C1977.3,1795.8,1977.3,1795.8,1977.3,1795.8
			L1977.3,1795.8z M1924.4,1792.1h51v-51h-51L1924.4,1792.1z"/>
		<path class="st19" d="M1922.6,1793.9v-6.1l21.2-21.2l6.1-6.1l21.2-21.2h6.1v6.1l-21.2,21.2l-6.1,6.1l-21.2,21.2H1922.6z"/>
		<path class="st20" d="M1928.7,1795.8h-6.1c-1,0-1.8-0.8-1.8-1.8c0,0,0,0,0,0v-6.1c0-0.5,0.2-1,0.5-1.3l48.5-48.5
			c0.4-0.4,0.8-0.5,1.3-0.5h6.1c1,0,1.8,0.8,1.8,1.8c0,0,0,0,0,0v6.1c0,0.5-0.2,1-0.5,1.3l-48.5,48.5
			C1929.7,1795.6,1929.2,1795.7,1928.7,1795.8z M1924.4,1792.1h3.6l47.4-47.4v-3.6h-3.6l-47.4,47.4L1924.4,1792.1z"/>
		<path class="st19" d="M1922.6,1745.4v-6.1h6.1l21.2,21.2l6.1,6.1l21.2,21.2v6.1h-6.1L1922.6,1745.4z"/>
		<path class="st20" d="M1977.3,1795.8h-6.1c-0.5,0-1-0.2-1.3-0.5l-48.5-48.5c-0.4-0.4-0.5-0.8-0.5-1.3v-6.1c0-1,0.8-1.8,1.8-1.8
			c0,0,0,0,0,0h6.1c0.5,0,1,0.2,1.3,0.5l27.3,27.4l21.2,21.2c0.4,0.4,0.5,0.8,0.5,1.3v6.1
			C1979.1,1794.9,1978.3,1795.8,1977.3,1795.8C1977.3,1795.8,1977.3,1795.8,1977.3,1795.8z M1971.9,1792.1h3.6v-3.6l-26.9-26.8
			l-20.6-20.7h-3.6v3.6L1971.9,1792.1z"/>
	</g>
	
		<g transform="translate(148.125 1357.5) rotate(0.0 1082.8125 498.75) translate(0.0 0.0) scale(3.2780811881847547 3.2839722401464373)">
		<g>
			<ellipse class="st5" cx="1791.2" cy="295.3" rx="30.6" ry="30.6"/>
			<ellipse class="st19" cx="1791.2" cy="295.3" rx="18.9" ry="18.9"/>
		</g>
		<path class="st5" d="M2061.5,112.8c-2.2,0-4.3-1.1-5.6-2.9c-2.2-3.1-1.5-7.3,1.6-9.5c0,0,0,0,0,0l57.9-40.8
			c3.1-2.2,7.4-1.4,9.5,1.6s1.4,7.4-1.6,9.5l0,0l-57.9,40.8C2064.3,112.4,2062.9,112.8,2061.5,112.8z"/>
		<path class="st13" d="M1791.9,303c-2.2,0-4.3-1.1-5.6-2.9c-2.2-3.1-1.5-7.3,1.6-9.5c0,0,0,0,0,0l269.6-190.1
			c3.1-2.2,7.4-1.5,9.6,1.6c2.2,3.1,1.5,7.4-1.6,9.6c0,0-0.1,0-0.1,0.1l-269.6,190.1C1794.7,302.5,1793.3,303,1791.9,303z"/>
		<g>
			<path class="st5" d="M1984,278.2h-31.1c-2,0-4-0.9-5.3-2.5l-47.5-56.5c-2.4-2.9-2-7.3,0.9-9.7c2.9-2.4,7.2-2,9.6,0.8l45.4,54h21
				V160.8c0-3.8,3.1-6.9,6.9-6.9c3.8,0,6.9,3.1,6.9,6.9l0,0v110.5C1990.8,275.1,1987.8,278.2,1984,278.2
				C1984,278.2,1984,278.2,1984,278.2z"/>
		</g>
		<path class="st15" d="M1860.8,265.6l-127.8-130h263.9v67.7L1860.8,265.6z"/>
		<path class="st15" d="M1858.9,270.9c-1.8,0-3.6-0.7-4.9-2.1l-127.8-129.9c-2.7-2.7-2.6-7,0.1-9.7c1.3-1.3,3-2,4.8-2H1995
			c3.8,0,6.9,3.1,6.9,6.9v67.7c0,2.7-1.6,5.1-4,6.3l-136,62.2C1860.9,270.7,1859.9,270.9,1858.9,270.9z M1747.5,140.9l112.9,114.9
			l127.6-58.5v-56.4H1747.5z"/>
		<path class="st5" d="M1736,148.8h265.9V134l-279.5,1L1736,148.8z M2248.7,93.8c-3.8,0-6.9-3.1-6.9-6.9c0-2.7,1.6-5.1,4-6.3
			l68.4-31.3c3.5-1.6,7.5-0.1,9.1,3.4c1.6,3.4,0.1,7.5-3.4,9.1l-68.4,31.3C2250.7,93.6,2249.7,93.8,2248.7,93.8L2248.7,93.8z"/>
		<path class="st13" d="M1791.9,303c-3.8,0-6.9-3.1-6.9-6.9c0-2.7,1.6-5.1,4-6.3l456.8-209.2c3.5-1.6,7.5-0.1,9.1,3.4
			s0.1,7.5-3.4,9.1l-456.8,209.2C1793.9,302.7,1792.9,303,1791.9,303L1791.9,303z"/>
		<path class="st15" d="M2004.2,140.9h-286.4c-3.8,0-6.9-3.1-6.9-6.9c0-3.8,3.1-6.9,6.9-6.9h286.4c3.8,0,6.9,3.1,6.9,6.9
			C2011.1,137.8,2008,140.9,2004.2,140.9z"/>
		<path class="st13" d="M2029.9,296.9h-31.1c-1.8,0-3.6-0.7-4.9-2l-60.8-60.8c-2.6-2.7-2.5-7.1,0.2-9.7c2.7-2.6,6.9-2.6,9.5,0
			l58.8,58.8h21.4v-94.7c0-3.8,3.1-6.9,6.9-6.9c3.8,0,6.9,3.1,6.9,6.9V290C2036.8,293.8,2033.7,296.8,2029.9,296.9z"/>
	</g>
	<g transform="translate(1860.0 603.75) rotate(0.0 488.4375 874.6875) scale(3.175228746485512 3.177129210065109)">
		<path class="st21" d="M1976.5,45l60.8,71.6c9,10.7,7.7,26.6-2.9,35.7c-3.4,2.9-7.5,4.9-12,5.6l-1.8,0.3l-54.1,9.4
			c-14.4,2.5-28-7.1-30.5-21.5c-2.5-14.4,7.1-28,21.5-30.5l54.1-9.4l-16.8,41.6l-52.6-83"/>
		<path class="st22" d="M1942.2,64.9l-4.4-6.9c-5.6-8.9-3-20.6,5.8-26.2c8-5.1,18.6-3.5,24.7,3.8l8.1,9.5 M1907.3,60l-4.1,4.5
			c-0.8,0.9-0.7,2.2,0.1,3c0,0,0.1,0,0.1,0.1l3.8,2.6"/>
		<path class="st5" d="M1907.3,71.1c-0.2,0-0.4-0.1-0.5-0.1l-3.9-2.7c-0.6-0.5-1-1.3-1.1-2.1c-0.1-0.8,0.2-1.6,0.8-2.2l4.1-4.5
			c0.3-0.4,0.9-0.4,1.3-0.1c0.4,0.3,0.4,0.9,0.1,1.2l-4.1,4.5c-0.2,0.2-0.3,0.6-0.3,0.9c0,0.4,0.2,0.7,0.4,0.9l3.8,2.6
			c0.4,0.3,0.5,0.8,0.3,1.2c0,0,0,0,0,0.1C1907.8,70.9,1907.5,71.1,1907.3,71.1L1907.3,71.1z"/>
		<path class="st22" d="M1925.2,98.1l18.5,0.7c9.5,0.3,17.5-7.1,17.9-16.6c0,0,0,0,0-0.1l1-27.8c0.5-15.3-11.4-28.1-26.6-28.6
			c-15.3-0.5-28.1,11.4-28.6,26.6l-0.9,25.5C1905.9,88.6,1914.3,97.7,1925.2,98.1C1925.2,98.1,1925.2,98.1,1925.2,98.1z"/>
		<path class="st5" d="M1909.4,60.3c0,1.5-1.1,2.8-2.6,3l0.2-6.1C1908.4,57.6,1909.4,58.9,1909.4,60.3z"/>
		<path class="st22" d="M1938.6,130.1l24-7.9l-0.7-52.6l-29.4-1l-4.7,53.1c-0.4,4.5,2.9,8.5,7.4,8.9
			C1936.4,130.6,1937.6,130.5,1938.6,130.1L1938.6,130.1z"/>
		<path class="st5" d="M1929.9,98.2l12,0.4l-13.1,11.4L1929.9,98.2z"/>
		<path class="st21" d="M1898.8,200.6c0.2-26.6,18.5-25.3,11.7-43.3c-6.9-17.9,1.4-43,21.8-42.9c15.8,0.1,16.9-0.4,23.5-0.4
			c33.3,0,26.4,67.4,26.3,85.8L1898.8,200.6z"/>
		
			<linearGradient id="SVGID_00000066512824841459616210000014117442986425314724_" gradientUnits="userSpaceOnUse" x1="1483.082" y1="499.8179" x2="1483.082" y2="880.4809" gradientTransform="matrix(3.1752 0 0 -3.1771 -2733.4441 2141.1741)">
			<stop  offset="0" style="stop-color:#6B9C83"/>
			<stop  offset="0.401" style="stop-color:#A6A6A4"/>
			<stop  offset="0.501" style="stop-color:#9F9FC8"/>
			<stop  offset="0.591" style="stop-color:#9FCCEC"/>
			<stop  offset="1" style="stop-color:#FFE7B0"/>
		</linearGradient>
		<path style="fill:url(#SVGID_00000066512824841459616210000014117442986425314724_);" d="M1982.2,199.8l46.4,352.9l-50.9,5.2
			c-1.2-3.5-2.2-7.1-3.3-10.6c-1.1-3.5-2.1-7.1-3.1-10.7l-1.5-5.3c-0.5-1.8-1-3.5-1.4-5.4l-2.9-10.7l-1.4-5.4l-1.3-5.4
			c-0.9-3.5-1.8-7.2-2.7-10.7l-2.6-10.8l-2.5-10.8c-6.6-28.7-12.3-57.5-17.6-86.4l-1.9-10.9c-0.4-1.8-0.6-3.6-0.8-5.5
			c-0.3-1.8-0.5-3.6-0.7-5.5c-1-7.2-2-14.5-2.9-21.8l-1.3-10.9l-1.2-10.9l-0.6-5.5l-0.5-5.5c-0.4-3.6-0.7-7.3-1-10.9
			c-1.3-14.5-2.3-29.2-3-43.8c-0.4-7.3-0.6-14.6-0.7-21.9l-0.1-11c0-1.8,0.1-3.7,0.1-5.5s0.1-3.7,0.1-5.5L1982.2,199.8z"/>
		<path class="st5" d="M1938.8,569.5l81.7-0.3c4.3,0,7.8-3.5,7.8-7.8l0.2-10.3l-51.7,0.7l-39.1,9.8
			C1933.2,562.8,1934,569.5,1938.8,569.5L1938.8,569.5z"/>
		
			<linearGradient id="SVGID_00000085249321658128984480000000108122548597328524_" gradientUnits="userSpaceOnUse" x1="1452.4872" y1="502.6399" x2="1452.4872" y2="867.6179" gradientTransform="matrix(3.1752 0 0 -3.1771 -2733.4441 2141.1741)">
			<stop  offset="0" style="stop-color:#6B9C83"/>
			<stop  offset="0.401" style="stop-color:#A6A6A4"/>
			<stop  offset="0.501" style="stop-color:#9F9FC8"/>
			<stop  offset="0.591" style="stop-color:#9FCCEC"/>
			<stop  offset="1" style="stop-color:#FFE7B0"/>
		</linearGradient>
		<path style="fill:url(#SVGID_00000085249321658128984480000000108122548597328524_);" d="M1977.6,228.2l-38.5,104.4l-110.7,218.6
			l-48.9,2.9c0.3-3.8,66.3-199.8,71.7-213.6c0,0,33.2-81.4,38.3-95.3c5.2-13.9,10.6-27.6,16.8-41.1L1977.6,228.2z"/>
		
			<linearGradient id="SVGID_00000047052207388658812130000012791531040761560717_" gradientUnits="userSpaceOnUse" x1="1472.0157" y1="502.1769" x2="1472.0157" y2="868.4219" gradientTransform="matrix(3.1752 0 0 -3.1771 -2733.4441 2141.1741)">
			<stop  offset="0" style="stop-color:#6B9C83"/>
			<stop  offset="0.401" style="stop-color:#A6A6A4"/>
			<stop  offset="0.501" style="stop-color:#9F9FC8"/>
			<stop  offset="0.591" style="stop-color:#9FCCEC"/>
			<stop  offset="1" style="stop-color:#FFE7B0"/>
		</linearGradient>
		<path style="fill:url(#SVGID_00000047052207388658812130000012791531040761560717_);" d="M1982.3,199.4
			c-0.1,14.1-15,35.1-39.5,35.1l-4-0.2c-22.4,0-40.2-18.4-40.1-33.6L1982.3,199.4z"/>
		<path class="st5" d="M1915.6,210.7h67.8l-1-11.4H1920L1915.6,210.7z M1739.7,569.5l81.7-0.3c4.3,0,7.8-3.5,7.8-7.8l0.2-10.3
			l-51.7,0.7l-39.1,9.8C1734.1,562.8,1735,569.5,1739.7,569.5z M1907.4,49.7h13.6v18.8h4.7l3.9,11.1c1.7,5,6.5,8.3,11.7,8.3h10.7
			c6.9,0,10.2-5.6,10.2-12.5l0.4-24.1c0-14.5-12.2-26.2-26.6-26.2h-4.1c-13.5,0-24.5,10.9-24.5,24.4
			C1907.4,49.6,1907.4,49.7,1907.4,49.7L1907.4,49.7z"/>
		<path class="st26" d="M1934.6,18.9c-27.7,0-27.3,22.1-33.4,32.8h66.9C1961.8,41,1962.2,18.9,1934.6,18.9z"/>
		<path class="st22" d="M1926.7,73c-2.1,0-3.8-1.7-3.8-3.8c0,0,0,0,0-0.1v-6.3c0-2.1,1.7-3.8,3.8-3.8c0,0,0,0,0.1,0
			c2.1,0,3.8,1.7,3.8,3.8c0,0,0,0,0,0.1v6.3C1930.5,71.3,1928.8,73,1926.7,73C1926.7,73,1926.7,73,1926.7,73z M1866.4,272.2
			l-11.7,11.5c-7.5,7.3-19.6,7.2-26.9-0.3c-6.6-6.7-7.2-17.2-1.6-24.7l11.7-15.5L1866.4,272.2z"/>
		<path class="st21" d="M1837.8,243.1l47.1-62.5l-4.4,6.9l22.6-52c5.9-13.3,21.4-19.4,34.8-13.5c13.2,5.8,19.3,21.3,13.6,34.5
			l-22.6,52l-0.7,1.5c-0.9,2-2.2,3.9-3.8,5.4l-58.1,56.8L1837.8,243.1z"/>
		<g>
			<path class="st5" d="M1931.6,348.3c-0.2,0-0.3,0-0.4-0.1c-0.6-0.2-0.8-0.9-0.6-1.5c0,0,0,0,0,0l31.4-76.1
				c0.2-0.6,0.9-0.8,1.5-0.6c0.6,0.2,0.8,0.9,0.6,1.5l-31.4,76.1C1932.5,348.1,1932.1,348.3,1931.6,348.3z M1972.8,114.1
				c-0.5,0-1-0.4-1.1-0.9c-0.1-0.6,0.3-1.2,0.9-1.3l28.8-4.9c0.6-0.1,1.1,0.3,1.2,0.9c0.1,0.6-0.3,1.1-0.9,1.2l-28.8,4.9H1972.8z
				 M1982.8,169.1c-0.6,0-1.1-0.5-1.1-1.1v-17.8c0-0.6,0.5-1.1,1.1-1.1c0.6,0,1.1,0.5,1.1,1.1V168
				C1983.9,168.6,1983.4,169.1,1982.8,169.1L1982.8,169.1z M1881.6,194.1c-0.6,0-1.1-0.5-1.1-1.1v-8c0-0.6,0.5-1.1,1.1-1.1
				c0.6,0,1.1,0.5,1.1,1.1v8C1882.7,193.6,1882.2,194.1,1881.6,194.1L1881.6,194.1z M1932.9,200.3c-0.2,0-0.3,0-0.4-0.1
				c-0.6-0.2-0.8-0.9-0.6-1.5c0,0,0,0,0,0l12.3-28.3c0.2-0.6,0.9-0.8,1.5-0.6s0.8,0.9,0.6,1.5l-12.3,28.3
				C1933.8,200,1933.4,200.3,1932.9,200.3z"/>
		</g>
	</g>
	
		<g transform="translate(1860.0 -60.0) rotate(0.0 394.6875 226.875) translate(472.5 0.0) scale(3.8859816672738194 3.847719351802386)">
		<g>
			<path class="st13" d="M1359.5,79.4c-13.4-2.9-23.6-16.4-33.5-29.5c-9.1-12-18.5-24.4-29.5-27.2l1.8-7.2
				c13.5,3.3,23.8,16.8,33.6,29.8c9,12,18.4,24.4,29.2,26.7L1359.5,79.4z M1497.5,133.5c-15.4-5-28.1-22.3-39.8-39.6l6.1-4.1
				c10.4,15.5,22.7,32.4,35.9,36.6L1497.5,133.5z"/>
		</g>
	</g>
	<path class="st5" d="M7981.8,842.8c4.6,14.9,8.9,35.5,7.5,59.7c-2.4,41.8-20.4,69.5-6.9,83.1c5.7,5.8,15.5,7.4,25.3,9.1
		c2.9,0.5,9.6,1.4,27.2,0c15.4-1.3,28-3.4,38-5.4c18.9-3.7,32.9-6.5,37.9-9c36.2-17.5-14.5-197.1-19.1-213.3"/>
</g>
<g id="Layer_3">
</g>
</svg>
