<?xml version="1.0" encoding="utf-8"?>
<!-- Generator: Adobe Illustrator 27.2.0, SVG Export Plug-In . SVG Version: 6.00 Build 0)  -->
<svg version="1.1" id="Layer_1" xmlns="http://www.w3.org/2000/svg" xmlns:xlink="http://www.w3.org/1999/xlink" x="0px" y="0px"
	 viewBox="0 0 184 184" style="enable-background:new 0 0 184 184;" xml:space="preserve">
<style type="text/css">
	.st0{fill:#FFFFFF;}
	.st1{fill:#1D0333;}
	.st2{fill:#759EF2;}
</style>
<circle class="st0" cx="93.1" cy="93" r="92"/>
<path class="st1" d="M92,184c-50.7,0-92-41.3-92-92S41.3,0,92,0s92,41.3,92,92S142.7,184,92,184z M92,2C42.4,2,2,42.4,2,92
	s40.4,90,90,90s90-40.4,90-90S141.6,2,92,2z"/>
<path class="st1" d="M92,184c-24.4,0-47.5-9.6-64.9-27.1C9.6,139.5,0,116.4,0,92s9.6-47.5,27.1-64.9C44.5,9.6,67.6,0,92,0
	c44.2,0,82.2,31.5,90.4,74.9c0.1,0.5-0.3,1.1-0.8,1.2L93.8,92.7l56.5,69.2c0.2,0.2,0.2,0.5,0.2,0.7c0,0.3-0.2,0.5-0.4,0.7
	C133.8,176.6,113.2,184,92,184z M92,2c-23.9,0-46.4,9.4-63.5,26.5C11.4,45.6,2,68.1,2,92s9.4,46.4,26.5,63.5
	C45.6,172.6,68.1,182,92,182c20.4,0,40.3-7,56.2-19.7L91.2,92.6c-0.2-0.3-0.3-0.6-0.2-1c0.1-0.3,0.4-0.6,0.8-0.6l88.4-16.7
	C171.8,32.4,134.9,2,92,2L92,2z"/>
<path class="st1" d="M92,184c-24.4,0-47.5-9.6-64.9-27.1C9.6,139.5,0,116.4,0,92s9.6-47.5,27.1-64.9C44.5,9.6,67.6,0,92,0
	c31.4,0,60.4,15.8,77.4,42.2c0.3,0.5,0.2,1.1-0.3,1.4L96.8,90.1l84.4-15.8c0.3,0,0.5,0,0.7,0.2s0.4,0.4,0.4,0.6
	c1,5.6,1.6,11.2,1.6,16.9c0,24.4-9.6,47.5-27.1,64.9C139.5,174.4,116.4,184,92,184L92,184z M92,2c-23.9,0-46.4,9.4-63.5,26.5
	C11.4,45.6,2,68.1,2,92s9.4,46.4,26.5,63.5C45.6,172.6,68.1,182,92,182s46.4-9.4,63.5-26.5C172.6,138.4,182,115.9,182,92
	c0-5.2-0.5-10.4-1.4-15.6L92.2,93c-0.5,0.1-0.9-0.2-1.1-0.6s0-1,0.4-1.2l75.7-48.7C150.4,17.1,122.4,2,92,2L92,2z"/>
<path class="st2" d="M92,92l5.4-90.8c14.8,0.9,29.1,5.3,41.7,13s23.2,18.3,30.9,31L92,92z"/>
<path class="st1" d="M92,93c-0.2,0-0.4,0-0.5-0.1c-0.3-0.2-0.5-0.5-0.5-0.9l5.4-90.8c0-0.6,0.5-1,1.1-0.9
	c14.9,0.9,29.5,5.4,42.2,13.2c12.7,7.7,23.5,18.5,31.2,31.3c0.1,0.2,0.2,0.5,0.1,0.8s-0.2,0.5-0.5,0.6l-78,46.9
	C92.4,93,92.2,93,92,93L92,93z M98.4,2.2l-5.2,87.9l75.5-45.4c-7.5-12.1-17.8-22.4-30-29.8C126.5,7.6,112.6,3.2,98.4,2.2L98.4,2.2z"
	/>
</svg>
