<svg height="197.349" viewBox="0 0 139 197.349" width="139" xmlns="http://www.w3.org/2000/svg"><path d="m75 1c-53 0-63 28.206-63 63 0 28.246 52 132.349 52 132.349h11s63-97.555 63-132.349-28.206-63-63-63zm0 85.349c-12.979 0-23.5-10.521-23.5-23.5s10.521-23.5 23.5-23.5 23.5 10.521 23.5 23.5-10.521 23.5-23.5 23.5z" fill="#577ddd"/><path d="m75 197.349h-11c-.379 0-.725-.214-.895-.553-2.127-4.26-52.105-104.638-52.105-132.796 0-31.647 7.604-64 64-64 35.29 0 64 28.71 64 64 0 34.689-60.581 128.897-63.16 132.892-.184.285-.501.457-.84.457zm-10.38-2h9.834c4.669-7.297 62.547-98.455 62.547-131.349 0-34.187-27.813-62-62-62-24.309 0-40.858 5.913-50.594 18.077-7.781 9.722-11.406 23.679-11.406 43.923 0 26.635 47.537 123.113 51.62 131.349zm10.38-108c-13.509 0-24.5-10.99-24.5-24.5s10.991-24.5 24.5-24.5 24.5 10.99 24.5 24.5-10.991 24.5-24.5 24.5zm0-47c-12.406 0-22.5 10.094-22.5 22.5s10.094 22.5 22.5 22.5 22.5-10.094 22.5-22.5-10.094-22.5-22.5-22.5z" fill="#1d0333"/><path d="m64 1c-34.794 0-63 28.206-63 63s63 132.349 63 132.349 63-97.555 63-132.349-28.206-63-63-63zm0 85.349c-12.979 0-23.5-10.521-23.5-23.5s10.521-23.5 23.5-23.5 23.5 10.521 23.5 23.5-10.521 23.5-23.5 23.5z" fill="#759ef2"/><path d="m64 197.349c-.339 0-.656-.172-.84-.457-2.579-3.994-63.16-98.203-63.16-132.892 0-35.29 28.71-64 64-64s64 28.71 64 64c0 34.689-60.581 128.897-63.16 132.892-.184.285-.501.457-.84.457zm0-195.349c-34.187 0-62 27.814-62 62 0 31.928 54.528 118.748 62 130.492 7.472-11.744 62-98.564 62-130.492 0-34.186-27.813-62-62-62zm0 85.349c-13.509 0-24.5-10.99-24.5-24.5s10.991-24.5 24.5-24.5 24.5 10.99 24.5 24.5-10.991 24.5-24.5 24.5zm0-47c-12.406 0-22.5 10.094-22.5 22.5s10.094 22.5 22.5 22.5 22.5-10.094 22.5-22.5-10.094-22.5-22.5-22.5z" fill="#1d0333"/></svg>