<?xml version="1.0" encoding="utf-8"?>
<!-- Generator: Adobe Illustrator 23.0.2, SVG Export Plug-In . SVG Version: 6.00 Build 0)  -->
<svg version="1.1" id="Layer_1" xmlns="http://www.w3.org/2000/svg" xmlns:xlink="http://www.w3.org/1999/xlink" x="0px" y="0px"
	 viewBox="0 0 698.38 178.95" style="enable-background:new 0 0 698.38 178.95;" xml:space="preserve">
<style type="text/css">
	.st0{fill:#303E48;}
	.st1{fill:url(#SVGID_2_);}
	.st2{fill:url(#SVGID_3_);}
	.st3{fill:url(#SVGID_5_);}
	.st4{fill:url(#SVGID_6_);}
	.st5{fill:url(#SVGID_8_);}
	.st6{fill:url(#SVGID_9_);}
	.st7{fill:url(#SVGID_11_);}
	.st8{fill:url(#SVGID_12_);}
</style>
<g>
	<path class="st0" d="M151.66,136.79c-7.04-0.12-21.87-0.25-36.58-0.25s-29.16,0-35.69,0.25v-4.09l10.49-0.25
		c0.25-6.78,0.38-8.44,0.38-24.81c0-43.23,0-47.97-0.38-56.41l-10.49-0.38v-4.09c3.58,0,8.44,0.25,19.57,0.25
		c11,0,15.99-0.25,19.44-0.25v4.09l-11.25,0.38c-0.13,4.22-0.26,19.32-0.26,34.79c0,18.29,0,37.35,0.26,39.53
		c0.77,6.14,2.3,7.16,20.33,7.16c3.96,0,9.72-0.38,13.81-0.51l6.91-20.47h5.88L151.66,136.79z"/>
	<path class="st0" d="M237.09,136.93c-5.63-0.25-10.49-0.38-17.39-0.38c-4.73,0-9.08,0.13-19.06,0.38v-4.09
		c10.62-0.25,11.51-0.9,11.51-1.53c0-0.77-0.38-1.92-0.89-3.2l-8.32-22.12c-0.77-1.92-1.02-1.92-3.32-1.92h-22
		c-1.66,0-2.05,0.39-2.81,2.3l-7.8,20.59c-0.64,1.79-1.15,3.33-1.15,3.84c0,1.41,0.89,1.92,10.49,2.05v4.09
		c-3.58-0.13-7.55-0.38-11.51-0.38c-4.48,0-7.93,0.25-10.49,0.38v-4.35c4.22-0.39,5.24-1.03,6.52-3.46
		c1.54-2.94,13.3-31.59,15.73-37.99l17.78-46.43h1.92l29.81,73.67c1.79,4.47,3.84,8.7,5.24,11.38c1.15,2.18,3.07,2.69,5.75,2.82
		v4.35H237.09z M198.85,100.47c0.89-0.13,1.54-0.51,1.54-0.89c0-0.39-0.13-0.64-0.51-1.67l-10.1-27.12
		c-0.13-0.51-0.51-1.15-0.77-1.15c-0.26,0-0.38,0.64-0.77,1.41L178,97.91c-0.26,0.9-0.51,1.41-0.51,1.79c0,0.39,0.51,0.77,2.3,0.77
		H198.85z"/>
	<path class="st0" d="M356.68,136.79c-8.7-0.12-13.94-0.25-18.67-0.25c-2.56,0-14.84,0.25-18.55,0.25v-4.09l10.23-0.25
		c0.13-7.55,0.13-9.34,0.13-18.93c0-10.62,0-37.73-0.51-54.87h-0.25l-33.9,79.43h-1.92l-37.86-79.05l-0.26,0.25l1.02,73.17
		l11.9,0.25v4.09c-4.35,0-9.85-0.25-13.56-0.25c-4.6,0-9.21,0.25-13.81,0.25v-4.09l10.62-0.25c0.26-9.46,0.64-62.8-0.38-81.22
		l-9.72-0.38v-4.09c10.36,0.25,11.51,0.25,12.92,0.25c1.92,0,10.87-0.25,13.43-0.25l33,69.32l29.42-69.07c6.65,0,17.26,0,26.35-0.25
		v4.09l-10.36,0.38c-0.13,4.35-0.26,7.42-0.13,11.51c0.25,23.02,0.51,46.69,0.89,69.71l9.98,0.25v4.09H356.68z"/>
	<path class="st0" d="M376.16,50.15v12.26h11.02v2.01h-11.02v17.45h-2.12V48.14h13.45v2.01C387.49,50.15,376.16,50.15,376.16,50.15z
		"/>
	<path class="st0" d="M426.29,65c0,9.49-7.92,17.32-17.3,17.32c-9.38,0-17.31-7.83-17.31-17.32s7.88-17.31,17.31-17.31
		C418.37,47.69,426.29,55.52,426.29,65z M393.81,65c0,8.33,6.86,15.3,15.18,15.3c8.27,0,15.18-7.03,15.18-15.3
		c0-8.32-6.9-15.3-15.18-15.3C400.67,49.7,393.81,56.68,393.81,65z"/>
	<path class="st0" d="M451.69,48.14h2.12v21.03c0,3.44,0,6.4-2.25,9.21c-2.26,2.6-5.71,3.94-9.07,3.94c-3.36,0-6.81-1.34-9.07-3.94
		c-2.26-2.82-2.26-5.77-2.26-9.21V48.14h2.12v20.41c0,3.04,0,6.26,1.73,8.5c1.64,2.15,4.91,3.27,7.48,3.27s5.84-1.12,7.48-3.27
		c1.73-2.24,1.73-5.46,1.73-8.5V48.14H451.69z"/>
	<path class="st0" d="M490.8,83l-28.01-30.12v29h-2.12V47.69l28.01,29.89V48.14h2.12V83z"/>
	<path class="st0" d="M497.97,48.14h6.02c4.87,0,8.72,0.8,12.39,4.25c3.5,3.31,5.31,7.83,5.31,12.66c0,4.66-1.77,9.09-5.13,12.35
		c-3.67,3.58-7.61,4.47-12.57,4.47h-6.02V48.14z M503.94,79.86c4.38,0,8.01-0.9,11.2-4.07c2.83-2.86,4.43-6.71,4.43-10.74
		c0-4.29-1.68-8.32-4.82-11.23c-3.19-2.91-6.64-3.67-10.8-3.67h-3.85v29.71H503.94z"/>
	<path class="st0" d="M530.09,70.78l-4.47,11.1h-2.17l13.99-34.86l13.94,34.86h-2.17l-4.47-11.1H530.09z M537.44,52.48l-6.55,16.29
		h13.06L537.44,52.48z"/>
	<path class="st0" d="M559.07,81.88h-2.12V50.15h-8.63v-2.01h19.38v2.01h-8.63V81.88z"/>
	<path class="st0" d="M573.67,81.88h-2.12V48.14h2.12V81.88z"/>
	<path class="st0" d="M613.45,65c0,9.49-7.92,17.32-17.3,17.32S578.84,74.49,578.84,65s7.88-17.31,17.31-17.31
		C605.53,47.69,613.45,55.52,613.45,65z M580.97,65c0,8.33,6.86,15.3,15.18,15.3c8.27,0,15.18-7.03,15.18-15.3
		c0-8.32-6.9-15.3-15.18-15.3C587.83,49.7,580.97,56.68,580.97,65z"/>
	<path class="st0" d="M648.76,83l-28.01-30.12v29h-2.12V47.69l28.01,29.89V48.14h2.13V83H648.76z"/>
	<path class="st0" d="M132.84,71.7h-1.55V48.77h-6.31v-1.46h14.17v1.46h-6.31V71.7z"/>
	<path class="st0" d="M158.33,57.66V47.31h1.55v24.4h-1.55V59.12h-14.82V71.7h-1.55V47.3h1.55v10.35h14.82V57.66z"/>
	<path class="st0" d="M166.68,48.77v8.86h9.84v1.46h-9.84v11.16h10.09v1.46h-11.65v-24.4h11.65v1.46
		C176.77,48.77,166.68,48.77,166.68,48.77z"/>
	<path class="st0" d="M376.73,130.38l-2.54,6.04h-1.23l7.93-18.98l7.91,18.98h-1.23l-2.54-6.04H376.73z M380.9,120.42l-3.72,8.87
		h7.41L380.9,120.42z"/>
	<path class="st0" d="M406.78,136.42v-18.37h3.79c1.43,0,2.79,0.1,3.92,1.07c1.15,0.98,1.58,2.34,1.58,3.8
		c0,1.68-0.68,2.93-2.18,3.75c2.34,0.46,3.92,2.29,3.92,4.63c0,1.49-0.58,2.83-1.76,3.8c-1.33,1.09-2.74,1.31-4.42,1.31
		L406.78,136.42L406.78,136.42z M407.99,126.39h2.09c1.28,0,2.31,0.07,3.39-0.68c1.08-0.75,1.41-1.68,1.41-2.95
		c0-1.19-0.48-2.36-1.56-3.02c-0.95-0.58-2.14-0.58-3.24-0.58h-2.09L407.99,126.39L407.99,126.39z M407.99,135.33h2.89
		c1.33,0,2.71,0.05,3.87-0.71c1.16-0.76,1.86-1.9,1.86-3.26c0-1.34-0.68-2.68-1.96-3.29c-1.16-0.56-2.74-0.59-3.99-0.59H408v7.85
		H407.99z"/>
	<path class="st0" d="M434.35,136.42h-1.38l-6.18-8.7h-0.6v8.7h-1.21v-18.37h2.36c1.53,0,3.04,0.02,4.32,0.92
		c1.36,0.93,1.91,2.39,1.91,3.95c0,3.19-2.28,4.85-5.43,4.8L434.35,136.42z M427.72,126.63c1.18,0,2.36-0.05,3.31-0.85
		c0.9-0.71,1.33-1.8,1.33-2.9c0-1.36-0.65-2.73-2.01-3.31c-1.01-0.46-2.28-0.41-3.39-0.41h-0.78v7.48h1.54V126.63z"/>
	<path class="st0" d="M442.46,119.15v6.67h7.63v1.1h-7.63v8.41h7.84v1.09h-9.04v-18.37h9.04v1.1
		C450.3,119.15,442.46,119.15,442.46,119.15z"/>
	<path class="st0" d="M459.86,130.38l-2.54,6.04h-1.23l7.94-18.98l7.91,18.98h-1.23l-2.54-6.04H459.86z M464.03,120.42l-3.72,8.87
		h7.41L464.03,120.42z"/>
	<path class="st0" d="M480.32,136.42h-1.21v-17.27h-4.9v-1.1h11v1.1h-4.9L480.32,136.42L480.32,136.42z"/>
	<path class="st0" d="M504.13,125.85v-7.8h1.2v18.37h-1.2v-9.48h-11.5v9.48h-1.21v-18.37h1.21v7.8H504.13z"/>
	<path class="st0" d="M543.72,127.24c0,5.17-4.49,9.43-9.82,9.43c-5.32,0-9.82-4.26-9.82-9.43c0-5.16,4.47-9.43,9.82-9.43
		C539.23,117.81,543.72,122.08,543.72,127.24z M525.29,127.24c0,4.53,3.89,8.33,8.61,8.33c4.7,0,8.61-3.83,8.61-8.33
		c0-4.53-3.92-8.33-8.61-8.33C529.18,118.91,525.29,122.71,525.29,127.24z"/>
	<path class="st0" d="M551.88,119.15v6.67h6.25v1.1h-6.25v9.5h-1.21v-18.37h7.63v1.1C558.3,119.15,551.88,119.15,551.88,119.15z"/>
	<path class="st0" d="M590.35,125.85v-7.8h1.21v18.37h-1.21v-9.48h-11.5v9.48h-1.21v-18.37h1.21v7.8H590.35z"/>
	<path class="st0" d="M618.14,127.24c0,5.17-4.5,9.43-9.82,9.43s-9.82-4.26-9.82-9.43c0-5.16,4.47-9.43,9.82-9.43
		C613.64,117.81,618.14,122.08,618.14,127.24z M599.71,127.24c0,4.53,3.89,8.33,8.61,8.33c4.69,0,8.61-3.83,8.61-8.33
		c0-4.53-3.92-8.33-8.61-8.33C603.6,118.91,599.71,122.71,599.71,127.24z"/>
	<path class="st0" d="M626.3,136.42h-1.21v-18.37h3.34c1.48,0,2.91,0.1,4.09,1.07c1.16,0.95,1.71,2.34,1.71,3.78
		c0,1.31-0.53,2.78-1.58,3.63c-1.16,0.97-2.74,1.17-4.22,1.17h-2.13L626.3,136.42L626.3,136.42z M628.48,126.61
		c1.23,0,2.34-0.15,3.32-1c0.83-0.73,1.23-1.68,1.23-2.75c0-1.14-0.48-2.29-1.43-2.97c-0.95-0.71-2.16-0.73-3.32-0.73h-1.98v7.45
		C626.3,126.61,628.48,126.61,628.48,126.61z"/>
	<path class="st0" d="M642.16,119.15v6.67h7.63v1.1h-7.63v8.41H650v1.09h-9.04v-18.37H650v1.1
		C650,119.15,642.16,119.15,642.16,119.15z"/>
	<rect x="373.28" y="98.36" class="st0" width="277.33" height="2.31"/>
	<g>
		<path class="st0" d="M349.13,126.54c0-2.11,1.72-3.82,3.84-3.82c2.11,0,3.82,1.71,3.82,3.82c0,2.12-1.72,3.84-3.82,3.84
			C350.86,130.38,349.13,128.66,349.13,126.54z M356.32,126.54c0-1.86-1.49-3.35-3.35-3.35c-1.87,0-3.37,1.49-3.37,3.35
			c0,1.88,1.5,3.37,3.37,3.37C354.84,129.9,356.32,128.42,356.32,126.54z M354.85,128.71h-0.61l-1.2-1.93h-0.98v1.93h-0.48v-4.19
			h1.83c1.11,0,1.49,0.42,1.49,1.11c0,0.82-0.58,1.13-1.32,1.15L354.85,128.71z M352.88,126.31c0.59,0,1.54,0.1,1.54-0.68
			c0-0.54-0.61-0.62-1.13-0.62h-1.24v1.31L352.88,126.31L352.88,126.31z"/>
	</g>
	<g>
		<g>
			<g>
				<g>
					
						<linearGradient id="SVGID_2_" gradientUnits="userSpaceOnUse" x1="36.06" y1="108.2085" x2="90.4" y2="108.2085" gradientTransform="matrix(1 0 0 -1 0 180)">
						<stop  offset="0.0632" style="stop-color:#F9C4CE"/>
						<stop  offset="1" style="stop-color:#F16D9A"/>
					</linearGradient>
					<path id="SVGID_1_" class="st1" d="M58.24,24.8c-0.12,0-0.25,0.02-0.41,0.08c-0.88,0.32-3.41,18.62-3.74,19.16
						c-0.18,0.28-1.95-0.25-3.69-0.77c-1.54-0.47-3.04-0.94-3.36-0.84c-0.65,0.21,1.88,1.82,4.62,3.32c1.7,0.92-4.32,1.47-9.13,2.14
						c-2.96,0.41-5.52,1.08-5.39,1.28c0.32,0.54,8.8,0.54,9.35,0.96c0.55,0.43-9.46,4.39-9.46,4.39s-0.96,0.48-0.97,0.8v0.02
						c0.01,0.2,0.47,0.32,1.96,0.15c3.74-0.42,7.49-2.25,7.49-1.29c0,0.97-6.71,3.96-6.27,4.39c0.21,0.2,1.64-0.19,3.09-0.59
						c1.62-0.44,3.29-0.88,3.29-0.49c0,0.75-7.26,4.6-7.81,5.57c0.28,0.5,1.53,0.03,2.62-0.43c1.02-0.44,1.92-0.88,1.78-0.53
						c-3.3,8.46-0.22,11.67-0.22,11.67c1.54-4.71,8.25-11.14,7.81-9.96c-9.9,12.95-8.36,20.55-7.59,20.87
						c0.33,0,0.66-1.92,0.66-1.92c13.2,43.99,47.53,35.32,47.53,35.32C39.9,94.66,59.03,25.3,59.03,25.3s-0.21-0.51-0.78-0.51h-0.01
						V24.8z"/>
				</g>
			</g>
			<g>
				<g>
					
						<linearGradient id="SVGID_3_" gradientUnits="userSpaceOnUse" x1="57.2815" y1="99.06" x2="103.44" y2="99.06" gradientTransform="matrix(1 0 0 -1 0 180)">
						<stop  offset="0.0632" style="stop-color:#F9C4CE"/>
						<stop  offset="1" style="stop-color:#F16D9A"/>
					</linearGradient>
					<path id="SVGID_4_" class="st2" d="M57.83,45.85c-3.3,31.67,9.02,50.84,17.49,59.83c7.38,7.82,17.61,11.34,17.61,11.34
						c5.06-0.42,10.51-5.99,10.51-5.99C87.6,103.75,77.09,84.49,76.1,79.46c-1.17-5.95-2.86-11.56-3.74-13.92
						c-0.88-2.35-2.85-5.56-2.85-6.1c0-0.27,1.01,0.4,2.1,1.07s2.23,1.33,2.52,1.07c0.55-0.53-0.44-1.18-2.09-2.46
						c-1.5-1.17-6.39-6.22-5.61-6.42c1.65-0.43,5.83,2.89,5.83,2.89s2.64,1.82,1.97,0.21c-0.88-2.15-8.68-6.74-8.46-7.49
						s5.17-0.53,5.83-0.96s0.12-0.96,0.12-0.96c-1.99,0.43-12.54-1.29-13.54-1.5c-0.08-0.02-0.15-0.03-0.21-0.03
						C57.28,44.86,57.83,45.85,57.83,45.85"/>
				</g>
			</g>
			<g>
				<g>
					
						<linearGradient id="SVGID_5_" gradientUnits="userSpaceOnUse" x1="79.16" y1="78.3665" x2="129.2533" y2="78.3665" gradientTransform="matrix(1 0 0 -1 0 180)">
						<stop  offset="0.0632" style="stop-color:#F9C4CE"/>
						<stop  offset="1" style="stop-color:#F16D9A"/>
					</linearGradient>
					<path id="SVGID_7_" class="st3" d="M127.68,82.62l0.17,5.46l-2.14-4.18l-1.65,1.44l3.29,6.1l-0.66,0.81l-3.96-5.62l-4.29,4.66
						l4.45,6.42l-0.49,0.65l-5.45-5.46c0,0-2.8,2.57-9.9,15.25s-27.89,11.72-27.89,11.72c9.24,2.89,21.12,1.77,31.18-3.05
						c10.08-4.81,13.54-10.43,16.51-16.54c3.51-7.22,2.14-18.46,2.14-18.46L127.68,82.62z"/>
				</g>
			</g>
			<g>
				<g>
					
						<linearGradient id="SVGID_6_" gradientUnits="userSpaceOnUse" x1="102.9236" y1="78.36" x2="136.8539" y2="78.36" gradientTransform="matrix(1 0 0 -1 0 180)">
						<stop  offset="0.0632" style="stop-color:#F9C4CE"/>
						<stop  offset="1" style="stop-color:#F16D9A"/>
					</linearGradient>
					<path id="SVGID_10_" class="st4" d="M123.55,108.31c-8.41,10.27-20.95,11.97-20.62,12.36c0.42,0.48,0.83,0.8,0.83,0.8
						s35.14-6.42,33-30.83l-4.79,4.98l-0.5-0.64l4.63-5.78l-0.49-1.93l-3.3,3.21l2.31-5.13l-0.99-1.44l-1.65,2.57l0.17-3.38
						L130,81.81C130,81.81,133.47,96.2,123.55,108.31"/>
				</g>
			</g>
			<g>
				<g>
					<g>
						
							<linearGradient id="SVGID_8_" gradientUnits="userSpaceOnUse" x1="36.06" y1="108.2085" x2="90.4" y2="108.2085" gradientTransform="matrix(1 0 0 -1 0 180)">
							<stop  offset="0.065" style="stop-color:#F8C2D9"/>
							<stop  offset="0.1441" style="stop-color:#F6B0CF"/>
							<stop  offset="0.3602" style="stop-color:#F287B7"/>
							<stop  offset="0.5613" style="stop-color:#F063A4"/>
							<stop  offset="0.7413" style="stop-color:#EE4197"/>
							<stop  offset="0.8936" style="stop-color:#ED208F"/>
							<stop  offset="1" style="stop-color:#EC098D"/>
						</linearGradient>
						<path id="SVGID_13_" class="st5" d="M58.24,24.8c-0.12,0-0.25,0.02-0.41,0.08c-0.88,0.32-3.41,18.62-3.74,19.16
							c-0.18,0.28-1.95-0.25-3.69-0.77c-1.54-0.47-3.04-0.94-3.36-0.84c-0.65,0.21,1.88,1.82,4.62,3.32
							c1.7,0.92-4.32,1.47-9.13,2.14c-2.96,0.41-5.52,1.08-5.39,1.28c0.32,0.54,8.8,0.54,9.35,0.96c0.55,0.43-9.46,4.39-9.46,4.39
							s-0.96,0.48-0.97,0.8v0.02c0.01,0.2,0.47,0.32,1.96,0.15c3.74-0.42,7.49-2.25,7.49-1.29c0,0.97-6.71,3.96-6.27,4.39
							c0.21,0.2,1.64-0.19,3.09-0.59c1.62-0.44,3.29-0.88,3.29-0.49c0,0.75-7.26,4.6-7.81,5.57c0.28,0.5,1.53,0.03,2.62-0.43
							c1.02-0.44,1.92-0.88,1.78-0.53c-3.3,8.46-0.22,11.67-0.22,11.67c1.54-4.71,8.25-11.14,7.81-9.96
							c-9.9,12.95-8.36,20.55-7.59,20.87c0.33,0,0.66-1.92,0.66-1.92c13.2,43.99,47.53,35.32,47.53,35.32
							C39.9,94.66,59.03,25.3,59.03,25.3s-0.21-0.51-0.78-0.51h-0.01V24.8z"/>
					</g>
				</g>
				<g>
					<g>
						
							<linearGradient id="SVGID_9_" gradientUnits="userSpaceOnUse" x1="57.2815" y1="99.06" x2="103.44" y2="99.06" gradientTransform="matrix(1 0 0 -1 0 180)">
							<stop  offset="0.065" style="stop-color:#F8C2D9"/>
							<stop  offset="0.1441" style="stop-color:#F6B0CF"/>
							<stop  offset="0.3602" style="stop-color:#F287B7"/>
							<stop  offset="0.5613" style="stop-color:#F063A4"/>
							<stop  offset="0.7413" style="stop-color:#EE4197"/>
							<stop  offset="0.8936" style="stop-color:#ED208F"/>
							<stop  offset="1" style="stop-color:#EC098D"/>
						</linearGradient>
						<path id="SVGID_16_" class="st6" d="M57.83,45.85c-3.3,31.67,9.02,50.84,17.49,59.83c7.38,7.82,17.61,11.34,17.61,11.34
							c5.06-0.42,10.51-5.99,10.51-5.99C87.6,103.75,77.09,84.49,76.1,79.46c-1.17-5.95-2.86-11.56-3.74-13.92
							c-0.88-2.35-2.85-5.56-2.85-6.1c0-0.27,1.01,0.4,2.1,1.07s2.23,1.33,2.52,1.07c0.55-0.53-0.44-1.18-2.09-2.46
							c-1.5-1.17-6.39-6.22-5.61-6.42c1.65-0.43,5.83,2.89,5.83,2.89s2.64,1.82,1.97,0.21c-0.88-2.15-8.68-6.74-8.46-7.49
							s5.17-0.53,5.83-0.96s0.12-0.96,0.12-0.96c-1.99,0.43-12.54-1.29-13.54-1.5c-0.08-0.02-0.15-0.03-0.21-0.03
							C57.28,44.86,57.83,45.85,57.83,45.85"/>
					</g>
				</g>
				<g>
					<g>
						
							<linearGradient id="SVGID_11_" gradientUnits="userSpaceOnUse" x1="79.16" y1="78.3665" x2="129.2533" y2="78.3665" gradientTransform="matrix(1 0 0 -1 0 180)">
							<stop  offset="0.067" style="stop-color:#F8C2D9"/>
							<stop  offset="0.1709" style="stop-color:#F7BBD5"/>
							<stop  offset="0.3404" style="stop-color:#F6A8CA"/>
							<stop  offset="0.5545" style="stop-color:#F38AB8"/>
							<stop  offset="0.8022" style="stop-color:#EF5BA1"/>
							<stop  offset="1" style="stop-color:#EC098D"/>
						</linearGradient>
						<path id="SVGID_19_" class="st7" d="M127.68,82.62l0.17,5.46l-2.14-4.18l-1.65,1.44l3.29,6.1l-0.66,0.81l-3.96-5.62
							l-4.29,4.66l4.45,6.42l-0.49,0.65l-5.45-5.46c0,0-2.8,2.57-9.9,15.25s-27.89,11.72-27.89,11.72
							c9.24,2.89,21.12,1.77,31.18-3.05c10.08-4.81,13.54-10.43,16.51-16.54c3.51-7.22,2.14-18.46,2.14-18.46L127.68,82.62z"/>
					</g>
				</g>
				<g>
					<g>
						
							<linearGradient id="SVGID_12_" gradientUnits="userSpaceOnUse" x1="102.9236" y1="78.36" x2="136.8539" y2="78.36" gradientTransform="matrix(1 0 0 -1 0 180)">
							<stop  offset="0.065" style="stop-color:#F8C2D9"/>
							<stop  offset="1" style="stop-color:#EC098D"/>
						</linearGradient>
						<path id="SVGID_22_" class="st8" d="M123.55,108.31c-8.41,10.27-20.95,11.97-20.62,12.36c0.42,0.48,0.83,0.8,0.83,0.8
							s35.14-6.42,33-30.83l-4.79,4.98l-0.5-0.64l4.63-5.78l-0.49-1.93l-3.3,3.21l2.31-5.13l-0.99-1.44l-1.65,2.57l0.17-3.38
							L130,81.81C130,81.81,133.47,96.2,123.55,108.31"/>
					</g>
				</g>
			</g>
		</g>
	</g>
</g>
</svg>
